<svg width="796" height="635" viewBox="0 0 796 635" fill="none" xmlns="http://www.w3.org/2000/svg">
<g opacity="0.3">
<path d="M519.496 152.261C518.429 153.904 516.899 155.194 515.098 155.967C513.298 156.741 511.309 156.963 509.382 156.606C507.455 156.249 505.678 155.328 504.274 153.961C502.871 152.594 501.904 150.841 501.497 148.924C501.09 147.008 501.26 145.013 501.986 143.193C502.712 141.373 503.961 139.81 505.576 138.7C507.191 137.59 509.099 136.984 511.058 136.958C513.017 136.933 514.94 137.489 516.584 138.556C517.675 139.264 518.616 140.181 519.352 141.253C520.089 142.325 520.608 143.532 520.878 144.805C521.149 146.077 521.166 147.391 520.929 148.67C520.692 149.949 520.205 151.169 519.496 152.261Z" fill="#F6F9FE"/>
<path d="M576.269 211.237C575.747 212.041 574.998 212.672 574.117 213.051C573.236 213.429 572.262 213.538 571.32 213.363C570.377 213.188 569.507 212.738 568.821 212.069C568.134 211.4 567.661 210.542 567.462 209.605C567.262 208.667 567.345 207.691 567.701 206.8C568.056 205.91 568.667 205.145 569.458 204.602C570.248 204.059 571.181 203.762 572.14 203.75C573.098 203.737 574.039 204.009 574.843 204.531C575.922 205.231 576.678 206.331 576.945 207.589C577.212 208.846 576.969 210.159 576.269 211.237Z" fill="#F6F9FE"/>
<path d="M288.536 271.232C288.191 271.764 287.696 272.181 287.113 272.431C286.53 272.682 285.886 272.754 285.263 272.638C284.639 272.523 284.064 272.225 283.61 271.782C283.156 271.34 282.843 270.772 282.711 270.152C282.579 269.532 282.634 268.886 282.869 268.297C283.104 267.708 283.508 267.202 284.031 266.843C284.554 266.484 285.171 266.288 285.805 266.279C286.439 266.271 287.062 266.451 287.594 266.796C287.947 267.026 288.251 267.322 288.49 267.669C288.728 268.016 288.896 268.407 288.984 268.819C289.071 269.231 289.077 269.656 289 270.07C288.923 270.484 288.766 270.879 288.536 271.232Z" fill="#F6F9FE"/>
<path d="M532.446 295.845C534.713 297.318 537.744 296.673 539.216 294.406C540.689 292.139 540.044 289.108 537.777 287.636C535.51 286.164 532.479 286.808 531.007 289.075C529.535 291.342 530.179 294.373 532.446 295.845Z" fill="#F6F9FE"/>
<path d="M81.7871 181.521C81.1048 182.571 80.1261 183.396 78.975 183.891C77.8239 184.385 76.5519 184.527 75.32 184.299C74.0882 184.071 72.9517 183.482 72.0542 182.608C71.1568 181.734 70.5388 180.613 70.2783 179.388C70.0178 178.162 70.1266 176.887 70.5908 175.723C71.0551 174.559 71.854 173.56 72.8865 172.85C73.919 172.14 75.1388 171.753 76.3915 171.736C77.6443 171.72 78.8738 172.075 79.9245 172.758C80.6222 173.211 81.2238 173.797 81.695 174.482C82.1662 175.168 82.4978 175.94 82.6708 176.753C82.8437 177.567 82.8547 178.407 82.7031 179.225C82.5515 180.043 82.2402 180.823 81.7871 181.521Z" fill="#F6F9FE"/>
<path d="M615.923 134.138C620.16 136.889 625.825 135.685 628.576 131.448C631.328 127.212 630.123 121.547 625.887 118.795C621.65 116.044 615.985 117.248 613.234 121.485C610.482 125.722 611.686 131.387 615.923 134.138Z" fill="white"/>
<path d="M369.736 39.1873C368.932 40.4261 367.778 41.3986 366.421 41.9817C365.063 42.5648 363.564 42.7323 362.111 42.4631C360.659 42.1939 359.319 41.5 358.261 40.4692C357.203 39.4384 356.474 38.1171 356.167 36.6722C355.86 35.2273 355.988 33.7237 356.535 32.3517C357.083 30.9797 358.025 29.8008 359.242 28.9641C360.46 28.1274 361.898 27.6706 363.375 27.6513C364.852 27.6319 366.302 28.051 367.54 28.8556C369.202 29.9345 370.366 31.6291 370.778 33.5666C371.19 35.5042 370.815 37.526 369.736 39.1873Z" fill="white"/>
<path d="M144.439 375.446C144.106 375.959 143.628 376.362 143.066 376.603C142.504 376.845 141.883 376.914 141.281 376.803C140.679 376.691 140.124 376.404 139.686 375.977C139.248 375.55 138.946 375.002 138.819 374.404C138.691 373.805 138.744 373.183 138.971 372.614C139.198 372.046 139.588 371.558 140.092 371.211C140.597 370.864 141.192 370.675 141.804 370.667C142.416 370.659 143.017 370.833 143.53 371.166C143.87 371.387 144.164 371.674 144.394 372.008C144.624 372.343 144.786 372.72 144.871 373.117C144.955 373.515 144.961 373.925 144.887 374.324C144.813 374.724 144.661 375.105 144.439 375.446Z" fill="white"/>
<path d="M348.004 455.872C350.71 457.629 354.329 456.86 356.086 454.154C357.843 451.448 357.074 447.83 354.368 446.073C351.662 444.316 348.044 445.085 346.287 447.791C344.529 450.497 345.298 454.115 348.004 455.872Z" fill="white"/>
<path d="M248.514 137.681C248.051 138.394 247.387 138.953 246.607 139.289C245.826 139.624 244.964 139.72 244.128 139.566C243.293 139.411 242.522 139.012 241.913 138.419C241.305 137.826 240.885 137.066 240.709 136.235C240.532 135.403 240.606 134.539 240.921 133.749C241.236 132.96 241.777 132.282 242.478 131.801C243.178 131.32 244.005 131.057 244.855 131.046C245.705 131.035 246.538 131.276 247.251 131.739C247.724 132.046 248.132 132.443 248.452 132.908C248.771 133.373 248.996 133.897 249.113 134.448C249.231 135 249.238 135.57 249.135 136.124C249.032 136.679 248.821 137.208 248.514 137.681Z" fill="white"/>
<path d="M273.064 56.3129C272.733 56.8226 272.258 57.2227 271.699 57.4627C271.141 57.7026 270.524 57.7714 269.926 57.6606C269.329 57.5499 268.777 57.2644 268.342 56.8403C267.907 56.4162 267.607 55.8726 267.481 55.2781C267.354 54.6836 267.407 54.0649 267.632 53.5004C267.857 52.9359 268.245 52.4507 268.746 52.1065C269.247 51.7622 269.838 51.5742 270.446 51.5663C271.054 51.5583 271.65 51.7307 272.16 52.0617C272.844 52.5056 273.323 53.2029 273.492 54.0001C273.662 54.7974 273.508 55.6293 273.064 56.3129Z" fill="white"/>
<path d="M432.765 243.293C436.958 246.016 442.565 244.824 445.288 240.631C448.011 236.438 446.819 230.831 442.626 228.108C438.433 225.385 432.826 226.577 430.103 230.77C427.38 234.963 428.571 240.57 432.765 243.293Z" fill="white"/>
<path d="M155.805 75.7747C154.897 77.1719 153.596 78.2686 152.065 78.9262C150.535 79.5838 148.843 79.7728 147.205 79.4692C145.567 79.1656 144.056 78.3831 142.863 77.2207C141.67 76.0582 140.848 74.568 140.501 72.9385C140.155 71.3089 140.3 69.6133 140.917 68.066C141.534 66.5187 142.597 65.1892 143.97 64.2456C145.343 63.302 146.964 62.7867 148.63 62.7649C150.296 62.7431 151.931 63.2157 153.328 64.1231C154.256 64.7255 155.056 65.5047 155.682 66.4163C156.309 67.3279 156.749 68.354 156.979 69.436C157.209 70.5179 157.224 71.6346 157.022 72.7222C156.821 73.8098 156.407 74.847 155.805 75.7747Z" fill="white"/>
<path d="M438.777 87.4046C441.133 88.9349 444.284 88.2652 445.814 85.9088C447.345 83.5523 446.675 80.4015 444.318 78.8712C441.962 77.3409 438.811 78.0106 437.281 80.3671C435.75 82.7235 436.42 85.8743 438.777 87.4046Z" fill="white"/>
<path d="M248.233 384.31C247.209 385.887 245.741 387.125 244.013 387.867C242.286 388.609 240.377 388.823 238.528 388.48C236.68 388.137 234.974 387.254 233.628 385.942C232.281 384.63 231.353 382.949 230.962 381.11C230.572 379.27 230.735 377.357 231.432 375.611C232.128 373.864 233.327 372.364 234.877 371.299C236.426 370.234 238.256 369.653 240.136 369.628C242.016 369.603 243.861 370.137 245.438 371.161C247.553 372.534 249.035 374.691 249.559 377.157C250.083 379.623 249.606 382.196 248.233 384.31Z" fill="white"/>
<path d="M482.525 395.13C481.862 396.152 480.91 396.955 479.79 397.436C478.67 397.917 477.433 398.055 476.234 397.833C475.036 397.611 473.93 397.038 473.057 396.188C472.184 395.337 471.583 394.247 471.33 393.055C471.076 391.863 471.182 390.623 471.634 389.491C472.085 388.359 472.863 387.386 473.867 386.696C474.871 386.005 476.058 385.628 477.277 385.612C478.495 385.596 479.691 385.942 480.713 386.606C481.392 387.047 481.977 387.617 482.436 388.284C482.894 388.951 483.217 389.701 483.385 390.493C483.553 391.284 483.564 392.101 483.416 392.897C483.269 393.693 482.966 394.451 482.525 395.13Z" fill="white"/>
<path d="M400.354 348.676C399.851 349.45 399.13 350.058 398.282 350.422C397.434 350.786 396.497 350.891 395.59 350.723C394.682 350.555 393.845 350.121 393.184 349.477C392.523 348.833 392.067 348.007 391.875 347.105C391.684 346.202 391.764 345.263 392.106 344.405C392.448 343.548 393.036 342.811 393.797 342.289C394.558 341.766 395.456 341.48 396.379 341.468C397.302 341.456 398.208 341.718 398.982 342.221C400.02 342.895 400.747 343.954 401.005 345.164C401.262 346.375 401.028 347.638 400.354 348.676Z" fill="#F6F9FE"/>
<path d="M180.703 204.044C183.27 205.711 186.703 204.981 188.37 202.414C190.038 199.847 189.308 196.414 186.741 194.747C184.173 193.079 180.74 193.809 179.073 196.376C177.406 198.944 178.136 202.377 180.703 204.044Z" fill="#F6F9FE"/>
<path d="M68.5329 309.502C70.1597 310.558 72.3349 310.096 73.3914 308.469C74.4478 306.842 73.9855 304.667 72.3587 303.611C70.7319 302.554 68.5566 303.017 67.5002 304.643C66.4437 306.27 66.9061 308.445 68.5329 309.502Z" fill="#F6F9FE"/>
<path d="M643.71 34.0416C643.32 34.6431 642.759 35.1153 642.1 35.3984C641.441 35.6815 640.713 35.7629 640.008 35.6321C639.303 35.5014 638.652 35.1645 638.138 34.6639C637.624 34.1634 637.271 33.5218 637.121 32.8202C636.972 32.1186 637.035 31.3886 637.301 30.7224C637.566 30.0562 638.024 29.4838 638.615 29.0775C639.206 28.6713 639.904 28.4495 640.621 28.4401C641.339 28.4307 642.042 28.6342 642.644 29.0249C643.043 29.2842 643.388 29.6198 643.658 30.0123C643.927 30.4048 644.117 30.8465 644.216 31.3124C644.315 31.7782 644.321 32.259 644.235 32.7273C644.148 33.1956 643.97 33.6422 643.71 34.0416Z" fill="#F6F9FE"/>
<path d="M-3.48981 110.85C-1.99543 111.82 0.00270913 111.396 0.973168 109.901C1.94363 108.407 1.51891 106.409 0.024533 105.438C-1.46984 104.468 -3.46799 104.893 -4.43845 106.387C-5.40891 107.881 -4.98419 109.879 -3.48981 110.85Z" fill="#D1D1D1"/>
<path d="M59.9772 25.557C59.5073 26.2806 58.8334 26.8486 58.0407 27.1891C57.2479 27.5297 56.372 27.6276 55.5237 27.4704C54.6754 27.3131 53.8927 26.9079 53.2747 26.3059C52.6567 25.7038 52.2311 24.932 52.0517 24.0881C51.8724 23.2442 51.9472 22.366 52.2669 21.5646C52.5867 20.7633 53.1368 20.0747 53.8478 19.586C54.5589 19.0974 55.3989 18.8305 56.2616 18.8192C57.1243 18.8079 57.971 19.0527 58.6945 19.5226C59.6648 20.1528 60.3451 21.1425 60.5856 22.2742C60.8262 23.4058 60.6073 24.5867 59.9772 25.557Z" fill="#D1D1D1"/>
<path d="M170.139 288.103C169.398 289.243 168.336 290.138 167.087 290.675C165.838 291.212 164.457 291.366 163.121 291.118C161.784 290.871 160.55 290.232 159.576 289.283C158.602 288.335 157.932 287.118 157.649 285.788C157.366 284.458 157.484 283.075 157.988 281.812C158.492 280.549 159.359 279.464 160.479 278.694C161.6 277.924 162.924 277.503 164.283 277.485C165.643 277.467 166.977 277.853 168.117 278.594C169.646 279.587 170.718 281.146 171.097 282.93C171.477 284.713 171.132 286.574 170.139 288.103Z" fill="#D1D1D1"/>
<path d="M520.522 29.7009C520.249 30.1214 519.858 30.4515 519.397 30.6494C518.936 30.8473 518.427 30.9042 517.934 30.8129C517.441 30.7215 516.987 30.4861 516.628 30.1362C516.268 29.7864 516.021 29.3379 515.917 28.8475C515.813 28.3571 515.856 27.8469 516.042 27.3812C516.228 26.9155 516.547 26.5153 516.96 26.2314C517.374 25.9474 517.862 25.7923 518.363 25.7857C518.864 25.7791 519.356 25.9214 519.777 26.1944C520.341 26.5606 520.736 27.1357 520.876 27.7933C521.016 28.4509 520.888 29.137 520.522 29.7009Z" fill="#D1D1D1"/>
<path d="M2.33101 246.631C1.76088 247.509 0.943245 248.198 -0.0185113 248.611C-0.980268 249.025 -2.04294 249.143 -3.07217 248.953C-4.10139 248.762 -5.05096 248.27 -5.80075 247.54C-6.55054 246.809 -7.06692 245.873 -7.28455 244.849C-7.50218 243.825 -7.4113 242.76 -7.02342 241.788C-6.63554 240.815 -5.9681 239.98 -5.10545 239.387C-4.2428 238.794 -3.22365 238.47 -2.17699 238.457C-1.13032 238.443 -0.103105 238.74 0.774791 239.31C1.35771 239.688 1.86037 240.178 2.25405 240.751C2.64773 241.324 2.92475 241.968 3.06925 242.648C3.21376 243.328 3.22294 244.03 3.09627 244.713C2.9696 245.397 2.70956 246.048 2.33101 246.631Z" fill="#D1D1D1"/>
<path d="M340.964 181.046C343.293 182.559 346.408 181.897 347.921 179.567C349.433 177.238 348.771 174.123 346.442 172.611C344.113 171.098 340.998 171.76 339.485 174.089C337.973 176.419 338.635 179.533 340.964 181.046Z" fill="#D1D1D1"/>
<path d="M683.376 23.4775L683.335 23.445L604.812 -51.196C604.773 -51.2328 604.746 -51.2798 604.733 -51.3315C604.719 -51.3832 604.721 -51.4377 604.738 -51.4884C604.754 -51.5392 604.785 -51.5842 604.826 -51.6182C604.867 -51.6523 604.917 -51.674 604.97 -51.6808L742.053 -69.6941C742.107 -69.7011 742.161 -69.6929 742.209 -69.6702C742.258 -69.6475 742.299 -69.6114 742.328 -69.5661C742.357 -69.5208 742.373 -69.4682 742.373 -69.4145C742.373 -69.3607 742.358 -69.3081 742.329 -69.2627L683.769 23.3916C683.749 23.4232 683.723 23.4506 683.693 23.4721C683.662 23.4936 683.627 23.5087 683.591 23.5167C683.554 23.5247 683.516 23.5254 683.48 23.5187C683.443 23.512 683.408 23.4979 683.376 23.4775ZM605.631 -51.1978L683.475 22.7977L741.529 -69.0549L605.631 -51.1978Z" fill="white"/>
<path d="M449.081 0.109477C449.04 0.0835369 449.008 0.0478563 448.985 0.00575987C448.963 -0.0363302 448.951 -0.0834462 448.952 -0.131192C448.952 -0.178931 448.965 -0.225747 448.989 -0.267228C449.012 -0.308703 449.046 -0.343534 449.087 -0.368402L527.355 -48.4561C527.396 -48.4815 527.444 -48.4958 527.492 -48.4977C527.541 -48.4995 527.589 -48.4888 527.632 -48.4667C527.675 -48.4445 527.712 -48.4116 527.739 -48.3711C527.765 -48.3307 527.781 -48.284 527.785 -48.2356L534.087 37.8203C534.091 37.8691 534.082 37.918 534.061 37.9622C534.04 38.0064 534.008 38.0444 533.968 38.0725C533.927 38.1006 533.881 38.1178 533.832 38.1224C533.783 38.1271 533.734 38.1189 533.69 38.0989L449.119 0.130576L449.081 0.109477ZM527.255 -47.7308L449.838 -0.166364L533.488 37.3886L527.255 -47.7308Z" fill="white"/>
<path d="M533.651 38.0781C533.618 38.0566 533.59 38.0284 533.568 37.9954C533.547 37.9623 533.532 37.9251 533.526 37.8862C533.52 37.8473 533.521 37.8074 533.531 37.7692C533.541 37.7311 533.559 37.6954 533.584 37.6645L604.785 -51.5774C604.82 -51.6217 604.868 -51.6543 604.922 -51.671C604.976 -51.6877 605.034 -51.6877 605.089 -51.6711C605.143 -51.655 605.191 -51.6226 605.227 -51.5783C605.262 -51.5341 605.284 -51.48 605.288 -51.4234L615.656 78.1945C615.66 78.2444 615.651 78.2945 615.629 78.3396C615.608 78.3847 615.574 78.4232 615.533 78.4512C615.491 78.4793 615.443 78.4959 615.393 78.4992C615.343 78.5026 615.293 78.4926 615.249 78.4703L533.679 38.0945L533.651 38.0781ZM604.782 -50.6666L534.244 37.7431L615.053 77.742L604.782 -50.6666Z" fill="white"/>
<path d="M533.651 38.0778C533.614 38.054 533.584 38.0221 533.562 37.9845C533.539 37.947 533.526 37.9047 533.523 37.8612L527.221 -48.1948C527.218 -48.2326 527.223 -48.2705 527.235 -48.3064C527.247 -48.3422 527.267 -48.3752 527.292 -48.4035C527.317 -48.4317 527.348 -48.4546 527.382 -48.4708C527.416 -48.487 527.454 -48.4961 527.491 -48.4976L604.996 -51.684C605.05 -51.6859 605.103 -51.6723 605.15 -51.6447C605.196 -51.6172 605.234 -51.5768 605.259 -51.5285C605.283 -51.4802 605.293 -51.4259 605.287 -51.3721C605.282 -51.3182 605.261 -51.267 605.227 -51.2246L534.026 38.0172C533.991 38.0616 533.942 38.0943 533.888 38.111C533.834 38.1277 533.775 38.1277 533.721 38.1109C533.696 38.1032 533.673 38.092 533.651 38.0778ZM527.806 -47.9447L534.034 37.1001L604.399 -51.0932L527.806 -47.9447Z" fill="white"/>
<path d="M670.239 122.823L670.216 122.806L615.197 78.4364C615.164 78.4098 615.138 78.3763 615.12 78.3383C615.102 78.3002 615.092 78.2585 615.092 78.2164C615.092 78.1742 615.102 78.1326 615.12 78.0945C615.138 78.0565 615.164 78.0229 615.197 77.9963L683.352 23.0188C683.396 22.9832 683.45 22.9618 683.506 22.957C683.563 22.9523 683.619 22.9645 683.668 22.9922C683.718 23.0199 683.758 23.0617 683.783 23.1123C683.808 23.1629 683.818 23.2199 683.81 23.2759L670.673 122.623C670.667 122.67 670.649 122.715 670.62 122.753C670.592 122.792 670.554 122.822 670.511 122.842C670.468 122.862 670.42 122.871 670.373 122.867C670.325 122.864 670.279 122.849 670.239 122.823ZM615.825 78.2167L670.179 122.05L683.158 23.9029L615.825 78.2167Z" fill="white"/>
<path d="M615.22 78.4545C615.184 78.4308 615.154 78.3992 615.132 78.3619C615.109 78.3247 615.096 78.2829 615.093 78.2397L604.725 -51.3785C604.72 -51.4355 604.733 -51.4926 604.762 -51.5421C604.79 -51.5917 604.833 -51.6315 604.885 -51.6561C604.937 -51.6807 604.995 -51.689 605.051 -51.6799C605.108 -51.6709 605.16 -51.6448 605.201 -51.6053L683.725 23.0358C683.754 23.0633 683.777 23.0968 683.792 23.134C683.807 23.1712 683.814 23.2112 683.813 23.2514C683.811 23.2915 683.801 23.3309 683.782 23.3668C683.764 23.4027 683.739 23.4343 683.708 23.4596L615.552 78.4374C615.512 78.4698 615.464 78.4907 615.413 78.4977C615.362 78.5047 615.31 78.4976 615.263 78.4772L615.22 78.4545ZM605.348 -50.6867L615.614 77.6609L683.101 23.2221L605.348 -50.6867Z" fill="white"/>
<path d="M453.187 53.4101C453.171 53.3997 453.156 53.3876 453.143 53.374L396.164 -2.88257C396.123 -2.92281 396.095 -2.97453 396.085 -3.03096C396.074 -3.08739 396.081 -3.14581 396.104 -3.19834C396.127 -3.25086 396.166 -3.29499 396.215 -3.32489C396.264 -3.35479 396.321 -3.36901 396.378 -3.36564L449.25 -0.409778C449.318 -0.405633 449.383 -0.377059 449.432 -0.329212C449.48 -0.281365 449.51 -0.21748 449.516 -0.149308L453.623 53.1512C453.628 53.2038 453.617 53.2566 453.593 53.3034C453.568 53.3503 453.531 53.3893 453.486 53.4163C453.44 53.4432 453.388 53.4569 453.336 53.4558C453.283 53.4547 453.232 53.4389 453.187 53.4101ZM397.093 -2.75945L453.002 52.4399L448.971 0.140995L397.093 -2.75945Z" fill="white"/>
<path d="M453.188 53.41C453.14 53.3792 453.103 53.3349 453.081 53.2829C453.059 53.2309 453.054 53.1736 453.064 53.1182C453.075 53.0628 453.102 53.012 453.142 52.9722C453.182 52.9324 453.234 52.9055 453.289 52.8949L533.752 37.563C533.797 37.5543 533.844 37.557 533.889 37.5709C533.933 37.5847 533.973 37.6092 534.006 37.6423C534.038 37.6753 534.062 37.7157 534.075 37.7602C534.089 37.8046 534.091 37.8516 534.082 37.8971L524.175 86.5943C524.167 86.6364 524.149 86.676 524.123 86.71C524.097 86.7441 524.063 86.7718 524.025 86.791C523.987 86.8102 523.945 86.8205 523.902 86.8211C523.859 86.8216 523.816 86.8122 523.778 86.7939L453.221 53.4284L453.188 53.41ZM533.444 38.1974L454.247 53.2883L523.693 86.1284L533.444 38.1974Z" fill="white"/>
<path d="M453.187 53.4101L453.17 53.3974C453.138 53.3733 453.112 53.3428 453.093 53.3078C453.074 53.2729 453.062 53.2343 453.059 53.1946L448.952 -0.105838C448.949 -0.154705 448.958 -0.203747 448.979 -0.248063C449 -0.292379 449.032 -0.330507 449.072 -0.358697C449.112 -0.386885 449.159 -0.40416 449.207 -0.408858C449.256 -0.413556 449.305 -0.405486 449.35 -0.385466L533.921 37.5827C533.975 37.6075 534.021 37.6491 534.05 37.7015C534.08 37.7539 534.092 37.8143 534.085 37.8741C534.078 37.9338 534.052 37.9898 534.011 38.0338C533.97 38.0778 533.916 38.1076 533.857 38.1189L453.394 53.4508C453.322 53.4644 453.248 53.4498 453.187 53.4101ZM449.553 0.325432L453.599 52.836L532.869 37.7311L449.553 0.325432Z" fill="white"/>
<path d="M539.957 110.432C539.926 110.411 539.899 110.385 539.878 110.355L523.664 86.6979C523.637 86.6572 523.62 86.61 523.616 86.5609C523.612 86.5118 523.621 86.4625 523.642 86.4179C523.663 86.3734 523.695 86.335 523.736 86.3067C523.776 86.2784 523.823 86.2611 523.872 86.2566L615.349 77.9348C615.416 77.9282 615.483 77.9461 615.539 77.9852C615.594 78.0242 615.633 78.0818 615.649 78.1474C615.665 78.2128 615.658 78.2818 615.628 78.3421C615.598 78.4025 615.548 78.4502 615.486 78.4768L540.222 110.455C540.179 110.473 540.133 110.48 540.087 110.476C540.041 110.472 539.996 110.457 539.957 110.432ZM524.404 86.7758L540.214 109.844L613.604 78.6615L524.404 86.7758Z" fill="white"/>
<path d="M523.744 86.775C523.696 86.744 523.659 86.6995 523.637 86.6473C523.615 86.595 523.61 86.5373 523.621 86.4818L533.528 37.7843C533.537 37.7418 533.555 37.7018 533.581 37.6675C533.608 37.6332 533.642 37.6055 533.681 37.5864C533.72 37.5673 533.763 37.5575 533.806 37.5576C533.849 37.5577 533.892 37.5677 533.931 37.5869L615.5 77.9627C615.555 77.9904 615.6 78.0351 615.627 78.0902C615.655 78.1452 615.664 78.2076 615.653 78.2681C615.641 78.3287 615.611 78.3839 615.565 78.4254C615.52 78.4668 615.462 78.4922 615.401 78.4977L523.924 86.8193C523.861 86.8251 523.797 86.8095 523.744 86.775ZM534.009 38.2565L524.251 86.2217L614.352 78.0253L534.009 38.2565Z" fill="white"/>
<path d="M539.957 110.432C539.904 110.398 539.864 110.347 539.844 110.287C539.823 110.227 539.824 110.162 539.844 110.102C539.865 110.042 539.905 109.991 539.959 109.957C540.012 109.923 540.075 109.908 540.138 109.913L670.42 122.304C670.478 122.309 670.534 122.333 670.578 122.372C670.623 122.411 670.654 122.463 670.668 122.52C670.681 122.578 670.677 122.638 670.654 122.693C670.632 122.747 670.593 122.794 670.543 122.825L615.434 157.349C615.389 157.377 615.337 157.392 615.284 157.392C615.231 157.392 615.179 157.377 615.134 157.349L539.961 110.435L539.957 110.432ZM669.538 122.788L541.278 110.59L615.284 156.776L669.538 122.788Z" fill="white"/>
<path d="M539.957 110.432C539.914 110.404 539.879 110.365 539.857 110.319C539.834 110.273 539.825 110.222 539.829 110.17C539.834 110.119 539.852 110.07 539.882 110.029C539.912 109.987 539.953 109.955 540 109.935L615.264 77.9562C615.311 77.9352 615.363 77.9278 615.413 77.935C615.464 77.9421 615.512 77.9634 615.552 77.9965L670.57 122.366C670.617 122.404 670.651 122.456 670.666 122.515C670.681 122.574 670.677 122.636 670.654 122.692C670.631 122.748 670.591 122.796 670.539 122.827C670.487 122.859 670.426 122.872 670.366 122.867L540.084 110.476C540.039 110.472 539.995 110.457 539.957 110.432ZM615.329 78.5433L541.248 110.019L669.483 122.215L615.329 78.5433Z" fill="white"/>
<path d="M300.668 76.6266C300.639 76.6078 300.614 76.5842 300.593 76.5567L249.783 7.22673C249.754 7.1859 249.735 7.13781 249.73 7.08747C249.725 7.03714 249.734 6.98638 249.755 6.94051C249.776 6.89463 249.81 6.8553 249.851 6.82663C249.893 6.79796 249.942 6.78099 249.992 6.77747L396.343 -3.36508C396.402 -3.36935 396.462 -3.35451 396.513 -3.32276C396.564 -3.29099 396.603 -3.2439 396.625 -3.18833C396.647 -3.13275 396.651 -3.0716 396.637 -3.01358C396.622 -2.95556 396.589 -2.90371 396.543 -2.86555L301.003 76.607C300.973 76.6316 300.938 76.6499 300.901 76.6607C300.864 76.6715 300.825 76.6747 300.787 76.6699C300.745 76.665 300.704 76.6501 300.668 76.6266ZM250.543 7.30648L300.872 75.9797L395.508 -2.74028L250.543 7.30648Z" fill="white"/>
<path d="M300.668 76.6265C300.62 76.5952 300.582 76.5501 300.56 76.4971C300.538 76.444 300.533 76.3856 300.545 76.3296C300.557 76.2735 300.586 76.2225 300.628 76.1832C300.67 76.1439 300.723 76.1183 300.779 76.1097L453.299 52.8923C453.364 52.8826 453.431 52.8959 453.487 52.9299C453.543 52.9639 453.586 53.0164 453.608 53.0785C453.63 53.1407 453.629 53.2085 453.606 53.2702C453.583 53.3319 453.54 53.3837 453.483 53.4167L377.381 97.4798C377.349 97.4986 377.313 97.5108 377.276 97.5157C377.239 97.5205 377.202 97.518 377.166 97.5082L300.747 76.6624C300.719 76.6545 300.692 76.6423 300.668 76.6265ZM451.908 53.6765L302.184 76.4683L377.2 96.9314L451.908 53.6765Z" fill="white"/>
<path d="M300.668 76.6267C300.631 76.6025 300.6 76.57 300.577 76.5317C300.555 76.4933 300.542 76.4504 300.54 76.4062C300.537 76.362 300.545 76.3178 300.562 76.2771C300.58 76.2365 300.607 76.2005 300.641 76.1722L396.182 -3.30081C396.236 -3.34475 396.305 -3.36736 396.375 -3.36444C396.445 -3.36153 396.511 -3.33333 396.561 -3.28502L453.54 52.9721C453.577 53.0089 453.604 53.0553 453.616 53.1062C453.629 53.1572 453.627 53.2105 453.61 53.2604C453.594 53.3102 453.564 53.3546 453.524 53.3884C453.484 53.4222 453.435 53.4442 453.384 53.4519L300.864 76.6692C300.796 76.6795 300.726 76.6644 300.668 76.6267ZM396.346 -2.7022L301.784 75.9567L452.741 52.9776L396.346 -2.7022Z" fill="white"/>
<path d="M441.893 147.285L441.874 147.272L377.068 97.4593C377.022 97.4244 376.988 97.3764 376.971 97.3218C376.953 97.2673 376.953 97.2088 376.969 97.154C376.986 97.0991 377.018 97.0506 377.063 97.0148C377.108 96.979 377.162 96.9576 377.219 96.9535L523.879 86.2567C523.94 86.2527 524 86.2684 524.052 86.3014C524.103 86.3345 524.142 86.3831 524.164 86.4402C524.185 86.4978 524.187 86.5607 524.17 86.6194C524.152 86.6782 524.116 86.7297 524.067 86.766L442.215 147.276C442.168 147.31 442.113 147.329 442.055 147.331C441.997 147.332 441.941 147.317 441.893 147.285ZM378 97.4633L442.05 146.694L522.944 86.8917L378 97.4633Z" fill="white"/>
<path d="M377.086 97.4724C377.046 97.446 377.012 97.4098 376.99 97.367C376.967 97.3242 376.956 97.2764 376.958 97.2281C376.959 97.1797 376.972 97.1325 376.997 97.091C377.022 97.0494 377.057 97.015 377.099 96.9908L453.2 52.9282C453.24 52.9053 453.284 52.8924 453.33 52.8906C453.375 52.8887 453.421 52.8978 453.462 52.9174L524.019 86.2828C524.076 86.3079 524.124 86.3523 524.152 86.4083C524.181 86.4642 524.19 86.5284 524.177 86.59C524.165 86.6515 524.134 86.7075 524.088 86.7492C524.041 86.7909 523.982 86.8159 523.92 86.8204L377.261 97.5171C377.199 97.5217 377.138 97.5059 377.086 97.4724ZM453.355 53.4919L378.446 96.864L522.807 86.3349L453.355 53.4919Z" fill="white"/>
<path d="M463.732 198.996C463.685 198.965 463.647 198.921 463.625 198.869L441.786 147.158C441.771 147.123 441.764 147.085 441.764 147.047C441.764 147.009 441.772 146.971 441.787 146.936C441.802 146.901 441.823 146.87 441.851 146.843C441.879 146.817 441.911 146.797 441.947 146.783L540.012 109.93C540.071 109.908 540.135 109.906 540.195 109.925C540.255 109.943 540.307 109.981 540.343 110.033C540.379 110.084 540.397 110.146 540.394 110.209C540.39 110.272 540.366 110.331 540.326 110.379L464.1 198.943C464.055 198.995 463.993 199.029 463.926 199.038C463.858 199.048 463.789 199.033 463.732 198.996ZM442.421 147.209L463.969 198.229L539.176 110.848L442.421 147.209Z" fill="white"/>
<path d="M441.893 147.285C441.854 147.261 441.823 147.227 441.8 147.187C441.778 147.147 441.766 147.102 441.764 147.057C441.763 147.011 441.773 146.966 441.793 146.925C441.813 146.884 441.842 146.848 441.879 146.821L523.73 86.3112C523.761 86.2887 523.795 86.2725 523.832 86.2636C523.869 86.2548 523.907 86.2533 523.945 86.2595C523.982 86.2661 524.018 86.2801 524.05 86.3005C524.082 86.321 524.11 86.3476 524.131 86.3788L540.345 110.035C540.369 110.071 540.385 110.111 540.391 110.154C540.397 110.196 540.394 110.239 540.381 110.28C540.368 110.321 540.346 110.358 540.316 110.389C540.287 110.42 540.251 110.444 540.211 110.46L442.146 147.313C442.105 147.329 442.06 147.334 442.016 147.33C441.972 147.325 441.93 147.31 441.893 147.285ZM523.83 86.9398L443.845 146.07L539.674 110.057L523.83 86.9398Z" fill="white"/>
<path d="M463.732 198.996C463.686 198.966 463.65 198.924 463.628 198.874C463.605 198.825 463.598 198.769 463.606 198.716C463.615 198.662 463.638 198.611 463.675 198.571C463.711 198.53 463.758 198.501 463.811 198.486L615.207 156.836C615.249 156.824 615.293 156.821 615.336 156.829C615.379 156.838 615.419 156.856 615.453 156.883C615.487 156.909 615.515 156.943 615.535 156.981C615.554 157.02 615.565 157.062 615.565 157.106L616.523 239.75C616.523 239.793 616.514 239.837 616.495 239.876C616.476 239.915 616.448 239.95 616.413 239.976C616.379 240.003 616.338 240.022 616.296 240.03C616.253 240.039 616.209 240.037 616.166 240.026L463.813 199.032C463.784 199.024 463.757 199.012 463.732 198.996ZM615.005 157.479L464.963 198.756L615.953 239.383L615.005 157.479Z" fill="white"/>
<path d="M463.732 198.996C463.698 198.974 463.669 198.945 463.648 198.911C463.626 198.877 463.612 198.838 463.606 198.799C463.6 198.759 463.603 198.718 463.615 198.679C463.626 198.64 463.646 198.605 463.672 198.574L539.897 110.01C539.941 109.959 540.002 109.926 540.069 109.915C540.136 109.905 540.204 109.919 540.261 109.955L615.434 156.869C615.477 156.901 615.511 156.944 615.534 156.993C615.557 157.042 615.567 157.095 615.563 157.149C615.555 157.204 615.531 157.255 615.495 157.296C615.458 157.337 615.411 157.367 615.358 157.381L463.961 199.031C463.923 199.042 463.882 199.044 463.843 199.038C463.803 199.032 463.766 199.017 463.732 198.996ZM540.167 110.563L464.705 198.24L614.586 157.007L540.167 110.563Z" fill="white"/>
<path d="M97.7961 84.2032C97.7545 84.1761 97.7208 84.1385 97.6983 84.0942C97.6757 84.0499 97.6653 84.0005 97.6679 83.9509C97.6706 83.9013 97.6863 83.8532 97.7134 83.8116C97.7405 83.7699 97.7781 83.7362 97.8224 83.7137L249.884 6.80685C249.942 6.7778 250.007 6.76916 250.07 6.7824C250.133 6.79563 250.19 6.82993 250.23 6.87963C250.271 6.92933 250.294 6.99145 250.295 7.05576C250.295 7.12007 250.274 7.18275 250.235 7.2334L185.891 89.3033C185.863 89.3393 185.827 89.3679 185.785 89.3867C185.743 89.4055 185.698 89.4139 185.652 89.4111L97.9336 84.2482C97.8846 84.2454 97.8372 84.2299 97.7961 84.2032ZM249.005 7.88556L99.0129 83.7454L185.538 88.838L249.005 7.88556Z" fill="white"/>
<path d="M230.958 150.99C230.929 150.971 230.905 150.948 230.884 150.92L185.441 89.297C185.412 89.257 185.393 89.21 185.388 89.1606C185.382 89.1113 185.39 89.0613 185.409 89.0158C185.429 88.9703 185.461 88.9309 185.501 88.9015C185.541 88.8721 185.588 88.8538 185.637 88.8484L300.79 76.1094C300.848 76.1031 300.906 76.1145 300.956 76.1421C301.007 76.1697 301.048 76.2122 301.074 76.2639C301.1 76.3155 301.109 76.3738 301.101 76.431C301.093 76.4882 301.067 76.5414 301.028 76.5836L231.318 150.946C231.273 150.994 231.212 151.025 231.146 151.033C231.08 151.041 231.014 151.026 230.958 150.99ZM186.187 89.3563L231.138 150.311L300.091 76.7555L186.187 89.3563Z" fill="white"/>
<path d="M185.514 89.3661C185.476 89.3408 185.444 89.3067 185.421 89.2666C185.394 89.2178 185.382 89.1622 185.387 89.1067C185.391 89.0512 185.412 88.9982 185.446 88.9544L249.789 6.88525C249.816 6.85081 249.85 6.82302 249.89 6.8042C249.929 6.78537 249.972 6.77602 250.016 6.77679C250.06 6.77775 250.103 6.78861 250.141 6.80865C250.18 6.82869 250.214 6.85732 250.24 6.89236L301.05 76.2225C301.079 76.2626 301.097 76.3096 301.102 76.3589C301.108 76.4082 301.1 76.4581 301.08 76.5035C301.06 76.5489 301.028 76.5882 300.988 76.6176C300.948 76.6469 300.901 76.6653 300.852 76.6708L185.699 89.4098C185.634 89.4172 185.569 89.4018 185.514 89.3661ZM250.004 7.52742L186.306 88.7738L300.304 76.1631L250.004 7.52742Z" fill="white"/>
<path d="M230.958 150.99C230.914 150.961 230.878 150.921 230.856 150.874C230.833 150.826 230.825 150.773 230.831 150.721C230.836 150.669 230.857 150.619 230.889 150.578C230.922 150.537 230.965 150.505 231.014 150.487L377.142 96.9702C377.205 96.947 377.275 96.9473 377.338 96.9709C377.401 96.9945 377.454 97.0399 377.487 97.099C377.519 97.158 377.53 97.2268 377.516 97.2929C377.503 97.3589 377.466 97.418 377.412 97.4593L319.416 142.348C319.374 142.38 319.323 142.4 319.27 142.405L231.139 151.034C231.075 151.041 231.011 151.025 230.958 150.99ZM375.624 98.1285L233.293 150.255L319.134 141.85L375.624 98.1285Z" fill="white"/>
<path d="M230.958 150.99C230.926 150.968 230.898 150.941 230.877 150.908C230.841 150.855 230.825 150.792 230.83 150.729C230.836 150.665 230.862 150.605 230.906 150.559L300.615 76.1964C300.65 76.1587 300.695 76.1313 300.745 76.1173C300.794 76.1032 300.847 76.103 300.896 76.1166L377.314 96.9624C377.372 96.9782 377.424 97.012 377.461 97.0589C377.498 97.1057 377.52 97.1633 377.523 97.2232C377.525 97.2831 377.508 97.3422 377.475 97.3921C377.442 97.442 377.394 97.4801 377.338 97.5008L231.21 151.018C231.169 151.033 231.124 151.038 231.081 151.033C231.037 151.028 230.995 151.013 230.958 150.99ZM300.912 76.7074L232.132 150.078L376.31 97.2749L300.912 76.7074Z" fill="white"/>
<path d="M425.613 214.151L425.609 214.148L319.085 142.358C319.034 142.323 318.996 142.273 318.976 142.215C318.956 142.157 318.955 142.094 318.975 142.035C318.994 141.977 319.032 141.926 319.082 141.891C319.133 141.856 319.193 141.838 319.255 141.841L442.059 146.766C442.101 146.767 442.142 146.778 442.179 146.798C442.216 146.817 442.248 146.845 442.273 146.878C442.298 146.912 442.316 146.95 442.324 146.991C442.332 147.032 442.332 147.075 442.322 147.116L426.042 213.981C426.031 214.025 426.01 214.065 425.981 214.099C425.951 214.133 425.914 214.16 425.872 214.176C425.83 214.193 425.784 214.2 425.74 214.195C425.695 214.191 425.651 214.175 425.613 214.151ZM320.228 142.446L425.589 213.453L441.69 147.317L320.228 142.446Z" fill="white"/>
<path d="M319.089 142.36C319.051 142.336 319.02 142.302 318.998 142.263C318.975 142.224 318.963 142.18 318.961 142.135C318.959 142.09 318.968 142.045 318.987 142.004C319.006 141.963 319.035 141.927 319.07 141.9L377.067 97.0116C377.116 96.9713 377.177 96.9491 377.24 96.949C377.303 96.949 377.364 96.9709 377.412 97.0111L442.219 146.824C442.267 146.86 442.302 146.911 442.319 146.969C442.335 147.026 442.333 147.088 442.313 147.144C442.293 147.201 442.255 147.249 442.205 147.283C442.155 147.316 442.096 147.333 442.036 147.331L319.232 142.405C319.181 142.403 319.132 142.388 319.089 142.36ZM377.241 97.5924L320.03 141.872L441.169 146.73L377.241 97.5924Z" fill="white"/>
<path d="M469.63 249.308L469.607 249.292L425.591 214.135C425.552 214.104 425.522 214.063 425.504 214.017C425.486 213.971 425.48 213.921 425.488 213.872C425.495 213.823 425.515 213.777 425.546 213.738C425.577 213.699 425.617 213.669 425.663 213.651L463.781 198.495C463.821 198.479 463.865 198.472 463.908 198.476C463.951 198.479 463.993 198.493 464.031 198.515C464.069 198.536 464.102 198.566 464.125 198.603C464.149 198.639 464.163 198.681 464.166 198.725L470.065 249.038C470.071 249.091 470.062 249.145 470.039 249.194C470.015 249.242 469.979 249.283 469.933 249.311C469.887 249.339 469.835 249.354 469.781 249.354C469.727 249.353 469.675 249.337 469.63 249.308ZM426.324 213.997L469.423 248.421L463.648 199.157L426.324 213.997Z" fill="white"/>
<path d="M425.613 214.151L425.582 214.128C425.543 214.094 425.514 214.049 425.498 214C425.483 213.95 425.481 213.898 425.493 213.847L441.772 146.981C441.786 146.923 441.819 146.872 441.864 146.833C441.909 146.794 441.965 146.771 442.024 146.766C442.084 146.762 442.143 146.776 442.194 146.806C442.244 146.837 442.284 146.883 442.307 146.938L464.146 198.649C464.161 198.683 464.169 198.72 464.169 198.758C464.169 198.796 464.161 198.833 464.146 198.868C464.132 198.902 464.111 198.934 464.084 198.96C464.057 198.987 464.025 199.007 463.99 199.021L425.872 214.177C425.83 214.194 425.785 214.2 425.74 214.196C425.695 214.191 425.651 214.176 425.613 214.151ZM442.119 147.946L426.172 213.449L463.513 198.603L442.119 147.946Z" fill="white"/>
<path d="M469.63 249.309C469.58 249.277 469.541 249.229 469.52 249.174C469.498 249.118 469.495 249.058 469.51 249C469.525 248.943 469.558 248.891 469.604 248.854C469.65 248.816 469.706 248.793 469.765 248.789L616.222 239.47C616.288 239.466 616.354 239.485 616.407 239.525C616.461 239.564 616.499 239.621 616.515 239.686C616.53 239.75 616.523 239.818 616.493 239.878C616.464 239.937 616.415 239.985 616.354 240.012L534.37 276.081C534.335 276.097 534.297 276.105 534.259 276.105C534.221 276.106 534.183 276.098 534.148 276.083L469.675 249.333L469.63 249.309ZM614.667 240.136L471.016 249.277L534.253 275.515L614.667 240.136Z" fill="white"/>
<path d="M469.629 249.309C469.594 249.287 469.565 249.257 469.543 249.221C469.521 249.186 469.507 249.146 469.503 249.105L463.605 198.792C463.599 198.746 463.605 198.7 463.622 198.657C463.639 198.614 463.666 198.575 463.701 198.545C463.736 198.515 463.777 198.494 463.822 198.484C463.868 198.473 463.914 198.474 463.959 198.486L616.313 239.48C616.378 239.498 616.434 239.538 616.472 239.593C616.51 239.648 616.527 239.714 616.52 239.781C616.514 239.848 616.484 239.91 616.436 239.956C616.388 240.003 616.325 240.031 616.258 240.035L469.802 249.354C469.741 249.358 469.68 249.342 469.629 249.309ZM464.215 199.14L470.033 248.773L614.508 239.58L464.215 199.14Z" fill="white"/>
<path d="M-2.83559 85.1745C-2.88664 85.1415 -2.92566 85.0928 -2.94689 85.0359C-2.96813 84.9789 -2.97044 84.9166 -2.95345 84.8583C-2.93647 84.7999 -2.90108 84.7485 -2.85259 84.7118C-2.8041 84.6751 -2.74511 84.6551 -2.68431 84.6546L97.9472 83.6825C98.0122 83.6818 98.0755 83.7036 98.1263 83.7441C98.1771 83.7847 98.2123 83.8416 98.226 83.9051L109.811 136.98C109.822 137.031 109.819 137.085 109.801 137.135C109.784 137.184 109.752 137.228 109.711 137.261C109.67 137.294 109.621 137.315 109.569 137.321C109.516 137.327 109.463 137.319 109.416 137.297L-2.80072 85.1939L-2.83559 85.1745ZM97.7227 84.2504L-1.42719 85.2082L109.137 136.544L97.7227 84.2504Z" fill="white"/>
<path d="M109.381 137.277C109.341 137.251 109.309 137.216 109.286 137.174C109.264 137.132 109.252 137.085 109.252 137.038C109.253 136.99 109.265 136.944 109.288 136.902C109.311 136.861 109.344 136.826 109.384 136.8L185.518 88.8887C185.568 88.8592 185.625 88.845 185.682 88.8478C185.74 88.8506 185.796 88.8703 185.842 88.9044C185.888 88.9399 185.922 88.9885 185.939 89.0438C185.956 89.099 185.956 89.1583 185.939 89.2135L165.216 154.638C165.205 154.673 165.187 154.706 165.163 154.734C165.139 154.763 165.109 154.786 165.077 154.803C165.044 154.82 165.008 154.83 164.971 154.833C164.934 154.837 164.896 154.832 164.861 154.821L109.45 137.309C109.426 137.302 109.402 137.291 109.381 137.277ZM185.166 89.7786L110.202 136.954L164.762 154.197L185.166 89.7786Z" fill="white"/>
<path d="M109.381 137.278C109.35 137.258 109.323 137.232 109.302 137.202C109.281 137.171 109.266 137.137 109.258 137.101L97.6735 84.0269C97.6641 83.9842 97.6648 83.9399 97.6754 83.8976C97.686 83.8552 97.7063 83.8158 97.7348 83.7826C97.7632 83.7494 97.7989 83.7232 97.8391 83.7062C97.8794 83.6891 97.923 83.6817 97.9666 83.6843L185.685 88.8472C185.745 88.8507 185.802 88.8731 185.848 88.9112C185.894 88.9492 185.927 89.0009 185.942 89.0589C185.957 89.1168 185.953 89.1779 185.931 89.2336C185.909 89.2892 185.87 89.3364 185.819 89.3684L109.685 137.28C109.647 137.304 109.603 137.319 109.558 137.323C109.513 137.326 109.467 137.319 109.425 137.302L109.381 137.278ZM98.3054 84.2706L109.725 136.587L184.771 89.3598L98.3054 84.2706Z" fill="white"/>
<path d="M234.147 222.735C234.131 222.725 234.117 222.713 234.104 222.7L164.748 154.755C164.709 154.717 164.682 154.668 164.67 154.614C164.658 154.561 164.662 154.505 164.681 154.454C164.701 154.402 164.734 154.358 164.778 154.325C164.823 154.293 164.875 154.274 164.93 154.271L231.095 150.47C231.133 150.468 231.17 150.473 231.206 150.486C231.241 150.498 231.273 150.518 231.301 150.543C231.329 150.568 231.351 150.598 231.367 150.632C231.383 150.666 231.392 150.702 231.394 150.74L234.584 222.485C234.586 222.537 234.574 222.589 234.549 222.634C234.524 222.68 234.487 222.718 234.442 222.744C234.397 222.769 234.345 222.782 234.293 222.781C234.241 222.779 234.191 222.763 234.147 222.735ZM165.601 154.798L233.987 221.794L230.842 151.051L165.601 154.798Z" fill="white"/>
<path d="M164.792 154.79C164.74 154.756 164.701 154.706 164.68 154.648C164.659 154.589 164.658 154.526 164.676 154.467L185.399 89.0434C185.415 88.9937 185.444 88.9493 185.483 88.9152C185.523 88.8811 185.571 88.8586 185.623 88.8501C185.674 88.8422 185.727 88.8483 185.775 88.8678C185.823 88.8874 185.865 88.9197 185.896 88.9612L231.339 150.585C231.37 150.626 231.388 150.674 231.393 150.725C231.398 150.776 231.39 150.827 231.368 150.873C231.346 150.919 231.312 150.958 231.27 150.987C231.228 151.015 231.179 151.032 231.128 151.034L164.962 154.835C164.902 154.838 164.843 154.822 164.792 154.79ZM185.77 89.7438L165.34 154.247L230.574 150.5L185.77 89.7438Z" fill="white"/>
<path d="M234.148 222.734C234.112 222.711 234.082 222.68 234.06 222.643C234.038 222.607 234.024 222.565 234.02 222.523C234.016 222.48 234.022 222.437 234.037 222.397C234.052 222.357 234.076 222.321 234.107 222.292L319.049 141.919C319.101 141.869 319.17 141.842 319.242 141.842C319.313 141.841 319.383 141.868 319.435 141.917C319.488 141.966 319.52 142.032 319.525 142.104C319.53 142.175 319.508 142.246 319.463 142.302L250.908 226.697C250.874 226.739 250.829 226.77 250.778 226.787C250.727 226.804 250.673 226.806 250.621 226.794L234.234 222.771C234.203 222.764 234.174 222.752 234.148 222.734ZM316.299 145.299L234.872 222.346L250.582 226.201L316.299 145.299Z" fill="white"/>
<path d="M234.147 222.735C234.11 222.71 234.078 222.677 234.056 222.638C234.033 222.599 234.021 222.555 234.019 222.51L230.829 150.765C230.826 150.693 230.851 150.622 230.898 150.568C230.946 150.513 231.012 150.478 231.085 150.471L319.216 141.843C319.274 141.837 319.333 141.85 319.384 141.879C319.435 141.909 319.476 141.954 319.5 142.007C319.525 142.061 319.532 142.121 319.521 142.179C319.51 142.236 319.481 142.289 319.438 142.33L234.496 222.703C234.456 222.74 234.407 222.765 234.354 222.776C234.301 222.786 234.246 222.78 234.195 222.76L234.147 222.735ZM231.406 151.008L234.556 221.867L318.449 142.486L231.406 151.008Z" fill="white"/>
<path d="M347.87 303.358L347.848 303.343L250.513 226.742C250.468 226.707 250.435 226.659 250.418 226.604C250.401 226.55 250.401 226.492 250.417 226.437C250.434 226.383 250.467 226.334 250.511 226.299C250.556 226.263 250.61 226.242 250.667 226.238L425.746 213.632C425.802 213.628 425.858 213.641 425.907 213.668C425.955 213.696 425.995 213.738 426.02 213.788C426.045 213.838 426.054 213.894 426.047 213.95C426.04 214.005 426.017 214.058 425.98 214.1L348.236 303.306C348.192 303.357 348.13 303.391 348.063 303.4C347.995 303.41 347.927 303.395 347.87 303.358ZM251.437 226.749L347.986 302.732L425.104 214.245L251.437 226.749Z" fill="white"/>
<path d="M250.534 226.757C250.493 226.73 250.46 226.694 250.437 226.65C250.412 226.602 250.401 226.546 250.407 226.491C250.412 226.436 250.434 226.384 250.468 226.342L319.024 141.946C319.067 141.89 319.131 141.852 319.201 141.842C319.272 141.831 319.343 141.848 319.401 141.889L425.926 213.68C425.974 213.713 426.011 213.76 426.032 213.815C426.052 213.87 426.055 213.93 426.04 213.987C426.025 214.044 425.992 214.094 425.947 214.132C425.902 214.169 425.846 214.192 425.787 214.196L250.708 226.802C250.647 226.806 250.586 226.79 250.534 226.757ZM319.299 142.503L251.32 226.191L424.93 213.691L319.299 142.503Z" fill="white"/>
<path d="M347.869 303.357C347.827 303.329 347.792 303.291 347.77 303.245C347.747 303.199 347.738 303.149 347.742 303.098C347.746 303.047 347.763 302.998 347.793 302.957C347.822 302.915 347.862 302.883 347.909 302.862L469.669 248.813C469.726 248.787 469.791 248.781 469.852 248.796C469.914 248.812 469.968 248.847 470.006 248.898C470.045 248.947 470.066 249.009 470.066 249.072C470.066 249.135 470.045 249.196 470.006 249.246L403.975 333.599C403.934 333.652 403.875 333.688 403.81 333.702C403.744 333.716 403.676 333.705 403.617 333.674L347.888 303.368L347.869 303.357ZM468.862 249.79L348.662 303.146L403.677 333.062L468.862 249.79Z" fill="white"/>
<path d="M347.869 303.357C347.835 303.335 347.807 303.306 347.785 303.272C347.763 303.238 347.749 303.199 347.744 303.159C347.738 303.119 347.741 303.078 347.753 303.039C347.764 303.001 347.784 302.965 347.81 302.934L425.554 213.728C425.603 213.675 425.67 213.643 425.742 213.636C425.814 213.629 425.886 213.65 425.944 213.693L469.96 248.85C469.998 248.881 470.027 248.92 470.045 248.965C470.064 249.01 470.07 249.059 470.064 249.107C470.057 249.156 470.039 249.201 470.01 249.24C469.981 249.279 469.942 249.31 469.898 249.33L348.138 303.378C348.095 303.397 348.048 303.406 348.001 303.402C347.954 303.398 347.909 303.383 347.869 303.357ZM425.802 214.304L349.075 302.344L469.243 249.002L425.802 214.304Z" fill="white"/>
<path d="M464.146 395.164C464.129 395.153 464.113 395.14 464.099 395.125L403.551 333.624C403.519 333.591 403.495 333.551 403.482 333.507C403.469 333.464 403.466 333.417 403.475 333.372C403.483 333.327 403.502 333.285 403.531 333.249C403.559 333.214 403.596 333.185 403.638 333.167L534.141 275.563C534.196 275.539 534.257 275.533 534.315 275.545C534.374 275.558 534.427 275.589 534.467 275.634C534.506 275.678 534.531 275.734 534.537 275.794C534.543 275.854 534.53 275.913 534.499 275.965L464.544 395.07C464.525 395.103 464.499 395.132 464.468 395.155C464.437 395.177 464.402 395.194 464.365 395.202C464.328 395.211 464.289 395.212 464.252 395.206C464.214 395.199 464.178 395.185 464.146 395.164ZM404.241 333.519L464.243 394.466L533.569 276.434L404.241 333.519Z" fill="white"/>
<path d="M403.599 333.662C403.572 333.644 403.549 333.623 403.529 333.598C403.49 333.548 403.469 333.487 403.47 333.424C403.47 333.361 403.491 333.3 403.53 333.25L469.561 248.897C469.599 248.848 469.652 248.813 469.712 248.797C469.772 248.782 469.835 248.786 469.892 248.81L534.365 275.561C534.416 275.582 534.459 275.617 534.49 275.663C534.522 275.709 534.538 275.763 534.539 275.818C534.54 275.874 534.524 275.928 534.494 275.975C534.464 276.021 534.421 276.058 534.37 276.08L403.866 333.683C403.824 333.702 403.777 333.71 403.73 333.706C403.683 333.703 403.638 333.687 403.599 333.662ZM469.874 249.415L404.671 332.71L533.537 275.83L469.874 249.415Z" fill="white"/>
<path d="M-86.7743 119.429C-86.8177 119.401 -86.8524 119.361 -86.8749 119.315C-86.8974 119.268 -86.9067 119.217 -86.9018 119.165C-86.8969 119.114 -86.878 119.065 -86.8472 119.023C-86.8164 118.982 -86.7748 118.95 -86.727 118.93L-2.78757 84.6768C-2.74364 84.6629 -2.69729 84.6582 -2.65147 84.663C-2.60565 84.6679 -2.56133 84.6821 -2.52126 84.7049C-2.48278 84.7312 -2.45137 84.7666 -2.42988 84.808C-2.40839 84.8494 -2.39749 84.8954 -2.39808 84.9421L-3.36697 155.533C-3.36756 155.58 -3.37969 155.625 -3.40228 155.666C-3.42487 155.707 -3.45724 155.742 -3.49646 155.767C-3.53567 155.792 -3.58057 155.807 -3.62707 155.811C-3.67357 155.815 -3.72023 155.807 -3.76294 155.788L-86.7337 119.451L-86.7743 119.429ZM-2.97005 85.3615L-85.8947 119.201L-3.9267 155.099L-2.97005 85.3615Z" fill="white"/>
<path d="M31.29 181.112L31.2787 181.104L-3.81484 155.758C-3.86025 155.725 -3.89497 155.68 -3.91456 155.628C-3.93415 155.575 -3.93772 155.518 -3.92488 155.464C-3.91204 155.409 -3.8833 155.36 -3.84236 155.322C-3.80142 155.284 -3.7501 155.259 -3.6949 155.25L109.49 136.761C109.556 136.751 109.623 136.764 109.68 136.798C109.737 136.832 109.78 136.884 109.802 136.947C109.824 137.01 109.823 137.078 109.799 137.14C109.776 137.202 109.731 137.254 109.674 137.287L31.5821 181.121C31.5372 181.146 31.4862 181.159 31.4347 181.157C31.3832 181.155 31.3332 181.14 31.29 181.112ZM-2.93242 155.698L31.4633 180.539L107.999 137.578L-2.93242 155.698Z" fill="white"/>
<path d="M-3.80363 155.766L-3.834 155.743C-3.86529 155.716 -3.89031 155.683 -3.90729 155.645C-3.92428 155.608 -3.93281 155.567 -3.93231 155.525L-2.96412 84.9336C-2.96357 84.8864 -2.95115 84.84 -2.92809 84.7988C-2.90502 84.7577 -2.87205 84.7229 -2.83209 84.6978C-2.79214 84.6727 -2.74653 84.6579 -2.69942 84.655C-2.65231 84.652 -2.6052 84.661 -2.56242 84.6809L109.654 136.784C109.708 136.81 109.753 136.853 109.782 136.906C109.81 136.958 109.822 137.019 109.815 137.079C109.807 137.139 109.78 137.194 109.738 137.238C109.695 137.281 109.64 137.31 109.581 137.32L-3.60432 155.808C-3.67366 155.82 -3.74479 155.805 -3.80363 155.766ZM-2.405 85.3776L-3.36201 155.196L108.582 136.91L-2.405 85.3776Z" fill="white"/>
<path d="M31.2899 181.112C31.2427 181.081 31.2057 181.037 31.1837 180.986C31.1617 180.934 31.1557 180.877 31.1663 180.821C31.177 180.766 31.2038 180.715 31.2435 180.676C31.2832 180.636 31.3338 180.608 31.389 180.598L164.891 154.275C164.938 154.265 164.987 154.268 165.033 154.283C165.078 154.297 165.119 154.323 165.152 154.358C165.185 154.393 165.208 154.435 165.22 154.481C165.232 154.528 165.232 154.576 165.221 154.623L147.595 222.837C147.585 222.876 147.567 222.911 147.542 222.942C147.518 222.973 147.487 222.998 147.452 223.017C147.418 223.035 147.379 223.046 147.34 223.049C147.301 223.052 147.261 223.046 147.224 223.033L31.3475 181.141C31.3273 181.134 31.3079 181.124 31.2899 181.112ZM164.56 154.916L32.4978 180.956L147.124 222.395L164.56 154.916Z" fill="white"/>
<path d="M31.2899 181.112C31.2492 181.085 31.216 181.048 31.1935 181.005C31.171 180.962 31.1601 180.914 31.1616 180.865C31.1632 180.817 31.1773 180.769 31.2026 180.728C31.2278 180.686 31.2633 180.652 31.3057 180.628L109.397 136.794C109.43 136.775 109.467 136.763 109.506 136.759C109.544 136.755 109.583 136.759 109.62 136.771L165.031 154.283C165.091 154.302 165.143 154.34 165.179 154.392C165.214 154.443 165.232 154.505 165.228 154.568C165.225 154.63 165.201 154.69 165.16 154.737C165.119 154.785 165.063 154.817 165.001 154.829L31.499 181.152C31.4267 181.166 31.3517 181.152 31.2899 181.112ZM109.566 137.346L33.1259 180.255L163.807 154.488L109.566 137.346Z" fill="white"/>
<path d="M173.962 285.609C173.915 285.579 173.878 285.535 173.856 285.483L147.061 222.878C147.042 222.835 147.035 222.788 147.039 222.742C147.043 222.695 147.058 222.65 147.084 222.611C147.11 222.572 147.145 222.54 147.186 222.518C147.227 222.496 147.273 222.484 147.32 222.484L234.3 222.214C234.356 222.214 234.41 222.23 234.457 222.26C234.503 222.291 234.539 222.334 234.561 222.385C234.583 222.436 234.589 222.493 234.58 222.547C234.57 222.602 234.544 222.652 234.506 222.692L174.32 285.567C174.275 285.615 174.214 285.645 174.149 285.653C174.083 285.661 174.017 285.645 173.962 285.609ZM147.749 223.048L174.208 284.867L233.638 222.782L147.749 223.048Z" fill="white"/>
<path d="M147.166 223.004C147.14 222.987 147.116 222.965 147.097 222.941C147.07 222.906 147.052 222.867 147.043 222.824C147.034 222.782 147.036 222.738 147.046 222.696L164.672 154.482C164.684 154.434 164.709 154.39 164.744 154.355C164.779 154.319 164.822 154.294 164.87 154.28C164.918 154.268 164.968 154.268 165.016 154.28C165.064 154.293 165.108 154.317 165.144 154.351L234.499 222.296C234.539 222.335 234.566 222.385 234.578 222.44C234.589 222.495 234.584 222.552 234.563 222.604C234.542 222.656 234.506 222.701 234.459 222.732C234.412 222.763 234.358 222.78 234.302 222.78L147.321 223.05C147.266 223.05 147.212 223.034 147.166 223.004ZM165.097 155.097L147.686 222.483L233.611 222.217L165.097 155.097Z" fill="white"/>
<path d="M241.875 362.349C241.854 362.335 241.835 362.319 241.818 362.299L173.904 285.559C173.879 285.53 173.859 285.496 173.847 285.459C173.835 285.423 173.831 285.384 173.835 285.345C173.838 285.306 173.85 285.269 173.869 285.235C173.887 285.201 173.913 285.171 173.944 285.148L250.515 226.296C250.558 226.263 250.61 226.243 250.664 226.238C250.718 226.234 250.773 226.245 250.82 226.271C250.868 226.296 250.908 226.335 250.934 226.382C250.961 226.43 250.973 226.484 250.97 226.538L242.312 362.13C242.308 362.179 242.292 362.227 242.265 362.268C242.238 362.309 242.201 362.343 242.156 362.365C242.112 362.387 242.063 362.397 242.014 362.394C241.965 362.392 241.917 362.376 241.875 362.349ZM174.529 285.412L241.791 361.416L250.366 227.124L174.529 285.412Z" fill="white"/>
<path d="M173.962 285.608C173.928 285.586 173.898 285.556 173.876 285.52C173.854 285.485 173.84 285.445 173.836 285.404C173.831 285.363 173.835 285.321 173.848 285.282C173.861 285.242 173.883 285.206 173.912 285.176L234.097 222.302C234.132 222.266 234.175 222.24 234.223 222.226C234.27 222.212 234.321 222.211 234.369 222.223L250.756 226.244C250.808 226.257 250.855 226.284 250.892 226.322C250.929 226.361 250.954 226.409 250.965 226.461C250.976 226.513 250.972 226.567 250.953 226.617C250.935 226.667 250.902 226.711 250.86 226.744L174.289 285.596C174.242 285.631 174.186 285.652 174.127 285.654C174.069 285.656 174.011 285.64 173.962 285.608ZM234.393 222.811L176.889 282.884L250.049 226.654L234.393 222.811Z" fill="white"/>
<path d="M241.875 362.349C241.834 362.323 241.801 362.286 241.778 362.243C241.756 362.199 241.745 362.151 241.746 362.102C241.748 362.053 241.762 362.006 241.788 361.964C241.814 361.923 241.85 361.888 241.892 361.865L347.887 302.873C347.945 302.841 348.013 302.83 348.078 302.843C348.143 302.856 348.202 302.891 348.244 302.943C348.285 302.995 348.307 303.06 348.306 303.127C348.304 303.193 348.279 303.257 348.235 303.307L288.52 370.604C288.488 370.64 288.447 370.667 288.401 370.683C288.355 370.699 288.306 370.703 288.258 370.695L241.98 362.39C241.942 362.384 241.907 362.37 241.875 362.349ZM346.709 304.175L242.859 361.973L288.202 370.11L346.709 304.175Z" fill="white"/>
<path d="M241.875 362.349C241.833 362.322 241.799 362.284 241.777 362.239C241.754 362.194 241.744 362.144 241.747 362.094L250.406 226.502C250.409 226.45 250.426 226.401 250.456 226.358C250.485 226.316 250.525 226.282 250.572 226.261C250.62 226.242 250.671 226.235 250.722 226.241C250.773 226.247 250.821 226.267 250.862 226.297L348.198 302.898C348.235 302.926 348.264 302.964 348.283 303.006C348.301 303.049 348.309 303.096 348.306 303.142C348.302 303.189 348.287 303.234 348.262 303.273C348.236 303.312 348.202 303.344 348.161 303.367L242.167 362.359C242.124 362.39 242.072 362.406 242.019 362.404C241.967 362.403 241.916 362.383 241.875 362.349ZM250.936 227.074L242.345 361.613L347.516 303.079L250.936 227.074Z" fill="white"/>
<path d="M288.155 370.653C288.11 370.624 288.074 370.583 288.052 370.534C288.029 370.486 288.021 370.432 288.028 370.379C288.035 370.325 288.057 370.276 288.092 370.235C288.126 370.193 288.171 370.163 288.222 370.147L403.666 333.156C403.705 333.136 403.749 333.129 403.793 333.135C403.836 333.141 403.877 333.16 403.909 333.19C403.945 333.214 403.974 333.245 403.996 333.282C404.017 333.319 404.03 333.36 404.034 333.402L411.219 421.497C411.223 421.546 411.215 421.594 411.194 421.638C411.174 421.682 411.143 421.72 411.104 421.749C411.064 421.778 411.018 421.796 410.97 421.801C410.922 421.807 410.873 421.8 410.828 421.781L288.2 370.677L288.155 370.653ZM403.5 333.803L289.127 370.451L410.618 421.081L403.5 333.803Z" fill="white"/>
<path d="M288.154 370.653C288.121 370.632 288.093 370.604 288.072 370.571C288.038 370.519 288.022 370.457 288.026 370.395C288.031 370.334 288.056 370.275 288.097 370.229L347.812 302.933C347.854 302.885 347.911 302.853 347.974 302.842C348.037 302.831 348.102 302.841 348.158 302.872L403.887 333.177C403.937 333.202 403.978 333.242 404.005 333.291C404.031 333.34 404.041 333.397 404.034 333.452C404.028 333.507 404.007 333.56 403.972 333.603C403.938 333.646 403.891 333.678 403.838 333.695L288.395 370.686C288.355 370.698 288.312 370.702 288.271 370.696C288.229 370.691 288.19 370.676 288.154 370.653ZM348.086 303.476L289.204 369.832L403.036 333.358L348.086 303.476Z" fill="white"/>
<path d="M416.865 437.482C416.815 437.45 416.777 437.403 416.755 437.347L410.674 421.622C410.648 421.556 410.648 421.483 410.674 421.418C410.699 421.352 410.748 421.298 410.811 421.267L464.174 394.675C464.235 394.644 464.306 394.637 464.372 394.654C464.438 394.672 464.496 394.712 464.534 394.769C464.572 394.826 464.589 394.894 464.581 394.962C464.572 395.03 464.54 395.093 464.489 395.138L417.207 437.456C417.173 437.486 417.132 437.508 417.088 437.519C417.044 437.53 416.997 437.531 416.953 437.52C416.922 437.512 416.892 437.5 416.865 437.482ZM411.294 421.658L417.135 436.762L462.545 396.118L411.294 421.658Z" fill="white"/>
<path d="M410.784 421.758C410.747 421.734 410.717 421.703 410.695 421.665C410.673 421.628 410.659 421.587 410.656 421.543L403.471 333.449C403.466 333.391 403.479 333.333 403.508 333.282C403.538 333.232 403.582 333.193 403.635 333.169C403.688 333.145 403.746 333.138 403.803 333.148C403.86 333.159 403.913 333.186 403.954 333.227L464.501 394.729C464.533 394.761 464.556 394.799 464.57 394.842C464.583 394.885 464.586 394.93 464.579 394.974C464.572 395.018 464.554 395.06 464.528 395.096C464.501 395.132 464.466 395.161 464.426 395.181L411.063 421.773C411.022 421.794 410.976 421.804 410.93 421.803C410.884 421.802 410.839 421.789 410.799 421.767L410.784 421.758ZM404.097 334.179L411.185 421.081L463.825 394.849L404.097 334.179Z" fill="white"/>
<path d="M18.0255 244.677L18.0181 244.672L-76.2306 179.302C-76.2803 179.267 -76.3176 179.217 -76.337 179.16C-76.3564 179.103 -76.3568 179.04 -76.3382 178.983C-76.3197 178.925 -76.2831 178.875 -76.2338 178.84C-76.1846 178.804 -76.1253 178.786 -76.0647 178.787L31.4474 180.593C31.489 180.593 31.53 180.603 31.5674 180.621C31.6048 180.64 31.6377 180.666 31.6636 180.699C31.6896 180.731 31.7081 180.769 31.7177 180.81C31.7273 180.85 31.7279 180.892 31.7193 180.933L18.456 244.497C18.4467 244.542 18.4265 244.584 18.3973 244.62C18.368 244.655 18.3306 244.683 18.2882 244.701C18.2458 244.718 18.1997 244.725 18.1539 244.721C18.1081 244.717 18.0641 244.702 18.0255 244.677ZM-75.143 179.368L17.9898 243.964L31.097 181.153L-75.143 179.368Z" fill="white"/>
<path d="M-76.223 179.306C-76.2677 179.277 -76.3033 179.236 -76.3256 179.187C-76.3479 179.139 -76.3561 179.085 -76.3491 179.032C-76.3422 178.979 -76.3204 178.929 -76.2864 178.888C-76.2523 178.847 -76.2073 178.817 -76.1566 178.8L-3.73682 155.26C-3.69495 155.244 -3.64951 155.239 -3.60516 155.246C-3.56082 155.253 -3.51915 155.271 -3.48425 155.3L31.6093 180.645C31.6581 180.681 31.6943 180.731 31.7127 180.788C31.7311 180.845 31.7309 180.907 31.7118 180.964C31.6928 181.021 31.656 181.071 31.6068 181.106C31.5576 181.141 31.4987 181.159 31.4385 181.158L-76.0737 179.352C-76.1268 179.351 -76.1786 179.335 -76.223 179.306ZM-3.69882 155.842L-74.3721 178.815L30.5477 180.577L-3.69882 155.842Z" fill="white"/>
<path d="M43.9045 312.595C43.8543 312.562 43.8157 312.514 43.7945 312.458L17.9156 244.54C17.9006 244.501 17.8946 244.459 17.8978 244.418C17.9011 244.376 17.9135 244.336 17.9343 244.299C17.9551 244.263 17.9836 244.232 18.018 244.208C18.0523 244.184 18.0915 244.168 18.1327 244.161L147.273 222.488C147.334 222.478 147.396 222.488 147.451 222.516C147.506 222.545 147.549 222.59 147.576 222.646C147.602 222.702 147.609 222.765 147.596 222.825C147.584 222.885 147.552 222.94 147.505 222.98L44.2436 312.572C44.2092 312.601 44.1683 312.622 44.1241 312.633C44.0799 312.643 44.0338 312.643 43.9897 312.632C43.9594 312.624 43.9306 312.612 43.9045 312.595ZM18.5668 244.662L44.1788 311.879L146.376 223.212L18.5668 244.662Z" fill="white"/>
<path d="M18.0256 244.677C18.0075 244.665 17.9908 244.652 17.9759 244.636C17.9439 244.603 17.9206 244.562 17.9079 244.518C17.8952 244.474 17.8935 244.427 17.903 244.382L31.1675 180.817C31.1757 180.778 31.1923 180.74 31.2162 180.707C31.2402 180.675 31.2709 180.648 31.3063 180.628C31.3416 180.608 31.3809 180.596 31.4212 180.593C31.4616 180.59 31.5022 180.595 31.5403 180.609L147.417 222.501C147.475 222.522 147.525 222.562 147.559 222.615C147.592 222.668 147.607 222.73 147.602 222.792C147.596 222.854 147.57 222.913 147.527 222.959C147.485 223.004 147.428 223.035 147.367 223.045L18.2265 244.718C18.1567 244.73 18.0849 244.716 18.0256 244.677ZM31.6541 181.252L18.5408 244.092L146.21 222.666L31.6541 181.252Z" fill="white"/>
<path d="M43.9045 312.595C43.8574 312.564 43.8204 312.52 43.7983 312.469C43.7762 312.417 43.7699 312.36 43.7803 312.305C43.7907 312.25 43.8173 312.199 43.8566 312.159C43.896 312.119 43.9463 312.092 44.0013 312.081L174.058 285.095C174.122 285.082 174.188 285.092 174.246 285.122C174.304 285.152 174.349 285.201 174.375 285.261C174.4 285.321 174.405 285.387 174.387 285.45C174.369 285.512 174.33 285.567 174.277 285.604L137.813 310.977C137.767 311.009 137.712 311.026 137.656 311.027L44.063 312.641C44.0068 312.641 43.9517 312.625 43.9045 312.595ZM172.819 285.93L47.0625 312.023L137.561 310.464L172.819 285.93Z" fill="white"/>
<path d="M43.9046 312.594C43.8619 312.567 43.8276 312.528 43.8055 312.482C43.7776 312.426 43.7692 312.363 43.7815 312.301C43.7939 312.24 43.8262 312.184 43.8735 312.143L147.135 222.553C147.169 222.523 147.209 222.503 147.252 222.492C147.295 222.481 147.341 222.481 147.384 222.491C147.427 222.501 147.468 222.521 147.502 222.549C147.536 222.578 147.563 222.614 147.58 222.655L174.376 285.261C174.393 285.299 174.4 285.341 174.399 285.383C174.397 285.424 174.386 285.465 174.366 285.502C174.347 285.54 174.32 285.572 174.286 285.597C174.253 285.623 174.214 285.64 174.173 285.649L44.1158 312.634C44.0429 312.649 43.967 312.635 43.9046 312.594ZM147.213 223.234L45.0632 311.86L173.72 285.165L147.213 223.234Z" fill="white"/>
<path d="M144.653 395.02C144.617 394.997 144.586 394.965 144.564 394.928C144.542 394.891 144.529 394.85 144.525 394.807L137.37 310.768C137.366 310.718 137.375 310.668 137.397 310.623C137.418 310.578 137.451 310.539 137.492 310.511C137.534 310.483 137.582 310.466 137.632 310.462C137.682 310.459 137.731 310.468 137.776 310.49L242.155 361.858C242.206 361.882 242.248 361.921 242.276 361.97C242.305 362.018 242.317 362.074 242.312 362.13C242.309 362.186 242.289 362.24 242.254 362.284C242.22 362.328 242.174 362.362 242.12 362.379L144.897 395.051C144.856 395.065 144.813 395.069 144.771 395.064C144.729 395.058 144.688 395.043 144.653 395.02ZM137.976 311.219L145.058 394.4L241.289 362.062L137.976 311.219Z" fill="white"/>
<path d="M137.497 310.982C137.459 310.957 137.426 310.922 137.404 310.882C137.382 310.841 137.37 310.796 137.369 310.749C137.368 310.703 137.379 310.657 137.4 310.616C137.421 310.575 137.452 310.539 137.49 310.513L173.954 285.14C174.011 285.101 174.081 285.083 174.15 285.092C174.219 285.1 174.282 285.133 174.328 285.185L242.241 361.925C242.285 361.974 242.31 362.037 242.312 362.102C242.315 362.167 242.294 362.232 242.255 362.284C242.215 362.336 242.159 362.372 242.095 362.387C242.031 362.402 241.964 362.395 241.905 362.366L137.527 310.999L137.497 310.982ZM174.071 285.748L138.207 310.703L240.867 361.225L174.071 285.748Z" fill="white"/>
<path d="M144.652 395.021C144.605 394.99 144.568 394.945 144.546 394.893C144.524 394.84 144.518 394.782 144.53 394.727C144.541 394.671 144.57 394.62 144.61 394.58C144.651 394.541 144.703 394.514 144.759 394.505L288.262 370.137C288.308 370.129 288.357 370.133 288.402 370.149C288.447 370.164 288.487 370.191 288.519 370.226C288.551 370.262 288.573 370.305 288.584 370.351C288.595 370.397 288.594 370.446 288.581 370.491L270.687 435.249C270.677 435.286 270.66 435.32 270.636 435.35C270.612 435.379 270.583 435.404 270.549 435.422C270.516 435.44 270.479 435.451 270.441 435.455C270.403 435.458 270.365 435.454 270.329 435.443L144.72 395.053C144.696 395.045 144.674 395.035 144.652 395.021ZM287.917 370.769L145.995 394.869L270.221 434.814L287.917 370.769Z" fill="white"/>
<path d="M144.653 395.02C144.608 394.991 144.573 394.95 144.551 394.902C144.528 394.854 144.52 394.8 144.527 394.748C144.533 394.695 144.555 394.645 144.588 394.604C144.622 394.563 144.667 394.532 144.717 394.515L241.94 361.844C241.985 361.828 242.033 361.824 242.08 361.833L288.359 370.137C288.424 370.149 288.483 370.183 288.526 370.234C288.568 370.286 288.592 370.35 288.591 370.417C288.591 370.483 288.567 370.547 288.524 370.598C288.481 370.649 288.422 370.683 288.356 370.694L144.854 395.062C144.784 395.074 144.712 395.059 144.653 395.02ZM242.051 362.403L148.327 393.899L286.665 370.407L242.051 362.403Z" fill="white"/>
<path d="M270.261 435.41C270.212 435.378 270.174 435.332 270.153 435.277C270.131 435.223 270.127 435.163 270.141 435.106C270.155 435.049 270.186 434.998 270.23 434.96C270.275 434.921 270.33 434.897 270.388 434.892L410.911 421.239C410.979 421.232 411.048 421.25 411.104 421.291C411.16 421.331 411.199 421.391 411.214 421.458C411.229 421.525 411.219 421.595 411.186 421.656C411.153 421.716 411.099 421.762 411.034 421.786L325.261 452.827C325.203 452.848 325.139 452.85 325.08 452.831L270.33 435.443C270.305 435.435 270.282 435.424 270.261 435.41ZM408.729 422.019L271.815 435.321L325.16 452.263L408.729 422.019Z" fill="white"/>
<path d="M270.261 435.41C270.238 435.395 270.217 435.377 270.199 435.355C270.169 435.32 270.148 435.278 270.139 435.234C270.129 435.189 270.13 435.142 270.143 435.098L288.036 370.341C288.047 370.302 288.066 370.266 288.091 370.235C288.117 370.204 288.149 370.179 288.185 370.162C288.221 370.144 288.26 370.135 288.3 370.133C288.34 370.132 288.38 370.14 288.417 370.155L411.046 421.259C411.104 421.283 411.153 421.326 411.184 421.381C411.215 421.436 411.227 421.5 411.218 421.562C411.208 421.624 411.179 421.682 411.133 421.725C411.087 421.768 411.028 421.795 410.965 421.801L270.442 435.455C270.379 435.461 270.315 435.445 270.261 435.41ZM288.495 370.8L270.797 434.852L409.789 421.348L288.495 370.8Z" fill="white"/>
<path d="M325.012 452.798C324.964 452.767 324.926 452.722 324.904 452.67C324.882 452.617 324.877 452.559 324.889 452.503C324.9 452.447 324.928 452.396 324.97 452.357C325.011 452.317 325.063 452.291 325.119 452.282L416.973 436.966C417.016 436.959 417.06 436.961 417.101 436.974C417.142 436.986 417.18 437.008 417.212 437.037C417.244 437.067 417.268 437.103 417.284 437.143C417.299 437.183 417.305 437.226 417.302 437.269L411.465 504.278C411.461 504.326 411.444 504.371 411.418 504.411C411.391 504.451 411.354 504.483 411.311 504.505C411.269 504.527 411.221 504.537 411.173 504.536C411.125 504.534 411.079 504.52 411.037 504.496L325.02 452.804L325.012 452.798ZM416.706 437.584L325.968 452.714L410.941 503.778L416.706 437.584Z" fill="white"/>
<path d="M325.012 452.798C324.967 452.769 324.932 452.729 324.91 452.681C324.887 452.634 324.878 452.581 324.884 452.529C324.89 452.476 324.911 452.427 324.944 452.385C324.976 452.344 325.02 452.313 325.069 452.295L410.842 421.254C410.911 421.229 410.988 421.232 411.055 421.263C411.122 421.293 411.175 421.349 411.201 421.418L417.283 437.143C417.298 437.182 417.304 437.224 417.301 437.266C417.298 437.308 417.286 437.348 417.265 437.385C417.244 437.421 417.216 437.453 417.181 437.477C417.147 437.501 417.108 437.517 417.066 437.524L325.212 452.84C325.142 452.851 325.071 452.836 325.012 452.798ZM410.774 421.88L328.175 451.772L416.631 437.023L410.774 421.88Z" fill="white"/>
<path d="M-137.235 281.173C-137.281 281.143 -137.318 281.1 -137.34 281.049C-137.362 280.998 -137.369 280.942 -137.359 280.887C-137.35 280.833 -137.324 280.782 -137.286 280.742C-137.248 280.702 -137.199 280.673 -137.146 280.661L18.1154 244.164C18.1651 244.152 18.2171 244.154 18.2657 244.17C18.3144 244.185 18.3579 244.214 18.3918 244.252C18.4256 244.29 18.4485 244.337 18.458 244.387C18.4674 244.437 18.4631 244.489 18.4455 244.537L-10.0469 321.959C-10.0721 322.027 -10.1228 322.083 -10.1885 322.115C-10.2542 322.147 -10.3297 322.152 -10.3991 322.13L-137.168 281.204C-137.191 281.197 -137.214 281.186 -137.235 281.173ZM17.7325 244.834L-136.027 280.978L-10.4836 321.509L17.7325 244.834Z" fill="white"/>
<path d="M-137.234 281.173C-137.263 281.154 -137.288 281.13 -137.309 281.103C-137.342 281.058 -137.36 281.004 -137.363 280.949C-137.365 280.893 -137.352 280.838 -137.323 280.791L-76.312 178.924C-76.292 178.891 -76.2654 178.862 -76.2339 178.839C-76.2023 178.817 -76.1665 178.801 -76.1286 178.793C-76.0521 178.783 -75.9744 178.798 -75.9077 178.837L18.3411 244.207C18.3859 244.238 18.4207 244.282 18.4414 244.332C18.4621 244.383 18.4677 244.438 18.4576 244.492C18.4475 244.545 18.422 244.595 18.3844 244.635C18.3467 244.674 18.2984 244.702 18.2453 244.715L-137.016 281.211C-137.053 281.22 -137.091 281.221 -137.129 281.214C-137.167 281.208 -137.202 281.194 -137.234 281.173ZM-75.9814 179.474L-136.494 280.508L17.497 244.309L-75.9814 179.474Z" fill="white"/>
<path d="M-7.34345 345.073C-7.37757 345.051 -7.40655 345.022 -7.42833 344.987C-7.4501 344.953 -7.46417 344.914 -7.46963 344.874L-10.5921 321.899C-10.6019 321.827 -10.5833 321.753 -10.5402 321.694C-10.4971 321.635 -10.4328 321.595 -10.3608 321.582L44.0095 312.078C44.074 312.067 44.1404 312.078 44.1974 312.11C44.2544 312.142 44.2985 312.193 44.3221 312.255C44.3457 312.316 44.3475 312.383 44.327 312.445C44.3065 312.507 44.2651 312.56 44.2098 312.595L-7.03821 345.074C-7.07812 345.1 -7.12382 345.115 -7.17108 345.118C-7.21834 345.121 -7.26563 345.112 -7.30858 345.092L-7.34345 345.073ZM-9.99481 322.093L-6.96876 344.361L42.7059 312.88L-9.99481 322.093Z" fill="white"/>
<path d="M-10.4662 322.098C-10.49 322.083 -10.5112 322.064 -10.529 322.042C-10.561 322.004 -10.5822 321.958 -10.5907 321.909C-10.5992 321.86 -10.5946 321.81 -10.5773 321.764L17.9145 244.342C17.9343 244.288 17.9702 244.241 18.0173 244.208C18.0644 244.175 18.1205 244.157 18.178 244.157C18.2356 244.157 18.2919 244.174 18.3393 244.206C18.3868 244.239 18.4232 244.285 18.4436 244.339L44.3225 312.257C44.3373 312.296 44.3434 312.338 44.3403 312.379C44.3371 312.421 44.3247 312.461 44.3042 312.497C44.2836 312.533 44.2553 312.565 44.2213 312.588C44.1872 312.612 44.1483 312.628 44.1073 312.635L-10.2633 322.14C-10.3337 322.152 -10.4061 322.137 -10.4662 322.098ZM18.1841 245.246L-9.87738 321.498L43.672 312.138L18.1841 245.246Z" fill="white"/>
<path d="M-7.34365 345.073C-7.39009 345.043 -7.42663 344.999 -7.44877 344.949C-7.4709 344.898 -7.47761 344.842 -7.46812 344.787C-7.45863 344.733 -7.43337 344.682 -7.39539 344.642C-7.35741 344.601 -7.30842 344.573 -7.25453 344.561L137.586 310.469C137.638 310.458 137.692 310.46 137.743 310.478C137.793 310.495 137.838 310.527 137.871 310.568C137.905 310.61 137.926 310.66 137.932 310.713C137.938 310.766 137.928 310.82 137.905 310.868L94.2095 400.62C94.1928 400.654 94.1693 400.685 94.1403 400.71C94.1113 400.735 94.0775 400.754 94.0409 400.766C94.0043 400.777 93.9658 400.781 93.9276 400.778C93.8894 400.774 93.8524 400.762 93.8188 400.744L-7.32634 345.084L-7.34365 345.073ZM137.136 311.156L-6.40886 344.943L93.8311 400.105L137.136 311.156Z" fill="white"/>
<path d="M-7.3434 345.073C-7.3831 345.047 -7.41565 345.012 -7.43812 344.97C-7.46058 344.928 -7.47227 344.882 -7.47199 344.834C-7.47172 344.787 -7.45951 344.74 -7.43657 344.699C-7.41363 344.657 -7.38068 344.622 -7.34068 344.597L43.9074 312.119C43.9512 312.091 44.002 312.075 44.054 312.075L137.647 310.461C137.717 310.461 137.784 310.486 137.836 310.532C137.889 310.577 137.923 310.641 137.932 310.71C137.94 310.779 137.923 310.849 137.883 310.906C137.844 310.963 137.784 311.004 137.716 311.02L-7.12457 345.111C-7.16172 345.12 -7.20026 345.121 -7.23788 345.114C-7.27549 345.108 -7.31138 345.093 -7.3434 345.073ZM44.1428 312.638L-5.61985 344.176L135.023 311.073L44.1428 312.638Z" fill="white"/>
<path d="M125.046 455.202C125.008 455.177 124.977 455.144 124.954 455.105L93.7097 400.637C93.6865 400.596 93.6736 400.551 93.6725 400.504C93.6713 400.457 93.6819 400.41 93.7031 400.369C93.7243 400.327 93.7556 400.291 93.7942 400.264C93.8327 400.237 93.8772 400.221 93.9238 400.215L144.774 394.502C144.821 394.498 144.868 394.504 144.912 394.522C144.956 394.54 144.994 394.569 145.025 394.605C145.054 394.642 145.074 394.686 145.083 394.732C145.092 394.779 145.089 394.826 145.074 394.871L125.469 455.052C125.455 455.094 125.433 455.131 125.402 455.162C125.372 455.193 125.335 455.217 125.294 455.231C125.253 455.246 125.209 455.251 125.166 455.245C125.123 455.24 125.082 455.225 125.046 455.202ZM94.4151 400.729L125.128 454.272L144.401 395.113L94.4151 400.729Z" fill="white"/>
<path d="M93.8016 400.733C93.7714 400.713 93.7452 400.688 93.7247 400.658C93.6955 400.617 93.678 400.569 93.6739 400.518C93.6698 400.468 93.6792 400.417 93.7012 400.372L137.398 310.62C137.425 310.565 137.469 310.519 137.524 310.492C137.58 310.464 137.643 310.455 137.703 310.466C137.764 310.477 137.82 310.508 137.861 310.554C137.903 310.6 137.928 310.658 137.933 310.72L145.088 394.759C145.094 394.833 145.071 394.906 145.024 394.962C144.977 395.019 144.91 395.056 144.837 395.064L93.987 400.777C93.922 400.784 93.8565 400.768 93.8016 400.733ZM137.457 311.79L94.4347 400.157L144.5 394.533L137.457 311.79Z" fill="white"/>
<path d="M125.046 455.202C124.997 455.17 124.96 455.125 124.938 455.071C124.916 455.018 124.911 454.959 124.924 454.903C124.937 454.846 124.966 454.795 125.009 454.756C125.051 454.717 125.104 454.692 125.162 454.684L270.378 434.893C270.43 434.885 270.483 434.893 270.531 434.914C270.579 434.936 270.62 434.97 270.649 435.014C270.679 435.058 270.696 435.109 270.698 435.161C270.7 435.214 270.688 435.266 270.662 435.312L224.932 516.79C224.913 516.823 224.888 516.852 224.857 516.876C224.827 516.899 224.793 516.916 224.756 516.925C224.719 516.935 224.68 516.937 224.642 516.931C224.605 516.925 224.569 516.912 224.536 516.892L125.051 455.205L125.046 455.202ZM269.89 435.53L126.017 455.139L224.583 516.256L269.89 435.53Z" fill="white"/>
<path d="M125.046 455.202C125.022 455.186 125.001 455.167 124.983 455.146C124.952 455.109 124.932 455.065 124.922 455.018C124.913 454.971 124.916 454.922 124.931 454.877L144.538 394.696C144.561 394.625 144.611 394.566 144.678 394.532C144.745 394.498 144.822 394.492 144.893 394.514L270.502 434.904C270.563 434.924 270.615 434.963 270.651 435.017C270.686 435.07 270.703 435.134 270.697 435.198C270.692 435.262 270.665 435.322 270.62 435.368C270.576 435.415 270.517 435.445 270.454 435.453L125.238 455.245C125.171 455.254 125.103 455.238 125.046 455.202ZM144.988 395.139L125.609 454.623L269.144 435.061L144.988 395.139Z" fill="white"/>
<path d="M224.531 516.889C224.491 516.863 224.459 516.827 224.436 516.786C224.414 516.744 224.402 516.698 224.402 516.65C224.402 516.603 224.414 516.556 224.437 516.515C224.46 516.474 224.493 516.439 224.533 516.413L325.013 452.323C325.066 452.289 325.13 452.274 325.193 452.28C325.256 452.287 325.316 452.314 325.361 452.359C325.407 452.403 325.437 452.461 325.445 452.524C325.453 452.587 325.44 452.652 325.408 452.706L276.557 534.696C276.524 534.751 276.472 534.794 276.411 534.816C276.35 534.839 276.283 534.839 276.222 534.818L224.593 516.919C224.571 516.911 224.55 516.901 224.531 516.889ZM324.313 453.44L225.33 516.576L276.189 534.208L324.313 453.44Z" fill="white"/>
<path d="M224.531 516.888L224.491 516.857C224.445 516.814 224.416 516.756 224.406 516.694C224.397 516.632 224.408 516.568 224.439 516.513L270.169 435.035C270.2 434.978 270.251 434.934 270.311 434.91C270.372 434.886 270.439 434.884 270.501 434.903L325.251 452.292C325.302 452.308 325.348 452.339 325.382 452.38C325.417 452.421 325.439 452.471 325.446 452.525C325.452 452.578 325.444 452.632 325.421 452.681C325.399 452.729 325.362 452.771 325.317 452.8L224.837 516.889C224.792 516.919 224.738 516.934 224.684 516.934C224.63 516.933 224.577 516.918 224.531 516.888ZM270.549 435.512L225.484 515.806L324.503 452.648L270.549 435.512Z" fill="white"/>
</g>
</svg>
