<svg width="118" height="115" viewBox="0 0 118 115" fill="none" xmlns="http://www.w3.org/2000/svg">
<g filter="url(#filter0_d_755_442)">
<path fill-rule="evenodd" clip-rule="evenodd" d="M11 12C11 7.58173 14.5817 4 19 4H105C109.418 4 113 7.58172 113 12V96.0762C113 96.0767 112.999 96.0769 112.999 96.0766C112.999 96.0763 112.998 96.0763 112.998 96.0766L106.047 102.863C105.861 103.045 105.565 103.045 105.379 102.863L98.7614 96.4023C98.5756 96.2209 98.2791 96.2209 98.0934 96.4023L91.4758 102.863C91.29 103.045 90.9935 103.045 90.8078 102.863L84.1902 96.4023C84.0044 96.2209 83.7079 96.2209 83.5222 96.4023L76.9039 102.864C76.7182 103.045 76.4217 103.045 76.2359 102.864L69.6177 96.4023C69.4319 96.2209 69.1354 96.2209 68.9497 96.4023L62.3326 102.863C62.1469 103.044 61.8503 103.044 61.6646 102.863L55.0475 96.4023C54.8618 96.2209 54.5652 96.2209 54.3795 96.4023L47.7614 102.864C47.5756 103.045 47.2791 103.045 47.0934 102.864L40.4752 96.4023C40.2895 96.2209 39.993 96.2209 39.8072 96.4023L33.1897 102.863C33.004 103.045 32.7074 103.045 32.5217 102.863L25.9042 96.4023C25.7184 96.2209 25.4219 96.2209 25.2362 96.4023L18.6184 102.864C18.4327 103.045 18.1361 103.045 17.9504 102.864L11.1441 96.2182C11.052 96.1282 11 96.0049 11 95.8761V12Z" fill="#EAF0FC"/>
</g>
<g opacity="0.15" clip-path="url(#clip0_755_442)">
<path d="M77.2905 38.7139C69.039 36.1801 60.6292 34.1869 52.1154 32.7472C51.6196 32.1551 51.0552 31.6233 50.4339 31.1628L50.4274 31.158L50.4206 31.1535C48.7811 30.0728 47.0532 29.6865 45.3265 29.5362C44.4649 29.4613 43.5989 29.4448 42.7452 29.4315C42.6984 29.4307 42.6515 29.43 42.6047 29.4293C41.7961 29.4168 40.9995 29.4045 40.2125 29.347L40.2018 29.3462H40.191H18.2701C22.9315 26.2458 39.7664 16.393 60.6972 20.1251C60.7007 20.126 60.7046 20.127 60.7087 20.128C60.7126 20.1289 60.7166 20.1297 60.7207 20.1305C63.6681 20.9933 66.4262 22.3993 68.8515 24.2755L68.8517 24.2757L69.2093 24.5517C70.4172 25.6873 75.0769 30.1899 77.2905 38.7139ZM60.675 20.1184L60.6783 20.1195C60.6755 20.1186 60.6734 20.1179 60.675 20.1184Z" stroke="#8BACF1" stroke-width="0.589928"/>
<path d="M47.5026 70.0344L47.5262 70.0301L47.5488 70.0221C51.6125 68.5807 53.6734 64.7293 54.7231 60.7336C55.7749 56.7295 55.8346 52.4972 55.8346 50.164C55.8346 47.9852 55.8026 45.3382 55.3631 42.7437C54.9669 40.4045 54.2362 38.0862 52.8811 36.1827C61.2704 37.6293 69.5568 39.6153 77.6882 42.1281C78.3769 45.0558 78.7183 48.0539 78.7052 51.061V51.0623C78.7052 61.0462 75.2533 68.7945 69.8896 74.1255C64.5247 79.4577 57.2305 82.3878 49.5181 82.7028C37.5059 82.6467 29.9862 78.3803 25.2746 73.2623C21.2594 68.9007 19.2677 63.9028 18.2905 60.3159C21.2624 64.5999 25.4252 67.0959 29.436 68.5434C33.8775 70.1463 38.1492 70.4701 40.4588 70.5113C40.5917 70.5502 40.7268 70.5812 40.8633 70.6043L40.887 70.6083L40.911 70.6084C43.1212 70.6191 45.3278 70.427 47.5026 70.0344Z" stroke="#8BACF1" stroke-width="0.589928"/>
<path d="M38.9765 68.2123L38.9767 68.2242L38.978 68.236C39.0177 68.6257 39.176 68.9938 39.4313 69.2913C37.0419 69.1746 33.3976 68.7507 29.6361 67.3932C25.2654 65.8158 20.7531 62.9845 17.8531 57.9244C17.6301 56.9276 17.4713 55.9177 17.3776 54.9009V47.4872H17.3777L17.3776 47.4829C17.3719 47.0985 17.3661 46.7169 17.3603 46.337C17.3282 44.2349 17.2969 42.1842 17.295 40.0011C20.5956 40.6638 25.2854 42.0264 29.4746 44.7794C33.8031 47.6239 37.5906 51.9472 38.7734 58.5244L38.9765 68.2123Z" stroke="#8BACF1" stroke-width="0.589928"/>
</g>
<path d="M23.1014 68.04C22.6748 68.04 22.3468 67.992 22.1174 67.896C21.8934 67.8 21.7388 67.6507 21.6534 67.448C21.5681 67.2453 21.5201 66.984 21.5094 66.664L21.3494 62.288H22.0054L22.1654 66.408C22.1761 66.6693 22.2001 66.872 22.2374 67.016C22.2801 67.1547 22.3708 67.2507 22.5094 67.304C22.6534 67.3573 22.8774 67.384 23.1814 67.384C23.2934 67.384 23.3734 67.416 23.4214 67.48C23.4748 67.5387 23.5014 67.6107 23.5014 67.696C23.5014 67.7813 23.4641 67.8613 23.3894 67.936C23.3148 68.0053 23.2188 68.04 23.1014 68.04ZM26.1816 68.064C25.9629 68.064 25.7389 68.0347 25.5096 67.976C25.2802 67.912 25.0589 67.824 24.8456 67.712C24.6376 67.6 24.4482 67.464 24.2776 67.304C24.1122 67.1387 23.9789 66.9547 23.8776 66.752C23.7816 66.5493 23.7336 66.3307 23.7336 66.096C23.7336 65.856 23.7816 65.6347 23.8776 65.432C23.9789 65.2293 24.1202 65.0667 24.3016 64.944C24.4882 64.816 24.7042 64.752 24.9496 64.752C25.1896 64.752 25.3949 64.8187 25.5656 64.952C25.7362 65.08 25.8669 65.248 25.9576 65.456C26.0536 65.6587 26.1016 65.872 26.1016 66.096C26.1016 66.4053 26.0136 66.6827 25.8376 66.928C25.6669 67.168 25.4349 67.3707 25.1416 67.536C24.8482 67.7013 24.5256 67.8267 24.1736 67.912C23.8216 67.9973 23.4642 68.04 23.1016 68.04L23.1816 67.384C23.4696 67.384 23.7256 67.3653 23.9496 67.328C24.1789 67.2853 24.3762 67.2293 24.5416 67.16C24.7869 67.064 24.9789 66.9493 25.1176 66.816C25.2616 66.6773 25.3629 66.536 25.4216 66.392C25.4802 66.248 25.5096 66.1173 25.5096 66C25.5096 65.888 25.4856 65.7813 25.4376 65.68C25.3949 65.5733 25.3309 65.488 25.2456 65.424C25.1656 65.3547 25.0669 65.32 24.9496 65.32C24.8322 65.32 24.7256 65.3547 24.6296 65.424C24.5389 65.488 24.4669 65.5733 24.4136 65.68C24.3602 65.7867 24.3336 65.8987 24.3336 66.016C24.3336 66.24 24.3896 66.44 24.5016 66.616C24.6189 66.7867 24.7682 66.9333 24.9496 67.056C25.1362 67.1787 25.3336 67.272 25.5416 67.336C25.7549 67.4 25.9576 67.432 26.1496 67.432C26.3309 67.432 26.4642 67.4027 26.5496 67.344C26.6349 67.28 26.6776 67.176 26.6776 67.032C26.6776 67.0053 26.6696 66.9573 26.6536 66.888C26.6429 66.8133 26.6002 66.712 26.5256 66.584C26.4562 66.456 26.3362 66.2987 26.1656 66.112C25.9949 65.92 25.7549 65.6933 25.4456 65.432C25.1362 65.1653 24.7362 64.856 24.2456 64.504L24.6216 64.008C25.1336 64.3813 25.5549 64.712 25.8856 65C26.2216 65.2827 26.4856 65.5307 26.6776 65.744C26.8749 65.952 27.0189 66.136 27.1096 66.296C27.2056 66.4507 27.2669 66.5893 27.2936 66.712C27.3202 66.8293 27.3336 66.9413 27.3336 67.048C27.3336 67.224 27.2936 67.3893 27.2136 67.544C27.1389 67.6987 27.0162 67.824 26.8456 67.92C26.6802 68.016 26.4589 68.064 26.1816 68.064ZM30.8153 68.168L31.0233 67.512C31.3486 67.512 31.6926 67.4933 32.0553 67.456C32.418 67.4133 32.778 67.3413 33.1353 67.24C33.498 67.1333 33.842 66.9893 34.1673 66.808C34.4926 66.6267 34.778 66.3973 35.0233 66.12L35.5273 66.416C35.4793 66.5387 35.4473 66.6373 35.4313 66.712C35.4153 66.7813 35.4073 66.8453 35.4073 66.904C35.4073 66.984 35.4366 67.0613 35.4953 67.136C35.554 67.2053 35.6633 67.264 35.8233 67.312C35.9886 67.36 36.2206 67.384 36.5193 67.384C36.6313 67.384 36.7113 67.416 36.7593 67.48C36.8126 67.5387 36.8393 67.6107 36.8393 67.696C36.8393 67.7813 36.802 67.8613 36.7273 67.936C36.6526 68.0053 36.5566 68.04 36.4393 68.04C36.098 68.04 35.7966 68.0053 35.5353 67.936C35.2793 67.8613 35.0873 67.7467 34.9593 67.592C34.8366 67.432 34.7966 67.2267 34.8393 66.976L34.9833 67.024C34.77 67.216 34.514 67.384 34.2153 67.528C33.922 67.6667 33.594 67.784 33.2313 67.88C32.874 67.976 32.49 68.048 32.0793 68.096C31.674 68.144 31.2526 68.168 30.8153 68.168ZM30.8153 68.168C30.3406 68.168 29.922 68.136 29.5593 68.072C29.202 68.0133 28.9033 67.92 28.6633 67.792C28.4233 67.664 28.242 67.4987 28.1193 67.296C27.9966 67.088 27.9353 66.8373 27.9353 66.544C27.9353 66.4107 27.946 66.2747 27.9673 66.136C27.9886 65.992 28.0153 65.848 28.0473 65.704C28.0846 65.56 28.122 65.4213 28.1593 65.288L28.7593 65.44C28.738 65.52 28.714 65.616 28.6873 65.728C28.6606 65.8347 28.6366 65.944 28.6153 66.056C28.5993 66.168 28.5913 66.2693 28.5913 66.36C28.5913 66.6373 28.6606 66.8613 28.7993 67.032C28.9433 67.1973 29.1913 67.32 29.5433 67.4C29.8953 67.4747 30.3886 67.512 31.0233 67.512L31.1833 67.912L30.8153 68.168ZM32.1593 64.792C32.0473 64.792 31.9513 64.7547 31.8713 64.68C31.7966 64.6 31.7593 64.5067 31.7593 64.4C31.7593 64.2933 31.7966 64.2 31.8713 64.12C31.9513 64.04 32.0473 64 32.1593 64C32.266 64 32.3566 64.04 32.4313 64.12C32.5113 64.2 32.5513 64.2933 32.5513 64.4C32.5513 64.5067 32.5113 64.6 32.4313 64.68C32.3566 64.7547 32.266 64.792 32.1593 64.792ZM31.0633 64.792C30.9513 64.792 30.8553 64.7547 30.7753 64.68C30.7006 64.6 30.6633 64.5067 30.6633 64.4C30.6633 64.2933 30.7006 64.2 30.7753 64.12C30.8553 64.04 30.9513 64 31.0633 64C31.17 64 31.2606 64.04 31.3353 64.12C31.4153 64.2 31.4553 64.2933 31.4553 64.4C31.4553 64.5067 31.4153 64.6 31.3353 64.68C31.2606 64.7547 31.17 64.792 31.0633 64.792ZM36.4375 68.04L36.5175 67.384H37.2695C37.5842 67.384 37.8322 67.368 38.0135 67.336C38.2002 67.2987 38.3362 67.2533 38.4215 67.2C38.5122 67.1413 38.5708 67.08 38.5975 67.016C38.6295 66.9467 38.6455 66.8773 38.6455 66.808C38.6455 66.6853 38.5975 66.5333 38.5015 66.352C38.4108 66.1707 38.2215 65.936 37.9335 65.648C37.7842 65.4987 37.6348 65.3627 37.4855 65.24C37.3362 65.112 37.1975 65 37.0695 64.904C36.9468 64.8027 36.8482 64.7173 36.7735 64.648C36.6988 64.5787 36.6615 64.5253 36.6615 64.488C36.6615 64.408 36.6668 64.3307 36.6775 64.256C36.6935 64.1813 36.7122 64.112 36.7335 64.048C36.7602 63.984 36.7922 63.9333 36.8295 63.896C36.9362 63.784 37.0722 63.672 37.2375 63.56C37.4082 63.448 37.6055 63.3307 37.8295 63.208C38.0588 63.0853 38.3148 62.9547 38.5975 62.816C38.8855 62.672 39.2002 62.5147 39.5415 62.344L39.8135 62.936C39.3868 63.1387 39.0295 63.312 38.7415 63.456C38.4588 63.5947 38.2188 63.72 38.0215 63.832C37.8242 63.9387 37.6508 64.04 37.5015 64.136C37.3522 64.232 37.2002 64.3387 37.0455 64.456L37.1655 64.152C37.5015 64.4187 37.7975 64.6693 38.0535 64.904C38.3148 65.1387 38.5335 65.3653 38.7095 65.584C38.8855 65.7973 39.0188 66.008 39.1095 66.216C39.2002 66.424 39.2455 66.6347 39.2455 66.848C39.2455 66.9653 39.2242 67.0933 39.1815 67.232C39.1388 67.3707 39.0482 67.5013 38.9095 67.624C38.7708 67.7467 38.5628 67.848 38.2855 67.928C38.0082 68.0027 37.6348 68.04 37.1655 68.04H36.4375ZM39.4461 69.856L39.2141 69.248C39.6034 69.12 39.9261 68.9733 40.1821 68.808C40.4434 68.6427 40.6487 68.4667 40.7981 68.28C40.9527 68.0933 41.0621 67.904 41.1261 67.712C41.1901 67.5147 41.2221 67.3253 41.2221 67.144C41.2221 66.8827 41.1634 66.6187 41.0461 66.352C40.9341 66.08 40.8087 65.824 40.6701 65.584L41.2541 65.288C41.3554 65.4747 41.4434 65.6587 41.5181 65.84C41.5981 66.0213 41.6674 66.192 41.7261 66.352C41.7901 66.512 41.8407 66.6587 41.8781 66.792C41.9527 67.0213 42.0487 67.1787 42.1661 67.264C42.2887 67.344 42.4541 67.384 42.6621 67.384C42.7741 67.384 42.8541 67.416 42.9021 67.48C42.9554 67.5387 42.9821 67.6107 42.9821 67.696C42.9821 67.7813 42.9447 67.8613 42.8701 67.936C42.7954 68.0053 42.6994 68.04 42.5821 68.04C42.3474 68.04 42.1554 68 42.0061 67.92C41.8621 67.8347 41.7527 67.7253 41.6781 67.592C41.6034 67.4533 41.5527 67.3093 41.5261 67.16L41.7821 67.304C41.7821 67.656 41.7021 67.976 41.5421 68.264C41.3874 68.5573 41.1874 68.8107 40.9421 69.024C40.6967 69.2427 40.4407 69.4213 40.1741 69.56C39.9074 69.6987 39.6647 69.7973 39.4461 69.856ZM42.5859 68.04L42.6659 67.384C42.8366 67.384 42.9753 67.3733 43.0819 67.352C43.1886 67.3253 43.2766 67.264 43.3459 67.168C43.4206 67.0667 43.4899 66.9093 43.5539 66.696C43.6179 66.4827 43.6926 66.184 43.7779 65.8L44.3779 65.968C44.3566 66.0587 44.3326 66.1627 44.3059 66.28C44.2793 66.392 44.2553 66.5093 44.2339 66.632C44.2126 66.7493 44.2019 66.8587 44.2019 66.96C44.2019 67.0933 44.2526 67.1973 44.3539 67.272C44.4553 67.3467 44.6393 67.384 44.9059 67.384C45.0659 67.384 45.1966 67.3707 45.2979 67.344C45.3993 67.3173 45.4819 67.2533 45.5459 67.152C45.6153 67.0507 45.6766 66.888 45.7299 66.664C45.7833 66.44 45.8393 66.1333 45.8979 65.744L46.5059 65.856C46.4899 65.952 46.4713 66.0693 46.4499 66.208C46.4286 66.3467 46.4073 66.4853 46.3859 66.624C46.3699 66.7573 46.3619 66.8693 46.3619 66.96C46.3619 67.0347 46.3779 67.1067 46.4099 67.176C46.4473 67.24 46.5166 67.2907 46.6179 67.328C46.7246 67.3653 46.8819 67.384 47.0899 67.384C47.2446 67.384 47.3779 67.3653 47.4899 67.328C47.6073 67.2907 47.6953 67.2213 47.7539 67.12C47.8179 67.0187 47.8499 66.8773 47.8499 66.696C47.8499 66.4933 47.8019 66.24 47.7059 65.936C47.6153 65.6267 47.5113 65.32 47.3939 65.016L48.0419 64.776C48.1113 64.9467 48.1753 65.1413 48.2339 65.36C48.2979 65.5787 48.3513 65.7947 48.3939 66.008C48.4366 66.2213 48.4579 66.408 48.4579 66.568C48.4579 66.8133 48.4259 67.0293 48.3619 67.216C48.2979 67.4027 48.2073 67.5573 48.0899 67.68C47.9726 67.7973 47.8286 67.888 47.6579 67.952C47.4873 68.0107 47.2953 68.04 47.0819 68.04C46.8313 68.04 46.6259 68.0107 46.4659 67.952C46.3059 67.8933 46.1833 67.8053 46.0979 67.688C46.0126 67.5653 45.9566 67.4107 45.9299 67.224H46.2019C46.1006 67.4533 45.9939 67.6267 45.8819 67.744C45.7699 67.8613 45.6313 67.9413 45.4659 67.984C45.3006 68.0213 45.0819 68.04 44.8099 68.04C44.6766 68.04 44.5326 68.0187 44.3779 67.976C44.2286 67.9333 44.0979 67.8507 43.9859 67.728C43.8739 67.6 43.8073 67.4107 43.7859 67.16L44.0259 67.112C43.9353 67.384 43.8233 67.5867 43.6899 67.72C43.5619 67.848 43.4073 67.9333 43.2259 67.976C43.0446 68.0187 42.8313 68.04 42.5859 68.04ZM46.0339 63.64C45.9219 63.64 45.8259 63.6027 45.7459 63.528C45.6713 63.448 45.6339 63.3547 45.6339 63.248C45.6339 63.1413 45.6713 63.048 45.7459 62.968C45.8259 62.888 45.9219 62.848 46.0339 62.848C46.1406 62.848 46.2313 62.888 46.3059 62.968C46.3859 63.048 46.4259 63.1413 46.4259 63.248C46.4259 63.3547 46.3859 63.448 46.3059 63.528C46.2313 63.6027 46.1406 63.64 46.0339 63.64ZM45.4899 64.52C45.3779 64.52 45.2819 64.4827 45.2019 64.408C45.1273 64.328 45.0899 64.2347 45.0899 64.128C45.0899 64.0213 45.1273 63.928 45.2019 63.848C45.2819 63.768 45.3779 63.728 45.4899 63.728C45.5966 63.728 45.6873 63.768 45.7619 63.848C45.8419 63.928 45.8819 64.0213 45.8819 64.128C45.8819 64.2347 45.8419 64.328 45.7619 64.408C45.6873 64.4827 45.5966 64.52 45.4899 64.52ZM46.5779 64.52C46.4659 64.52 46.3699 64.4827 46.2899 64.408C46.2153 64.328 46.1779 64.2347 46.1779 64.128C46.1779 64.0213 46.2153 63.928 46.2899 63.848C46.3699 63.768 46.4659 63.728 46.5779 63.728C46.6846 63.728 46.7753 63.768 46.8499 63.848C46.9299 63.928 46.9699 64.0213 46.9699 64.128C46.9699 64.2347 46.9299 64.328 46.8499 64.408C46.7753 64.4827 46.6846 64.52 46.5779 64.52ZM54.4974 68.04C54.2094 68.04 53.9534 68 53.7294 67.92C53.5107 67.8347 53.3347 67.6933 53.2014 67.496C53.0734 67.2933 53.0014 67.0133 52.9854 66.656L52.8574 63.872H53.5054L53.6334 66.512C53.6494 66.7627 53.6947 66.952 53.7694 67.08C53.844 67.2027 53.948 67.2853 54.0814 67.328C54.22 67.3653 54.3854 67.384 54.5774 67.384C54.6894 67.384 54.7694 67.416 54.8174 67.48C54.8707 67.5387 54.8974 67.6107 54.8974 67.696C54.8974 67.7813 54.86 67.8613 54.7854 67.936C54.7107 68.0053 54.6147 68.04 54.4974 68.04ZM53.2894 67.16C52.9854 67.256 52.6894 67.304 52.4014 67.304C52.1134 67.304 51.852 67.2613 51.6174 67.176C51.3827 67.0907 51.196 66.968 51.0574 66.808C50.9187 66.6427 50.8494 66.4453 50.8494 66.216C50.8494 65.992 50.9054 65.7813 51.0174 65.584C51.1347 65.3867 51.292 65.2107 51.4894 65.056C51.692 64.9013 51.924 64.7733 52.1854 64.672C52.452 64.5653 52.7347 64.4933 53.0334 64.456L53.1454 65.128C52.8787 65.1387 52.6414 65.176 52.4334 65.24C52.2307 65.2987 52.0574 65.376 51.9134 65.472C51.7747 65.568 51.668 65.672 51.5934 65.784C51.5187 65.896 51.4814 66.0053 51.4814 66.112C51.4814 66.2293 51.524 66.3253 51.6094 66.4C51.6947 66.4747 51.804 66.5333 51.9374 66.576C52.0707 66.6133 52.2174 66.6373 52.3774 66.648C52.5374 66.6533 52.692 66.648 52.8414 66.632C52.9907 66.6107 53.1187 66.5813 53.2254 66.544L53.2894 67.16ZM54.5 68.04L54.58 67.384C54.7293 67.384 54.8467 67.352 54.932 67.288C55.0227 67.224 55.108 67.1173 55.188 66.968C55.2733 66.8187 55.38 66.6187 55.508 66.368C55.636 66.112 55.764 65.904 55.892 65.744C56.0253 65.5787 56.1533 65.4507 56.276 65.36C56.404 65.264 56.524 65.1973 56.636 65.16C56.748 65.1227 56.852 65.104 56.948 65.104C57.124 65.104 57.2813 65.144 57.42 65.224C57.5587 65.2987 57.6893 65.4293 57.812 65.616C57.9347 65.7973 58.06 66.048 58.188 66.368C58.3107 66.6613 58.42 66.8827 58.516 67.032C58.6173 67.176 58.7213 67.272 58.828 67.32C58.94 67.3627 59.0653 67.384 59.204 67.384C59.316 67.384 59.396 67.416 59.444 67.48C59.4973 67.5387 59.524 67.6107 59.524 67.696C59.524 67.7813 59.4867 67.8613 59.412 67.936C59.3373 68.0053 59.2413 68.04 59.124 68.04C58.916 68.04 58.724 68.0053 58.548 67.936C58.3773 67.8667 58.2333 67.7573 58.116 67.608L58.228 67.44C58.1693 67.6053 58.0893 67.7413 57.988 67.848C57.892 67.9493 57.7827 68.024 57.66 68.072C57.5373 68.1253 57.4067 68.152 57.268 68.152C57.092 68.152 56.9107 68.1147 56.724 68.04C56.5427 67.9653 56.3667 67.8587 56.196 67.72C56.0253 67.5813 55.876 67.4187 55.748 67.232C55.6093 67.4773 55.476 67.6587 55.348 67.776C55.2253 67.888 55.0973 67.96 54.964 67.992C54.8307 68.024 54.676 68.04 54.5 68.04ZM56.052 66.624C56.1427 66.7733 56.2387 66.904 56.34 67.016C56.4467 67.128 56.5533 67.2213 56.66 67.296C56.7667 67.3653 56.8707 67.4187 56.972 67.456C57.0787 67.488 57.1747 67.504 57.26 67.504C57.4467 67.504 57.5827 67.4373 57.668 67.304C57.7587 67.1707 57.756 66.984 57.66 66.744C57.612 66.6213 57.5613 66.5013 57.508 66.384C57.46 66.2667 57.4067 66.16 57.348 66.064C57.2893 65.9627 57.2227 65.8853 57.148 65.832C57.0733 65.7733 56.9907 65.744 56.9 65.744C56.82 65.744 56.7347 65.7707 56.644 65.824C56.5587 65.8773 56.4653 65.968 56.364 66.096C56.268 66.224 56.164 66.4 56.052 66.624ZM62.205 68.064C61.9863 68.064 61.7623 68.0347 61.533 67.976C61.3037 67.912 61.0823 67.824 60.869 67.712C60.661 67.6 60.4717 67.464 60.301 67.304C60.1357 67.1387 60.0023 66.9547 59.901 66.752C59.805 66.5493 59.757 66.3307 59.757 66.096C59.757 65.856 59.805 65.6347 59.901 65.432C60.0023 65.2293 60.1437 65.0667 60.325 64.944C60.5117 64.816 60.7277 64.752 60.973 64.752C61.213 64.752 61.4183 64.8187 61.589 64.952C61.7597 65.08 61.8903 65.248 61.981 65.456C62.077 65.6587 62.125 65.872 62.125 66.096C62.125 66.4053 62.037 66.6827 61.861 66.928C61.6903 67.168 61.4583 67.3707 61.165 67.536C60.8717 67.7013 60.549 67.8267 60.197 67.912C59.845 67.9973 59.4877 68.04 59.125 68.04L59.205 67.384C59.493 67.384 59.749 67.3653 59.973 67.328C60.2023 67.2853 60.3997 67.2293 60.565 67.16C60.8103 67.064 61.0023 66.9493 61.141 66.816C61.285 66.6773 61.3863 66.536 61.445 66.392C61.5037 66.248 61.533 66.1173 61.533 66C61.533 65.888 61.509 65.7813 61.461 65.68C61.4183 65.5733 61.3543 65.488 61.269 65.424C61.189 65.3547 61.0903 65.32 60.973 65.32C60.8557 65.32 60.749 65.3547 60.653 65.424C60.5623 65.488 60.4903 65.5733 60.437 65.68C60.3837 65.7867 60.357 65.8987 60.357 66.016C60.357 66.24 60.413 66.44 60.525 66.616C60.6423 66.7867 60.7917 66.9333 60.973 67.056C61.1597 67.1787 61.357 67.272 61.565 67.336C61.7783 67.4 61.981 67.432 62.173 67.432C62.3543 67.432 62.4877 67.4027 62.573 67.344C62.6583 67.28 62.701 67.176 62.701 67.032C62.701 67.0053 62.693 66.9573 62.677 66.888C62.6663 66.8133 62.6237 66.712 62.549 66.584C62.4797 66.456 62.3597 66.2987 62.189 66.112C62.0183 65.92 61.7783 65.6933 61.469 65.432C61.1597 65.1653 60.7597 64.856 60.269 64.504L60.645 64.008C61.157 64.3813 61.5783 64.712 61.909 65C62.245 65.2827 62.509 65.5307 62.701 65.744C62.8983 65.952 63.0423 66.136 63.133 66.296C63.229 66.4507 63.2903 66.5893 63.317 66.712C63.3437 66.8293 63.357 66.9413 63.357 67.048C63.357 67.224 63.317 67.3893 63.237 67.544C63.1623 67.6987 63.0397 67.824 62.869 67.92C62.7037 68.016 62.4823 68.064 62.205 68.064ZM65.7088 68.008C65.7088 67.88 65.7194 67.744 65.7408 67.6C65.7674 67.4507 65.8048 67.2933 65.8528 67.128C65.9061 66.9573 65.9701 66.7787 66.0448 66.592L66.6208 66.816C66.5674 66.9653 66.5194 67.1067 66.4768 67.24C66.4394 67.3733 66.4101 67.4987 66.3888 67.616C66.3728 67.7333 66.3648 67.8453 66.3648 67.952C66.3648 68.16 66.4074 68.3413 66.4928 68.496C66.5834 68.6507 66.7088 68.7787 66.8688 68.88C67.0288 68.9867 67.2154 69.0667 67.4288 69.12C67.6421 69.1733 67.8714 69.2 68.1168 69.2C68.5008 69.2 68.8368 69.1573 69.1248 69.072C69.4128 68.992 69.6528 68.888 69.8448 68.76C70.0368 68.632 70.1781 68.4987 70.2688 68.36C70.3648 68.2213 70.4128 68.0987 70.4128 67.992C70.4128 67.9173 70.3674 67.8507 70.2768 67.792C70.1861 67.7333 70.0688 67.6773 69.9248 67.624C69.7808 67.5707 69.6288 67.5147 69.4688 67.456C69.3088 67.392 69.1568 67.3173 69.0128 67.232C68.8688 67.1467 68.7514 67.0453 68.6608 66.928C68.5701 66.8053 68.5248 66.6613 68.5248 66.496C68.5248 66.2773 68.5781 66.0613 68.6848 65.848C68.7968 65.6293 68.9461 65.4293 69.1328 65.248C69.3248 65.0667 69.5381 64.9227 69.7728 64.816C70.0074 64.704 70.2501 64.648 70.5008 64.648C70.7248 64.648 70.9168 64.68 71.0768 64.744C71.2368 64.8027 71.3514 64.8587 71.4208 64.912L71.1568 65.48C71.0661 65.4373 70.9648 65.3973 70.8528 65.36C70.7408 65.3227 70.6234 65.304 70.5008 65.304C70.3461 65.304 70.1888 65.336 70.0288 65.4C69.8741 65.464 69.7301 65.5493 69.5968 65.656C69.4688 65.7627 69.3648 65.88 69.2848 66.008C69.2048 66.136 69.1648 66.264 69.1648 66.392C69.1648 66.4827 69.2101 66.5653 69.3008 66.64C69.3968 66.7147 69.5194 66.784 69.6688 66.848C69.8181 66.912 69.9754 66.9787 70.1408 67.048C70.3114 67.112 70.4714 67.184 70.6208 67.264C70.7701 67.3387 70.8901 67.4267 70.9808 67.528C71.0768 67.6293 71.1248 67.7493 71.1248 67.888C71.1248 68.0853 71.0581 68.2987 70.9248 68.528C70.7914 68.7573 70.5941 68.9707 70.3328 69.168C70.0714 69.3707 69.7514 69.536 69.3728 69.664C68.9994 69.792 68.5674 69.856 68.0768 69.856C67.7408 69.856 67.4288 69.8187 67.1408 69.744C66.8581 69.6693 66.6074 69.5547 66.3888 69.4C66.1754 69.2507 66.0074 69.0587 65.8848 68.824C65.7674 68.5947 65.7088 68.3227 65.7088 68.008ZM72.2829 68L72.1229 62.288H72.7709L72.9309 68H72.2829ZM73.282 69.856L73.05 69.248C73.4393 69.12 73.762 68.9733 74.018 68.808C74.2793 68.6427 74.4847 68.4667 74.634 68.28C74.7887 68.0933 74.898 67.904 74.962 67.712C75.026 67.5147 75.058 67.3253 75.058 67.144C75.058 66.8827 74.9993 66.6187 74.882 66.352C74.77 66.08 74.6447 65.824 74.506 65.584L75.09 65.288C75.1913 65.4747 75.2793 65.6587 75.354 65.84C75.434 66.0213 75.5033 66.192 75.562 66.352C75.626 66.512 75.6767 66.6587 75.714 66.792C75.7887 67.0213 75.8847 67.1787 76.002 67.264C76.1247 67.344 76.29 67.384 76.498 67.384C76.61 67.384 76.69 67.416 76.738 67.48C76.7913 67.5387 76.818 67.6107 76.818 67.696C76.818 67.7813 76.7807 67.8613 76.706 67.936C76.6313 68.0053 76.5353 68.04 76.418 68.04C76.1833 68.04 75.9913 68 75.842 67.92C75.698 67.8347 75.5887 67.7253 75.514 67.592C75.4393 67.4533 75.3887 67.3093 75.362 67.16L75.618 67.304C75.618 67.656 75.538 67.976 75.378 68.264C75.2233 68.5573 75.0233 68.8107 74.778 69.024C74.5327 69.2427 74.2767 69.4213 74.01 69.56C73.7433 69.6987 73.5007 69.7973 73.282 69.856ZM76.4219 68.04L76.5019 67.384C76.7632 67.384 76.9712 67.368 77.1259 67.336C77.2805 67.304 77.3925 67.24 77.4619 67.144C77.5312 67.0427 77.5659 66.8933 77.5659 66.696C77.5659 66.5627 77.5445 66.4053 77.5019 66.224C77.4592 66.0373 77.4032 65.84 77.3339 65.632C77.2645 65.424 77.1899 65.2187 77.1099 65.016L77.7579 64.776C77.8272 64.9467 77.8912 65.1413 77.9499 65.36C78.0139 65.5787 78.0672 65.7947 78.1099 66.008C78.1525 66.2213 78.1739 66.408 78.1739 66.568C78.1739 66.7813 78.1499 66.9707 78.1019 67.136C78.0592 67.296 77.9925 67.4347 77.9019 67.552C77.8112 67.664 77.6939 67.7573 77.5499 67.832C77.4112 67.9013 77.2485 67.9547 77.0619 67.992C76.8752 68.024 76.6619 68.04 76.4219 68.04ZM77.2779 69.528C77.1659 69.528 77.0699 69.488 76.9899 69.408C76.9152 69.3333 76.8779 69.2427 76.8779 69.136C76.8779 69.0293 76.9152 68.936 76.9899 68.856C77.0699 68.776 77.1659 68.736 77.2779 68.736C77.3845 68.736 77.4752 68.776 77.5499 68.856C77.6299 68.936 77.6699 69.0293 77.6699 69.136C77.6699 69.2427 77.6299 69.3333 77.5499 69.408C77.4752 69.488 77.3845 69.528 77.2779 69.528ZM80.5603 68.008C80.5603 67.88 80.571 67.744 80.5923 67.6C80.619 67.4507 80.6563 67.2933 80.7043 67.128C80.7576 66.9573 80.8216 66.7787 80.8963 66.592L81.4723 66.816C81.419 66.9653 81.371 67.1067 81.3283 67.24C81.291 67.3733 81.2616 67.4987 81.2403 67.616C81.2243 67.7333 81.2163 67.8453 81.2163 67.952C81.2163 68.176 81.2643 68.3653 81.3603 68.52C81.4616 68.68 81.6003 68.8107 81.7763 68.912C81.9523 69.0133 82.1523 69.088 82.3763 69.136C82.6056 69.184 82.8483 69.208 83.1043 69.208C83.4136 69.208 83.7016 69.1813 83.9683 69.128C84.2403 69.0747 84.4776 68.9973 84.6803 68.896C84.8883 68.8 85.051 68.688 85.1683 68.56C85.2856 68.4373 85.3443 68.304 85.3443 68.16C85.3443 68.0907 85.3176 68.0267 85.2643 67.968C85.211 67.9093 85.131 67.8533 85.0243 67.8C84.9176 67.7467 84.7896 67.696 84.6403 67.648C84.491 67.5947 84.3203 67.5413 84.1283 67.488L84.2803 66.824C84.5576 66.9307 84.803 67.0213 85.0163 67.096C85.2296 67.1653 85.4163 67.2213 85.5763 67.264C85.7363 67.3067 85.875 67.3387 85.9923 67.36C86.1096 67.376 86.2083 67.384 86.2883 67.384C86.4003 67.384 86.4803 67.416 86.5283 67.48C86.5816 67.5387 86.6083 67.6107 86.6083 67.696C86.6083 67.7813 86.571 67.8613 86.4963 67.936C86.4216 68.0053 86.3256 68.04 86.2083 68.04C86.1763 68.04 86.1443 68.04 86.1123 68.04C86.0803 68.04 86.0456 68.04 86.0083 68.04C85.9763 68.04 85.9443 68.04 85.9123 68.04C85.923 68.088 85.931 68.1253 85.9363 68.152C85.9416 68.184 85.9443 68.224 85.9443 68.272C85.9443 68.4693 85.875 68.6613 85.7363 68.848C85.603 69.0347 85.4056 69.2027 85.1443 69.352C84.883 69.5067 84.5656 69.6293 84.1923 69.72C83.8243 69.8107 83.403 69.856 82.9283 69.856C82.507 69.856 82.115 69.7867 81.7523 69.648C81.395 69.5147 81.107 69.312 80.8883 69.04C80.6696 68.768 80.5603 68.424 80.5603 68.008ZM86.2109 68.04L86.2909 67.384C86.4403 67.384 86.5656 67.352 86.6669 67.288C86.7683 67.224 86.8669 67.1173 86.9629 66.968C87.0589 66.8187 87.1629 66.6187 87.2749 66.368C87.4296 66.0267 87.5816 65.768 87.7309 65.592C87.8856 65.416 88.0376 65.296 88.1869 65.232C88.3416 65.168 88.4936 65.136 88.6429 65.136C88.8243 65.136 88.9923 65.184 89.1469 65.28C89.3016 65.3707 89.4376 65.4933 89.5549 65.648C89.6723 65.8027 89.7629 65.9733 89.8269 66.16C89.8963 66.3413 89.9309 66.5227 89.9309 66.704C89.9309 67.024 89.8749 67.28 89.7629 67.472C89.6509 67.6587 89.5069 67.7947 89.3309 67.88C89.1603 67.96 88.9816 68 88.7949 68C88.6296 68 88.4163 67.968 88.1549 67.904C87.8989 67.84 87.5736 67.6773 87.1789 67.416L87.4909 66.912C87.7523 67.0773 87.9869 67.192 88.1949 67.256C88.4083 67.3147 88.5843 67.344 88.7229 67.344C88.8776 67.344 89.0003 67.3227 89.0909 67.28C89.1816 67.232 89.2483 67.1653 89.2909 67.08C89.3336 66.9947 89.3549 66.8987 89.3549 66.792C89.3549 66.6373 89.3176 66.4827 89.2429 66.328C89.1683 66.1733 89.0723 66.0453 88.9549 65.944C88.8429 65.8427 88.7229 65.792 88.5949 65.792C88.4989 65.792 88.4056 65.8187 88.3149 65.872C88.2243 65.9253 88.1309 66.024 88.0349 66.168C87.9389 66.312 87.8296 66.52 87.7069 66.792C87.5789 67.08 87.4563 67.3093 87.3389 67.48C87.2269 67.6453 87.1123 67.768 86.9949 67.848C86.8776 67.928 86.7549 67.9787 86.6269 68C86.5043 68.0267 86.3656 68.04 86.2109 68.04ZM90.1258 69.856L89.8937 69.248C90.2831 69.12 90.6058 68.9733 90.8618 68.808C91.1231 68.6427 91.3284 68.4667 91.4778 68.28C91.6324 68.0933 91.7418 67.904 91.8058 67.712C91.8698 67.5147 91.9018 67.3253 91.9018 67.144C91.9018 66.8827 91.8431 66.6187 91.7258 66.352C91.6138 66.08 91.4884 65.824 91.3498 65.584L91.9338 65.288C92.0351 65.4747 92.1231 65.6587 92.1978 65.84C92.2778 66.0213 92.3471 66.192 92.4058 66.352C92.4698 66.512 92.5204 66.6587 92.5578 66.792C92.6324 67.0213 92.7284 67.1787 92.8458 67.264C92.9684 67.344 93.1338 67.384 93.3418 67.384C93.4538 67.384 93.5338 67.416 93.5818 67.48C93.6351 67.5387 93.6618 67.6107 93.6618 67.696C93.6618 67.7813 93.6244 67.8613 93.5498 67.936C93.4751 68.0053 93.3791 68.04 93.2618 68.04C93.0271 68.04 92.8351 68 92.6858 67.92C92.5418 67.8347 92.4324 67.7253 92.3578 67.592C92.2831 67.4533 92.2324 67.3093 92.2057 67.16L92.4618 67.304C92.4618 67.656 92.3818 67.976 92.2218 68.264C92.0671 68.5573 91.8671 68.8107 91.6218 69.024C91.3764 69.2427 91.1204 69.4213 90.8538 69.56C90.5871 69.6987 90.3444 69.7973 90.1258 69.856ZM93.2656 68.04L93.3456 67.384C93.479 67.384 93.615 67.384 93.7536 67.384C93.8976 67.3787 94.039 67.3707 94.1776 67.36C94.3163 67.3493 94.4496 67.336 94.5776 67.32C94.7056 67.304 94.8203 67.28 94.9216 67.248C95.1083 67.1893 95.279 67.112 95.4336 67.016C95.5936 66.92 95.7216 66.8027 95.8176 66.664C95.919 66.5253 95.9696 66.3653 95.9696 66.184C95.9696 66.0613 95.9403 65.936 95.8816 65.808C95.823 65.6747 95.743 65.5627 95.6416 65.472C95.5403 65.3813 95.423 65.336 95.2896 65.336C95.1616 65.336 95.0416 65.3787 94.9296 65.464C94.823 65.5493 94.735 65.6613 94.6656 65.8C94.6016 65.9333 94.5696 66.072 94.5696 66.216C94.5696 66.3867 94.6123 66.5413 94.6976 66.68C94.7883 66.8133 94.8976 66.928 95.0256 67.024C95.1536 67.12 95.2816 67.1973 95.4096 67.256L94.6496 67.48C94.5643 67.416 94.463 67.328 94.3456 67.216C94.2336 67.0987 94.1323 66.9547 94.0416 66.784C93.9563 66.6133 93.9136 66.4187 93.9136 66.2C93.9136 65.9867 93.951 65.7893 94.0256 65.608C94.1056 65.4213 94.2096 65.2587 94.3376 65.12C94.471 64.9813 94.6203 64.8747 94.7856 64.8C94.9563 64.72 95.1323 64.68 95.3136 64.68C95.575 64.68 95.8043 64.752 96.0016 64.896C96.199 65.04 96.351 65.224 96.4576 65.448C96.5696 65.6667 96.6256 65.896 96.6256 66.136C96.6256 66.3653 96.583 66.5733 96.4976 66.76C96.4123 66.9413 96.295 67.104 96.1456 67.248C96.0016 67.392 95.831 67.5147 95.6336 67.616C95.4416 67.7173 95.2363 67.8 95.0176 67.864C94.895 67.9013 94.7616 67.9307 94.6176 67.952C94.479 67.9733 94.3323 67.9893 94.1776 68C94.023 68.016 93.8683 68.0267 93.7136 68.032C93.559 68.0373 93.4096 68.04 93.2656 68.04ZM97.2256 68.04C96.959 68.04 96.6816 68.024 96.3936 67.992C96.111 67.9547 95.8416 67.9093 95.5856 67.856C95.335 67.7973 95.127 67.7333 94.9616 67.664L95.5136 67.264C95.6736 67.2853 95.863 67.3067 96.0816 67.328C96.3003 67.344 96.519 67.3573 96.7376 67.368C96.9563 67.3787 97.1456 67.384 97.3056 67.384C97.4176 67.384 97.4976 67.416 97.5456 67.48C97.599 67.5387 97.6256 67.6107 97.6256 67.696C97.6256 67.7813 97.5883 67.8613 97.5136 67.936C97.439 68.0053 97.343 68.04 97.2256 68.04ZM95.2416 63.856C95.1296 63.856 95.0336 63.8187 94.9536 63.744C94.879 63.664 94.8416 63.5707 94.8416 63.464C94.8416 63.3573 94.879 63.264 94.9536 63.184C95.0336 63.104 95.1296 63.064 95.2416 63.064C95.3483 63.064 95.439 63.104 95.5136 63.184C95.5936 63.264 95.6336 63.3573 95.6336 63.464C95.6336 63.5707 95.5936 63.664 95.5136 63.744C95.439 63.8187 95.3483 63.856 95.2416 63.856ZM97.2266 68.04L97.3066 67.384C97.5732 67.384 97.7812 67.3653 97.9306 67.328C98.0799 67.2853 98.1919 67.208 98.2666 67.096C98.3466 66.9787 98.4106 66.8107 98.4586 66.592C98.5066 66.3733 98.5652 66.088 98.6346 65.736L99.2586 65.856C99.2372 65.952 99.2132 66.0587 99.1866 66.176C99.1599 66.2933 99.1359 66.4107 99.1146 66.528C99.0986 66.64 99.0906 66.7387 99.0906 66.824C99.0906 66.904 99.0959 66.9787 99.1066 67.048C99.1172 67.1173 99.1572 67.176 99.2266 67.224C99.2959 67.272 99.4132 67.312 99.5786 67.344C99.7439 67.3707 99.9812 67.384 100.291 67.384C100.403 67.384 100.483 67.416 100.531 67.48C100.584 67.5387 100.611 67.6107 100.611 67.696C100.611 67.7813 100.573 67.8613 100.499 67.936C100.424 68.0053 100.328 68.04 100.211 68.04C99.8852 68.04 99.6266 68.024 99.4346 67.992C99.2426 67.9547 99.0959 67.9013 98.9946 67.832C98.8986 67.7627 98.8292 67.6773 98.7866 67.576C98.7492 67.4693 98.7199 67.3467 98.6986 67.208L98.9386 67.224C98.8532 67.3947 98.7599 67.5333 98.6586 67.64C98.5626 67.7467 98.4506 67.8293 98.3226 67.888C98.1946 67.9467 98.0399 67.9867 97.8586 68.008C97.6826 68.0293 97.4719 68.04 97.2266 68.04ZM99.3626 64.912C99.2506 64.912 99.1546 64.8747 99.0746 64.8C98.9999 64.72 98.9626 64.6267 98.9626 64.52C98.9626 64.4133 98.9999 64.32 99.0746 64.24C99.1546 64.16 99.2506 64.12 99.3626 64.12C99.4692 64.12 99.5599 64.16 99.6346 64.24C99.7146 64.32 99.7546 64.4133 99.7546 64.52C99.7546 64.6267 99.7146 64.72 99.6346 64.8C99.5599 64.8747 99.4692 64.912 99.3626 64.912ZM98.2666 64.912C98.1546 64.912 98.0586 64.8747 97.9786 64.8C97.9039 64.72 97.8666 64.6267 97.8666 64.52C97.8666 64.4133 97.9039 64.32 97.9786 64.24C98.0586 64.16 98.1546 64.12 98.2666 64.12C98.3732 64.12 98.4639 64.16 98.5386 64.24C98.6186 64.32 98.6586 64.4133 98.6586 64.52C98.6586 64.6267 98.6186 64.72 98.5386 64.8C98.4639 64.8747 98.3732 64.912 98.2666 64.912ZM100.211 68.04L100.283 67.384C100.587 67.384 100.8 67.3547 100.923 67.296C101.046 67.2373 101.115 67.1333 101.131 66.984C101.152 66.8347 101.158 66.6267 101.147 66.36L101.011 62.288H101.675L101.803 66.344C101.814 66.616 101.856 66.8293 101.931 66.984C102.011 67.1333 102.118 67.2373 102.251 67.296C102.384 67.3547 102.531 67.384 102.691 67.384C102.803 67.384 102.883 67.416 102.931 67.48C102.984 67.5387 103.011 67.6107 103.011 67.696C103.011 67.7813 102.974 67.8613 102.899 67.936C102.824 68.0053 102.728 68.04 102.611 68.04C102.387 68.04 102.2 68.0053 102.051 67.936C101.907 67.8613 101.792 67.768 101.707 67.656C101.627 67.5387 101.574 67.416 101.547 67.288L101.715 67.304C101.662 67.464 101.574 67.6 101.451 67.712C101.334 67.8187 101.174 67.9013 100.971 67.96C100.768 68.0133 100.515 68.04 100.211 68.04ZM102.609 68.04L102.689 67.384C103.004 67.384 103.249 67.3733 103.425 67.352C103.601 67.3253 103.727 67.264 103.801 67.168C103.876 67.0667 103.913 66.9093 103.913 66.696C103.913 66.5627 103.892 66.4053 103.849 66.224C103.807 66.0373 103.751 65.84 103.681 65.632C103.612 65.424 103.537 65.2187 103.457 65.016L104.105 64.776C104.175 64.9467 104.239 65.1413 104.297 65.36C104.361 65.5787 104.415 65.7947 104.457 66.008C104.5 66.2213 104.521 66.408 104.521 66.568C104.521 66.8347 104.484 67.0613 104.409 67.248C104.34 67.4347 104.228 67.5867 104.073 67.704C103.919 67.8213 103.719 67.9067 103.473 67.96C103.233 68.0133 102.945 68.04 102.609 68.04ZM103.505 70.44C103.399 70.44 103.305 70.4 103.225 70.32C103.151 70.24 103.113 70.1467 103.113 70.04C103.113 69.9333 103.151 69.84 103.225 69.76C103.305 69.6853 103.399 69.648 103.505 69.648C103.617 69.648 103.711 69.6853 103.785 69.76C103.865 69.84 103.905 69.9333 103.905 70.04C103.905 70.1467 103.865 70.24 103.785 70.32C103.711 70.4 103.617 70.44 103.505 70.44ZM104.049 69.56C103.943 69.56 103.849 69.52 103.769 69.44C103.695 69.36 103.657 69.2667 103.657 69.16C103.657 69.0533 103.695 68.96 103.769 68.88C103.849 68.8053 103.943 68.768 104.049 68.768C104.161 68.768 104.255 68.8053 104.329 68.88C104.409 68.96 104.449 69.0533 104.449 69.16C104.449 69.2667 104.409 69.36 104.329 69.44C104.255 69.52 104.161 69.56 104.049 69.56ZM102.961 69.56C102.855 69.56 102.761 69.52 102.681 69.44C102.607 69.36 102.569 69.2667 102.569 69.16C102.569 69.0533 102.607 68.96 102.681 68.88C102.761 68.8053 102.855 68.768 102.961 68.768C103.073 68.768 103.167 68.8053 103.241 68.88C103.321 68.96 103.361 69.0533 103.361 69.16C103.361 69.2667 103.321 69.36 103.241 69.44C103.167 69.52 103.073 69.56 102.961 69.56Z" fill="#003366"/>
<path d="M24.3089 40C23.5249 40 22.8209 39.864 22.1969 39.592C21.5729 39.32 21.0769 38.904 20.7089 38.344C20.3569 37.784 20.1809 37.072 20.1809 36.208C20.1809 35.52 20.4449 34.664 20.9729 33.64C21.5009 32.6 22.4209 31.504 23.7329 30.352L24.1889 31.648L22.5569 30.184L23.8049 28.696C24.6369 29.352 25.4049 30.056 26.1089 30.808C26.8129 31.56 27.3809 32.36 27.8129 33.208C28.2449 34.056 28.4609 34.952 28.4609 35.896C28.4609 36.264 28.3969 36.68 28.2689 37.144C28.1409 37.608 27.9249 38.064 27.6209 38.512C27.3169 38.944 26.8929 39.304 26.3489 39.592C25.8049 39.864 25.1249 40 24.3089 40ZM24.3089 38.032C24.8529 38.032 25.3009 37.944 25.6529 37.768C26.0209 37.576 26.2929 37.312 26.4689 36.976C26.6609 36.64 26.7569 36.248 26.7569 35.8C26.7569 35.4 26.6849 34.984 26.5409 34.552C26.4129 34.104 26.1409 33.624 25.7249 33.112C25.3249 32.584 24.7089 31.992 23.8769 31.336L24.9329 31.288C24.3409 31.8 23.8289 32.344 23.3969 32.92C22.9649 33.48 22.6369 34.032 22.4129 34.576C22.1889 35.104 22.0769 35.584 22.0769 36.016C22.0769 36.688 22.2849 37.192 22.7009 37.528C23.1329 37.864 23.6689 38.032 24.3089 38.032ZM30.0275 38.92L30.9875 37.264C31.3075 37.472 31.7555 37.672 32.3315 37.864C32.9075 38.056 33.5795 38.152 34.3475 38.152C35.1475 38.152 35.7795 38.072 36.2435 37.912C36.7235 37.752 37.0675 37.52 37.2755 37.216C37.4995 36.896 37.6115 36.528 37.6115 36.112C37.6115 35.792 37.5395 35.4 37.3955 34.936C37.2675 34.456 36.9795 33.816 36.5315 33.016C36.0835 32.2 35.3955 31.136 34.4675 29.824L36.1235 28.744C36.9715 29.912 37.6435 30.968 38.1395 31.912C38.6515 32.856 39.0115 33.688 39.2195 34.408C39.4435 35.112 39.5555 35.72 39.5555 36.232C39.5555 36.872 39.3955 37.496 39.0755 38.104C38.7555 38.696 38.2195 39.184 37.4675 39.568C36.7155 39.952 35.6755 40.144 34.3475 40.144C33.7715 40.144 33.2115 40.096 32.6675 40C32.1395 39.904 31.6515 39.768 31.2035 39.592C30.7555 39.4 30.3635 39.176 30.0275 38.92ZM42.833 40L42.353 22.864H44.297L44.777 40H42.833ZM47.1838 38.92L48.1438 37.264C48.4638 37.472 48.9118 37.672 49.4878 37.864C50.0638 38.056 50.7358 38.152 51.5038 38.152C52.3038 38.152 52.9358 38.072 53.3997 37.912C53.8798 37.752 54.2238 37.52 54.4318 37.216C54.6558 36.896 54.7678 36.528 54.7678 36.112C54.7678 35.792 54.6958 35.4 54.5518 34.936C54.4238 34.456 54.1358 33.816 53.6878 33.016C53.2398 32.2 52.5518 31.136 51.6238 29.824L53.2798 28.744C54.1278 29.912 54.7998 30.968 55.2958 31.912C55.8078 32.856 56.1678 33.688 56.3758 34.408C56.5998 35.112 56.7118 35.72 56.7118 36.232C56.7118 36.872 56.5518 37.496 56.2318 38.104C55.9118 38.696 55.3758 39.184 54.6238 39.568C53.8718 39.952 52.8318 40.144 51.5038 40.144C50.9278 40.144 50.3678 40.096 49.8238 40C49.2958 39.904 48.8078 39.768 48.3598 39.592C47.9118 39.4 47.5198 39.176 47.1838 38.92ZM67.1413 40.504L67.7653 38.536C69.6373 38.536 71.2453 38.488 72.5893 38.392C73.9493 38.296 75.0613 38.144 75.9253 37.936C76.8053 37.712 77.4533 37.416 77.8693 37.048C78.3013 36.664 78.5173 36.2 78.5173 35.656C78.5173 35.048 78.4053 34.344 78.1813 33.544C77.9573 32.744 77.6693 31.888 77.3173 30.976L79.1653 30.328C79.3733 30.84 79.5653 31.392 79.7413 31.984C79.9333 32.56 80.0933 33.136 80.2213 33.712C80.3493 34.272 80.4133 34.792 80.4133 35.272C80.4133 36.216 80.1973 37.024 79.7653 37.696C79.3333 38.352 78.6133 38.888 77.6053 39.304C76.5973 39.72 75.2373 40.024 73.5253 40.216C71.8293 40.408 69.7013 40.504 67.1413 40.504ZM67.1413 40.504C65.7173 40.504 64.4613 40.408 63.3733 40.216C62.3013 40.04 61.4053 39.76 60.6853 39.376C59.9653 38.992 59.4213 38.496 59.0533 37.888C58.6853 37.264 58.5013 36.512 58.5013 35.632C58.5013 35.232 58.5333 34.824 58.5973 34.408C58.6613 33.976 58.7413 33.544 58.8373 33.112C58.9493 32.68 59.0613 32.264 59.1733 31.864L60.9733 32.32C60.9093 32.56 60.8373 32.848 60.7573 33.184C60.6773 33.504 60.6053 33.832 60.5413 34.168C60.4933 34.504 60.4693 34.808 60.4693 35.08C60.4693 35.912 60.6773 36.584 61.0933 37.096C61.5253 37.592 62.2693 37.96 63.3253 38.2C64.3813 38.424 65.8613 38.536 67.7653 38.536L68.2453 39.736L67.1413 40.504ZM71.1493 30.376C70.8133 30.376 70.5253 30.264 70.2853 30.04C70.0613 29.8 69.9493 29.52 69.9493 29.2C69.9493 28.88 70.0613 28.6 70.2853 28.36C70.5253 28.12 70.8133 28 71.1493 28C71.4693 28 71.7413 28.12 71.9653 28.36C72.2053 28.6 72.3253 28.88 72.3253 29.2C72.3253 29.52 72.2053 29.8 71.9653 30.04C71.7413 30.264 71.4693 30.376 71.1493 30.376ZM67.8613 30.376C67.5253 30.376 67.2373 30.264 66.9973 30.04C66.7733 29.8 66.6613 29.52 66.6613 29.2C66.6613 28.88 66.7733 28.6 66.9973 28.36C67.2373 28.12 67.5253 28 67.8613 28C68.1813 28 68.4533 28.12 68.6773 28.36C68.9173 28.6 69.0373 28.88 69.0373 29.2C69.0373 29.52 68.9173 29.8 68.6773 30.04C68.4533 30.264 68.1813 30.376 67.8613 30.376ZM88.6012 40.12C87.3212 40.12 86.3372 39.976 85.6492 39.688C84.9772 39.4 84.5132 38.952 84.2572 38.344C84.0012 37.736 83.8572 36.952 83.8252 35.992L83.3452 22.864H85.3132L85.7932 35.224C85.8252 36.008 85.8972 36.616 86.0092 37.048C86.1372 37.464 86.4092 37.752 86.8252 37.912C87.2572 38.072 87.9292 38.152 88.8412 38.152C89.1772 38.152 89.4172 38.248 89.5612 38.44C89.7212 38.616 89.8012 38.832 89.8012 39.088C89.8012 39.344 89.6892 39.584 89.4652 39.808C89.2412 40.016 88.9532 40.12 88.6012 40.12ZM88.6016 40.12L88.8416 38.152C89.5136 38.152 90.0416 38.096 90.4256 37.984C90.8096 37.856 91.0976 37.624 91.2896 37.288C91.4976 36.936 91.6736 36.432 91.8176 35.776C91.9616 35.12 92.1376 34.264 92.3456 33.208L94.2176 33.568C94.1536 33.856 94.0816 34.176 94.0016 34.528C93.9216 34.88 93.8496 35.232 93.7856 35.584C93.7376 35.92 93.7136 36.216 93.7136 36.472C93.7136 36.792 93.7856 37.08 93.9296 37.336C94.0736 37.592 94.3856 37.792 94.8656 37.936C95.3456 38.08 96.0816 38.152 97.0736 38.152C97.4096 38.152 97.6496 38.248 97.7936 38.44C97.9536 38.616 98.0336 38.832 98.0336 39.088C98.0336 39.344 97.9216 39.584 97.6976 39.808C97.4736 40.016 97.1856 40.12 96.8336 40.12C95.7936 40.12 94.9776 40.032 94.3856 39.856C93.7936 39.664 93.3616 39.384 93.0896 39.016C92.8176 38.632 92.6336 38.168 92.5376 37.624L93.2576 37.672C93.0016 38.184 92.7216 38.6 92.4176 38.92C92.1296 39.24 91.8096 39.488 91.4576 39.664C91.1056 39.84 90.6976 39.96 90.2336 40.024C89.7696 40.088 89.2256 40.12 88.6016 40.12ZM92.6816 44.584C92.3456 44.584 92.0576 44.464 91.8176 44.224C91.5936 44 91.4816 43.728 91.4816 43.408C91.4816 43.088 91.5936 42.808 91.8176 42.568C92.0576 42.328 92.3456 42.208 92.6816 42.208C93.0016 42.208 93.2736 42.328 93.4976 42.568C93.7376 42.808 93.8576 43.088 93.8576 43.408C93.8576 43.728 93.7376 44 93.4976 44.224C93.2736 44.464 93.0016 44.584 92.6816 44.584ZM96.8281 40.12L97.0681 38.152C98.0121 38.152 98.7481 38.12 99.2761 38.056C99.8041 37.976 100.18 37.792 100.404 37.504C100.628 37.2 100.74 36.728 100.74 36.088C100.74 35.688 100.676 35.216 100.548 34.672C100.42 34.112 100.252 33.52 100.044 32.896C99.8361 32.272 99.6121 31.656 99.3721 31.048L101.316 30.328C101.524 30.84 101.716 31.424 101.892 32.08C102.084 32.736 102.244 33.384 102.372 34.024C102.5 34.664 102.564 35.224 102.564 35.704C102.564 36.504 102.452 37.184 102.228 37.744C102.02 38.304 101.684 38.76 101.22 39.112C100.756 39.464 100.156 39.72 99.4201 39.88C98.7001 40.04 97.8361 40.12 96.8281 40.12ZM100.428 25.192C100.092 25.192 99.8041 25.08 99.5641 24.856C99.3401 24.616 99.2281 24.336 99.2281 24.016C99.2281 23.696 99.3401 23.416 99.5641 23.176C99.8041 22.936 100.092 22.816 100.428 22.816C100.748 22.816 101.02 22.936 101.244 23.176C101.484 23.416 101.604 23.696 101.604 24.016C101.604 24.336 101.484 24.616 101.244 24.856C101.02 25.08 100.748 25.192 100.428 25.192ZM98.7961 27.832C98.4601 27.832 98.1721 27.72 97.9321 27.496C97.7081 27.256 97.5961 26.976 97.5961 26.656C97.5961 26.336 97.7081 26.056 97.9321 25.816C98.1721 25.576 98.4601 25.456 98.7961 25.456C99.1161 25.456 99.3881 25.576 99.6121 25.816C99.8521 26.056 99.9721 26.336 99.9721 26.656C99.9721 26.976 99.8521 27.256 99.6121 27.496C99.3881 27.72 99.1161 27.832 98.7961 27.832ZM102.06 27.832C101.724 27.832 101.436 27.72 101.196 27.496C100.972 27.256 100.86 26.976 100.86 26.656C100.86 26.336 100.972 26.056 101.196 25.816C101.436 25.576 101.724 25.456 102.06 25.456C102.38 25.456 102.652 25.576 102.876 25.816C103.116 26.056 103.236 26.336 103.236 26.656C103.236 26.976 103.116 27.256 102.876 27.496C102.652 27.72 102.38 27.832 102.06 27.832Z" fill="#003366"/>
<defs>
<filter id="filter0_d_755_442" x="0.481845" y="0.175216" width="117.299" height="114.299" filterUnits="userSpaceOnUse" color-interpolation-filters="sRGB">
<feFlood flood-opacity="0" result="BackgroundImageFix"/>
<feColorMatrix in="SourceAlpha" type="matrix" values="0 0 0 0 0 0 0 0 0 0 0 0 0 0 0 0 0 0 127 0" result="hardAlpha"/>
<feOffset dx="-2.86859" dy="3.82478"/>
<feGaussianBlur stdDeviation="3.82478"/>
<feComposite in2="hardAlpha" operator="out"/>
<feColorMatrix type="matrix" values="0 0 0 0 0.172549 0 0 0 0 0.0823529 0 0 0 0 0.380392 0 0 0 0.5 0"/>
<feBlend mode="normal" in2="BackgroundImageFix" result="effect1_dropShadow_755_442"/>
<feBlend mode="normal" in="SourceGraphic" in2="effect1_dropShadow_755_442" result="shape"/>
</filter>
<clipPath id="clip0_755_442">
<rect width="62" height="64" fill="white" transform="translate(17 19)"/>
</clipPath>
</defs>
</svg>
