<svg width="24" height="24" viewBox="0 0 24 24" fill="none" xmlns="http://www.w3.org/2000/svg">
<path d="M12.0013 3.32389C4.27312 3.32139 0.402343 12.6607 5.86545 18.1238C7.07826 19.3365 8.6236 20.1625 10.306 20.4972C11.9884 20.832 13.7323 20.6604 15.3172 20.0043C16.9021 19.3481 18.2567 18.2369 19.2098 16.811C20.1629 15.3852 20.6716 13.7088 20.6716 11.994C20.6716 7.2068 16.7908 3.32555 12.0013 3.32389ZM7.09013 7.64851C7.5078 5.48328 10.3356 4.90322 11.572 6.72925C12.8083 8.55444 11.2202 10.9647 9.05428 10.548C8.73481 10.4866 8.43057 10.363 8.15895 10.184C7.88732 10.0051 7.65362 9.77438 7.47122 9.50512C7.28881 9.23585 7.16127 8.93329 7.09588 8.61472C7.03049 8.29616 7.02853 7.96783 7.09013 7.64851ZM10.6933 15.1393C10.2731 17.3037 7.44444 17.8796 6.21059 16.0527C4.97675 14.2259 6.56657 11.819 8.73247 12.2365C9.05198 12.2982 9.35618 12.4223 9.62768 12.6016C9.89918 12.7809 10.1327 13.012 10.3148 13.2816C10.4969 13.5512 10.6241 13.854 10.689 14.1728C10.7539 14.4915 10.7554 14.82 10.6933 15.1393ZM11.7437 13.1349C10.7833 12.9491 10.5249 11.6956 11.3344 11.1456C12.1431 10.5955 13.2152 11.2956 13.0351 12.2573C13.0084 12.3999 12.9538 12.5357 12.8744 12.6571C12.795 12.7784 12.6923 12.8829 12.5724 12.9644C12.4525 13.046 12.3176 13.103 12.1755 13.1323C12.0334 13.1616 11.8861 13.1625 11.7437 13.1349ZM16.9109 16.3336C16.4932 18.4988 13.6654 19.0781 12.429 17.2529C11.1918 15.4268 12.78 13.0174 14.9467 13.4333C15.2663 13.4946 15.5706 13.6183 15.8423 13.7973C16.114 13.9763 16.3477 14.2071 16.5301 14.4765C16.7125 14.7458 16.8401 15.0485 16.9054 15.3672C16.9707 15.6858 16.9726 16.0142 16.9109 16.3336ZM15.271 11.7481C13.1051 11.3306 12.5257 8.5011 14.3523 7.26431C16.1781 6.02834 18.5882 7.61601 18.1722 9.78124C18.1113 10.101 17.9878 10.4056 17.8089 10.6776C17.63 10.9495 17.3992 11.1836 17.1297 11.3663C16.8603 11.549 16.5574 11.6767 16.2384 11.7423C15.9195 11.8078 15.5907 11.8098 15.271 11.7481ZM13.3261 21.3841L15.2135 21.8925C16.0072 22.1031 16.852 21.9899 17.5622 21.5779C18.2724 21.166 18.7899 20.4889 19.0009 19.6956L19.5345 17.6937C18.0323 19.6941 15.8007 21.0204 13.3252 21.3841H13.3261ZM19.6979 4.9949L17.7279 4.47068C18.7234 5.23621 19.557 6.19181 20.1801 7.282C20.8032 8.37219 21.2035 9.57525 21.3577 10.8214L21.8996 8.77197C22.107 7.97916 21.9915 7.1365 21.5785 6.42867C21.1655 5.72083 20.4886 5.20554 19.6962 4.99573L19.6979 4.9949ZM2.55657 13.5041L2.10555 15.2043C1.89496 15.9977 2.00816 16.8423 2.42025 17.5522C2.83234 18.2622 3.5096 18.7796 4.30313 18.9906L6.0597 19.4589C4.18436 17.985 2.93414 15.8589 2.55657 13.5041ZM10.6308 2.58048L8.79083 2.10042C8.39758 1.9957 7.98753 1.96948 7.58413 2.02327C7.18073 2.07706 6.79189 2.20981 6.43984 2.41391C6.08779 2.61802 5.77943 2.88949 5.53239 3.2128C5.28535 3.53611 5.10447 3.90492 5.00009 4.29816L4.54073 6.03334C6.05613 4.14784 8.23423 2.91262 10.6308 2.58048Z" fill="#626262"/>
</svg>
