<svg width="20" height="20" viewBox="0 0 20 20" fill="none" xmlns="http://www.w3.org/2000/svg">
<mask id="mask0_2_21036" style="mask-type:alpha" maskUnits="userSpaceOnUse" x="0" y="0" width="20" height="20">
<rect width="20" height="20" fill="#D9D9D9"/>
</mask>
<g mask="url(#mask0_2_21036)">
<path d="M10.0003 15L6.50033 16.5C5.94477 16.7361 5.41699 16.691 4.91699 16.3646C4.41699 16.0382 4.16699 15.5764 4.16699 14.9792V4.16667C4.16699 3.70833 4.33019 3.31597 4.65658 2.98958C4.98296 2.66319 5.37533 2.5 5.83366 2.5H11.667C11.3892 2.91667 11.1809 3.31597 11.042 3.69792C10.9031 4.07986 10.8337 4.51389 10.8337 5C10.8337 6 11.1496 6.88195 11.7816 7.64583C12.4135 8.40972 13.2087 8.88889 14.167 9.08333C14.4864 9.125 14.7642 9.14583 15.0003 9.14583C15.2364 9.14583 15.5142 9.125 15.8337 9.08333V14.9792C15.8337 15.5764 15.5837 16.0382 15.0837 16.3646C14.5837 16.691 14.0559 16.7361 13.5003 16.5L10.0003 15ZM14.8545 5.14583L17.2087 2.79167C17.3753 2.625 17.5732 2.54167 17.8024 2.54167C18.0316 2.54167 18.2295 2.625 18.3962 2.79167C18.5628 2.95833 18.6462 3.15625 18.6462 3.38542C18.6462 3.61458 18.5628 3.8125 18.3962 3.97917L15.4378 6.91667C15.2712 7.08333 15.0767 7.16667 14.8545 7.16667C14.6323 7.16667 14.4378 7.08333 14.2712 6.91667L13.0837 5.72917C12.9309 5.57639 12.8545 5.38542 12.8545 5.15625C12.8545 4.92708 12.9309 4.72917 13.0837 4.5625C13.2503 4.39583 13.4482 4.3125 13.6774 4.3125C13.9066 4.3125 14.1045 4.39583 14.2712 4.5625L14.8545 5.14583Z" fill="#FF7F50"/>
</g>
</svg>
