<svg width="40" height="40" viewBox="0 0 40 40" fill="none" xmlns="http://www.w3.org/2000/svg">
<mask id="mask0_124_1034" style="mask-type:alpha" maskUnits="userSpaceOnUse" x="0" y="0" width="40" height="40">
<rect x="40" width="40" height="40" transform="rotate(90 40 0)" fill="#D9D9D9"/>
</mask>
<g mask="url(#mask0_124_1034)">
<path d="M15.0831 20.0009C15.0831 19.7787 15.1178 19.5704 15.1872 19.3759C15.2567 19.1815 15.3747 19.0009 15.5414 18.8342L23.2497 11.1259C23.5553 10.8204 23.9372 10.6745 24.3956 10.6884C24.8539 10.7023 25.2359 10.862 25.5414 11.1676C25.847 11.4731 25.9997 11.862 25.9997 12.3342C25.9997 12.8065 25.847 13.1954 25.5414 13.5009L19.0414 20.0009L25.5831 26.5426C25.8886 26.8481 26.0345 27.2301 26.0206 27.6884C26.0067 28.1467 25.847 28.5287 25.5414 28.8342C25.2359 29.1398 24.847 29.2926 24.3747 29.2926C23.9025 29.2926 23.5136 29.1398 23.2081 28.8342L15.5414 21.1676C15.3747 21.0009 15.2567 20.8204 15.1872 20.6259C15.1178 20.4315 15.0831 20.2231 15.0831 20.0009Z" fill="#FF7F50"/>
</g>
</svg>
