<svg width="50" height="60" viewBox="0 0 50 60" fill="none" xmlns="http://www.w3.org/2000/svg">
<g clip-path="url(#clip0_223_2010)">
<path d="M2.12939 6.07354C0.834982 6.55666 0 7.67355 0 8.90457V36.2234C0 41.8127 2.65951 47.0473 7.11699 50.2335L23.202 60.5181C23.7415 60.8535 24.3644 61.0312 25 61.0312C25.6356 61.0312 26.2585 60.8535 26.798 60.5181L42.883 50.2335C47.3405 47.0473 50 41.8127 50 36.2234V8.97732C50 7.71011 49.112 6.5694 47.7646 6.10839C28.2249 -0.565641 20.3923 -0.74416 2.12939 6.07354Z" fill="#F6F9FE"/>
<path d="M47.7647 6.10897C38.2533 2.86012 31.5161 1.15524 25 1.04285V61.0318C25.636 61.0346 26.2597 60.8566 26.798 60.5187L42.883 50.2341C47.3405 47.0479 50 41.8133 50 36.224V8.97739C50 7.71069 49.112 6.56998 47.7647 6.10897Z" fill="#F6F9FE"/>
<path d="M26.6377 26.7663H22.9793C21.4018 26.7645 19.8894 26.1384 18.7739 25.0255C17.6585 23.9126 17.031 22.4036 17.0292 20.8297V20.12C17.0308 18.5459 17.6582 17.0368 18.7737 15.9238C19.8892 14.8107 21.4017 14.1845 22.9793 14.1827H26.6377C28.2155 14.1844 29.7281 14.8105 30.8437 15.9236C31.9594 17.0366 32.5869 18.5458 32.5886 20.12V20.8297C32.5868 22.4038 31.9592 23.9128 30.8435 25.0257C29.7279 26.1386 28.2153 26.7646 26.6377 26.7663ZM22.9793 16.5564C22.0325 16.5575 21.1247 16.9333 20.4552 17.6014C19.7858 18.2695 19.4093 19.1753 19.4084 20.12V20.8297C19.4094 21.7743 19.786 22.6799 20.4554 23.3478C21.1249 24.0158 22.0326 24.3915 22.9793 24.3925H26.6377C27.5846 24.3916 28.4924 24.016 29.162 23.348C29.8316 22.6801 30.2083 21.7744 30.2094 20.8297V20.12C30.2085 19.1751 29.8319 18.2693 29.1622 17.6012C28.4926 16.9331 27.5847 16.5574 26.6377 16.5564H22.9793Z" fill="#8BACF1"/>
<path d="M14.808 21.8704H34.5769C35.3207 21.8704 36.0341 22.1652 36.5601 22.6899C37.086 23.2147 37.3815 23.9264 37.3815 24.6685V34.1748C37.3815 36.608 36.4127 38.9416 34.6882 40.6622C32.9636 42.3827 30.6247 43.3493 28.1859 43.3493H22.4069C19.8109 43.3493 17.3212 42.3204 15.4855 40.489C13.6499 38.6575 12.6186 36.1735 12.6186 33.5834V24.0547C12.6186 23.4754 12.8493 22.9198 13.2598 22.5102C13.6704 22.1005 14.2273 21.8704 14.808 21.8704Z" fill="#8BACF1"/>
<path d="M26.0688 32.2693C27.7515 31.6804 28.6371 29.842 28.0469 28.1632C27.4566 26.4843 25.614 25.6008 23.9313 26.1897C22.2486 26.7786 21.363 28.617 21.9532 30.2958C22.5435 31.9747 24.3861 32.8583 26.0688 32.2693Z" fill="#F6F9FE"/>
<path d="M25.0001 30.7325C25.1854 30.7331 25.3631 30.8068 25.4941 30.9376C25.6252 31.0684 25.6991 31.2456 25.6996 31.4305V36.7996C25.6991 36.9845 25.6252 37.1617 25.4941 37.2925C25.3631 37.4233 25.1854 37.497 25.0001 37.4976C24.8147 37.497 24.6371 37.4233 24.506 37.2925C24.3749 37.1617 24.301 36.9845 24.3005 36.7996V31.4305C24.301 31.2456 24.3749 31.0684 24.506 30.9376C24.6371 30.8068 24.8147 30.7331 25.0001 30.7325Z" fill="#F6F9FE"/>
</g>
<defs>
<clipPath id="clip0_223_2010">
<rect width="50" height="60" fill="white"/>
</clipPath>
</defs>
</svg>
