<svg width="246" height="240" viewBox="0 0 246 240" fill="none" xmlns="http://www.w3.org/2000/svg">
<g filter="url(#filter0_d_0_1)">
<path fill-rule="evenodd" clip-rule="evenodd" d="M22 24C22 15.1635 29.1634 8 38 8H220C228.837 8 236 15.1634 236 24V200.587C236 200.587 236 200.588 236 200.587C236 200.587 236 200.587 236 200.587L221.412 214.787C221.023 215.165 220.405 215.165 220.017 214.787L206.126 201.266C205.738 200.888 205.119 200.888 204.731 201.266L190.84 214.787C190.452 215.165 189.833 215.165 189.445 214.787L175.554 201.266C175.166 200.888 174.548 200.888 174.159 201.266L160.269 214.787C159.88 215.165 159.262 215.165 158.874 214.787L144.983 201.266C144.595 200.888 143.976 200.888 143.588 201.266L129.697 214.787C129.309 215.165 128.691 215.165 128.302 214.787L114.412 201.266C114.024 200.888 113.405 200.888 113.017 201.266L99.126 214.787C98.7378 215.165 98.1192 215.165 97.731 214.787L83.8403 201.266C83.452 200.888 82.8335 200.888 82.4453 201.266L68.5545 214.787C68.1663 215.165 67.5478 215.165 67.1595 214.787L53.2688 201.266C52.8806 200.888 52.262 200.888 51.8738 201.266L37.9831 214.787C37.5949 215.165 36.9763 215.165 36.5881 214.787L22.3025 200.882C22.1091 200.694 22 200.435 22 200.165V24Z" fill="#F6F6F6"/>
</g>
<g opacity="0.1" clip-path="url(#clip0_0_1)">
<rect width="139" height="142.089" transform="translate(42 14)" fill="#F6F6F6"/>
<path d="M173.572 54.158C156.63 49.1902 139.402 45.2195 121.979 42.2676C120.894 41.0786 119.693 39.9985 118.391 39.0434L118.323 38.9933L118.252 38.947C114.118 36.2483 109.805 35.3236 105.715 34.9712C103.687 34.7964 101.665 34.7594 99.7574 34.7299C99.659 34.7284 99.5609 34.7269 99.463 34.7254C97.6315 34.6974 95.9098 34.671 94.2168 34.5483L94.1054 34.5403H93.9936H53.5861C69.1939 25.8568 101.235 12.1683 139.446 18.8818C145.729 20.7163 151.606 23.6909 156.775 27.6508L156.777 27.6529L157.485 28.1935C159.95 30.4949 168.517 38.7909 173.572 54.158Z" stroke="#002347" stroke-width="6.17778"/>
<path d="M110.81 129.706L111.056 129.662L111.291 129.58C121.548 125.977 126.493 116.428 128.918 107.286C131.364 98.0648 131.492 88.3909 131.492 83.195C131.492 78.3541 131.423 72.2934 130.4 66.3094C129.775 62.6572 128.779 58.9291 127.161 55.4602C143.658 58.4759 159.966 62.4199 176.007 67.2734C177.299 73.1536 177.938 79.1564 177.911 85.1757V85.1893C177.911 106.752 170.399 123.312 158.874 134.656C147.333 146.015 131.594 152.312 114.86 153.001C88.5961 152.867 72.4029 143.656 62.3264 132.817C57.3913 127.508 53.8675 121.747 51.3566 116.346C56.8844 120.994 63.0784 124.153 69.0653 126.293C79.1698 129.904 88.8586 130.68 94.247 130.796C94.5287 130.868 94.8134 130.928 95.1002 130.976L95.3458 131.017L95.5947 131.018C100.697 131.043 105.79 130.604 110.81 129.706Z" stroke="#002347" stroke-width="6.17778"/>
<path d="M88.3916 102.004L88.8356 122.974C83.9065 122.512 77.596 121.459 71.1444 119.153C61.7975 115.813 52.3341 109.912 46.1994 99.5226C45.7729 97.567 45.464 95.5883 45.2742 93.5968V77.2522V77.2291L45.2739 77.2061C45.2611 76.3505 45.248 75.5019 45.235 74.6576C45.1782 70.9742 45.1227 67.3744 45.0998 63.6478C52.0103 65.2586 60.7643 68.1531 68.6455 73.282C77.8869 79.2961 85.8483 88.3155 88.3916 102.004Z" stroke="#002347" stroke-width="6.17778"/>
</g>
<path d="M48.2029 147.08C47.3495 147.08 46.6935 146.984 46.2349 146.792C45.7869 146.6 45.4775 146.301 45.3069 145.896C45.1362 145.491 45.0402 144.968 45.0189 144.328L44.6989 135.576H46.0109L46.3309 143.816C46.3522 144.339 46.4002 144.744 46.4749 145.032C46.5602 145.309 46.7415 145.501 47.0189 145.608C47.3069 145.715 47.7549 145.768 48.3629 145.768C48.5869 145.768 48.7469 145.832 48.8429 145.96C48.9495 146.077 49.0029 146.221 49.0029 146.392C49.0029 146.563 48.9282 146.723 48.7789 146.872C48.6295 147.011 48.4375 147.08 48.2029 147.08ZM54.3631 147.128C53.9258 147.128 53.4778 147.069 53.0191 146.952C52.5605 146.824 52.1178 146.648 51.6911 146.424C51.2751 146.2 50.8965 145.928 50.5551 145.608C50.2245 145.277 49.9578 144.909 49.7551 144.504C49.5631 144.099 49.4671 143.661 49.4671 143.192C49.4671 142.712 49.5631 142.269 49.7551 141.864C49.9578 141.459 50.2405 141.133 50.6031 140.888C50.9765 140.632 51.4085 140.504 51.8991 140.504C52.3791 140.504 52.7898 140.637 53.1311 140.904C53.4725 141.16 53.7338 141.496 53.9151 141.912C54.1071 142.317 54.2031 142.744 54.2031 143.192C54.2031 143.811 54.0271 144.365 53.6751 144.856C53.3338 145.336 52.8698 145.741 52.2831 146.072C51.6965 146.403 51.0511 146.653 50.3471 146.824C49.6431 146.995 48.9285 147.08 48.2031 147.08L48.3631 145.768C48.9391 145.768 49.4511 145.731 49.8991 145.656C50.3578 145.571 50.7525 145.459 51.0831 145.32C51.5738 145.128 51.9578 144.899 52.2351 144.632C52.5231 144.355 52.7258 144.072 52.8431 143.784C52.9605 143.496 53.0191 143.235 53.0191 143C53.0191 142.776 52.9711 142.563 52.8751 142.36C52.7898 142.147 52.6618 141.976 52.4911 141.848C52.3311 141.709 52.1338 141.64 51.8991 141.64C51.6645 141.64 51.4511 141.709 51.2591 141.848C51.0778 141.976 50.9338 142.147 50.8271 142.36C50.7205 142.573 50.6671 142.797 50.6671 143.032C50.6671 143.48 50.7791 143.88 51.0031 144.232C51.2378 144.573 51.5365 144.867 51.8991 145.112C52.2725 145.357 52.6671 145.544 53.0831 145.672C53.5098 145.8 53.9151 145.864 54.2991 145.864C54.6618 145.864 54.9285 145.805 55.0991 145.688C55.2698 145.56 55.3551 145.352 55.3551 145.064C55.3551 145.011 55.3391 144.915 55.3071 144.776C55.2858 144.627 55.2005 144.424 55.0511 144.168C54.9125 143.912 54.6725 143.597 54.3311 143.224C53.9898 142.84 53.5098 142.387 52.8911 141.864C52.2725 141.331 51.4725 140.712 50.4911 140.008L51.2431 139.016C52.2671 139.763 53.1098 140.424 53.7711 141C54.4431 141.565 54.9711 142.061 55.3551 142.488C55.7498 142.904 56.0378 143.272 56.2191 143.592C56.4111 143.901 56.5338 144.179 56.5871 144.424C56.6405 144.659 56.6671 144.883 56.6671 145.096C56.6671 145.448 56.5871 145.779 56.4271 146.088C56.2778 146.397 56.0325 146.648 55.6911 146.84C55.3605 147.032 54.9178 147.128 54.3631 147.128ZM63.6306 147.336L64.0466 146.024C64.6973 146.024 65.3853 145.987 66.1106 145.912C66.836 145.827 67.556 145.683 68.2706 145.48C68.996 145.267 69.684 144.979 70.3346 144.616C70.9853 144.253 71.556 143.795 72.0466 143.24L73.0546 143.832C72.9586 144.077 72.8946 144.275 72.8626 144.424C72.8306 144.563 72.8146 144.691 72.8146 144.808C72.8146 144.968 72.8733 145.123 72.9906 145.272C73.108 145.411 73.3266 145.528 73.6466 145.624C73.9773 145.72 74.4413 145.768 75.0386 145.768C75.2626 145.768 75.4226 145.832 75.5186 145.96C75.6253 146.077 75.6786 146.221 75.6786 146.392C75.6786 146.563 75.604 146.723 75.4546 146.872C75.3053 147.011 75.1133 147.08 74.8786 147.08C74.196 147.08 73.5933 147.011 73.0706 146.872C72.5586 146.723 72.1746 146.493 71.9186 146.184C71.6733 145.864 71.5933 145.453 71.6786 144.952L71.9666 145.048C71.54 145.432 71.028 145.768 70.4306 146.056C69.844 146.333 69.188 146.568 68.4626 146.76C67.748 146.952 66.98 147.096 66.1586 147.192C65.348 147.288 64.5053 147.336 63.6306 147.336ZM63.6306 147.336C62.6813 147.336 61.844 147.272 61.1186 147.144C60.404 147.027 59.8066 146.84 59.3266 146.584C58.8466 146.328 58.484 145.997 58.2386 145.592C57.9933 145.176 57.8706 144.675 57.8706 144.088C57.8706 143.821 57.892 143.549 57.9346 143.272C57.9773 142.984 58.0306 142.696 58.0946 142.408C58.1693 142.12 58.244 141.843 58.3186 141.576L59.5186 141.88C59.476 142.04 59.428 142.232 59.3746 142.456C59.3213 142.669 59.2733 142.888 59.2306 143.112C59.1986 143.336 59.1826 143.539 59.1826 143.72C59.1826 144.275 59.3213 144.723 59.5986 145.064C59.8866 145.395 60.3826 145.64 61.0866 145.8C61.7906 145.949 62.7773 146.024 64.0466 146.024L64.3666 146.824L63.6306 147.336ZM66.3186 140.584C66.0946 140.584 65.9026 140.509 65.7426 140.36C65.5933 140.2 65.5186 140.013 65.5186 139.8C65.5186 139.587 65.5933 139.4 65.7426 139.24C65.9026 139.08 66.0946 139 66.3186 139C66.532 139 66.7133 139.08 66.8626 139.24C67.0226 139.4 67.1026 139.587 67.1026 139.8C67.1026 140.013 67.0226 140.2 66.8626 140.36C66.7133 140.509 66.532 140.584 66.3186 140.584ZM64.1266 140.584C63.9026 140.584 63.7106 140.509 63.5506 140.36C63.4013 140.2 63.3266 140.013 63.3266 139.8C63.3266 139.587 63.4013 139.4 63.5506 139.24C63.7106 139.08 63.9026 139 64.1266 139C64.34 139 64.5213 139.08 64.6706 139.24C64.8306 139.4 64.9106 139.587 64.9106 139.8C64.9106 140.013 64.8306 140.2 64.6706 140.36C64.5213 140.509 64.34 140.584 64.1266 140.584ZM74.875 147.08L75.035 145.768H76.539C77.1683 145.768 77.6643 145.736 78.027 145.672C78.4003 145.597 78.6723 145.507 78.843 145.4C79.0243 145.283 79.1417 145.16 79.195 145.032C79.259 144.893 79.291 144.755 79.291 144.616C79.291 144.371 79.195 144.067 79.003 143.704C78.8217 143.341 78.443 142.872 77.867 142.296C77.5683 141.997 77.2697 141.725 76.971 141.48C76.6723 141.224 76.395 141 76.139 140.808C75.8937 140.605 75.6963 140.435 75.547 140.296C75.3977 140.157 75.323 140.051 75.323 139.976C75.323 139.816 75.3337 139.661 75.355 139.512C75.387 139.363 75.4243 139.224 75.467 139.096C75.5203 138.968 75.5843 138.867 75.659 138.792C75.8723 138.568 76.1443 138.344 76.475 138.12C76.8163 137.896 77.211 137.661 77.659 137.416C78.1177 137.171 78.6297 136.909 79.195 136.632C79.771 136.344 80.4003 136.029 81.083 135.688L81.627 136.872C80.7737 137.277 80.059 137.624 79.483 137.912C78.9177 138.189 78.4377 138.44 78.043 138.664C77.6483 138.877 77.3017 139.08 77.003 139.272C76.7043 139.464 76.4003 139.677 76.091 139.912L76.331 139.304C77.003 139.837 77.595 140.339 78.107 140.808C78.6297 141.277 79.067 141.731 79.419 142.168C79.771 142.595 80.0377 143.016 80.219 143.432C80.4003 143.848 80.491 144.269 80.491 144.696C80.491 144.931 80.4483 145.187 80.363 145.464C80.2777 145.741 80.0963 146.003 79.819 146.248C79.5417 146.493 79.1257 146.696 78.571 146.856C78.0163 147.005 77.2697 147.08 76.331 147.08H74.875ZM80.8921 150.712L80.4281 149.496C81.2068 149.24 81.8521 148.947 82.3641 148.616C82.8868 148.285 83.2975 147.933 83.5961 147.56C83.9055 147.187 84.1241 146.808 84.2521 146.424C84.3801 146.029 84.4441 145.651 84.4441 145.288C84.4441 144.765 84.3268 144.237 84.0921 143.704C83.8681 143.16 83.6175 142.648 83.3401 142.168L84.5081 141.576C84.7108 141.949 84.8868 142.317 85.0361 142.68C85.1961 143.043 85.3348 143.384 85.4521 143.704C85.5801 144.024 85.6815 144.317 85.7561 144.584C85.9055 145.043 86.0975 145.357 86.3321 145.528C86.5775 145.688 86.9081 145.768 87.3241 145.768C87.5481 145.768 87.7081 145.832 87.8041 145.96C87.9108 146.077 87.9641 146.221 87.9641 146.392C87.9641 146.563 87.8895 146.723 87.7401 146.872C87.5908 147.011 87.3988 147.08 87.1641 147.08C86.6948 147.08 86.3108 147 86.0121 146.84C85.7241 146.669 85.5055 146.451 85.3561 146.184C85.2068 145.907 85.1055 145.619 85.0521 145.32L85.5641 145.608C85.5641 146.312 85.4041 146.952 85.0841 147.528C84.7748 148.115 84.3748 148.621 83.8841 149.048C83.3935 149.485 82.8815 149.843 82.3481 150.12C81.8148 150.397 81.3295 150.595 80.8921 150.712ZM87.1719 147.08L87.3319 145.768C87.6732 145.768 87.9505 145.747 88.1639 145.704C88.3772 145.651 88.5532 145.528 88.6919 145.336C88.8412 145.133 88.9799 144.819 89.1079 144.392C89.2359 143.965 89.3852 143.368 89.5559 142.6L90.7559 142.936C90.7132 143.117 90.6652 143.325 90.6119 143.56C90.5585 143.784 90.5105 144.019 90.4679 144.264C90.4252 144.499 90.4039 144.717 90.4039 144.92C90.4039 145.187 90.5052 145.395 90.7079 145.544C90.9105 145.693 91.2785 145.768 91.8119 145.768C92.1319 145.768 92.3932 145.741 92.5959 145.688C92.7985 145.635 92.9639 145.507 93.0919 145.304C93.2305 145.101 93.3532 144.776 93.4599 144.328C93.5665 143.88 93.6785 143.267 93.7959 142.488L95.0119 142.712C94.9799 142.904 94.9425 143.139 94.8999 143.416C94.8572 143.693 94.8145 143.971 94.7719 144.248C94.7399 144.515 94.7239 144.739 94.7239 144.92C94.7239 145.069 94.7559 145.213 94.8199 145.352C94.8945 145.48 95.0332 145.581 95.2359 145.656C95.4492 145.731 95.7639 145.768 96.1799 145.768C96.4892 145.768 96.7559 145.731 96.9799 145.656C97.2145 145.581 97.3905 145.443 97.5079 145.24C97.6359 145.037 97.6999 144.755 97.6999 144.392C97.6999 143.987 97.6039 143.48 97.4119 142.872C97.2305 142.253 97.0225 141.64 96.7879 141.032L98.0839 140.552C98.2225 140.893 98.3505 141.283 98.4679 141.72C98.5959 142.157 98.7025 142.589 98.7879 143.016C98.8732 143.443 98.9159 143.816 98.9159 144.136C98.9159 144.627 98.8519 145.059 98.7239 145.432C98.5959 145.805 98.4145 146.115 98.1799 146.36C97.9452 146.595 97.6572 146.776 97.3159 146.904C96.9745 147.021 96.5905 147.08 96.1639 147.08C95.6625 147.08 95.2519 147.021 94.9319 146.904C94.6119 146.787 94.3665 146.611 94.1959 146.376C94.0252 146.131 93.9132 145.821 93.8599 145.448H94.4039C94.2012 145.907 93.9879 146.253 93.7639 146.488C93.5399 146.723 93.2625 146.883 92.9319 146.968C92.6012 147.043 92.1639 147.08 91.6199 147.08C91.3532 147.08 91.0652 147.037 90.7559 146.952C90.4572 146.867 90.1959 146.701 89.9719 146.456C89.7479 146.2 89.6145 145.821 89.5719 145.32L90.0519 145.224C89.8705 145.768 89.6465 146.173 89.3799 146.44C89.1239 146.696 88.8145 146.867 88.4519 146.952C88.0892 147.037 87.6625 147.08 87.1719 147.08ZM94.0679 138.28C93.8439 138.28 93.6519 138.205 93.4919 138.056C93.3425 137.896 93.2679 137.709 93.2679 137.496C93.2679 137.283 93.3425 137.096 93.4919 136.936C93.6519 136.776 93.8439 136.696 94.0679 136.696C94.2812 136.696 94.4625 136.776 94.6119 136.936C94.7719 137.096 94.8519 137.283 94.8519 137.496C94.8519 137.709 94.7719 137.896 94.6119 138.056C94.4625 138.205 94.2812 138.28 94.0679 138.28ZM92.9799 140.04C92.7559 140.04 92.5639 139.965 92.4039 139.816C92.2545 139.656 92.1799 139.469 92.1799 139.256C92.1799 139.043 92.2545 138.856 92.4039 138.696C92.5639 138.536 92.7559 138.456 92.9799 138.456C93.1932 138.456 93.3745 138.536 93.5239 138.696C93.6839 138.856 93.7639 139.043 93.7639 139.256C93.7639 139.469 93.6839 139.656 93.5239 139.816C93.3745 139.965 93.1932 140.04 92.9799 140.04ZM95.1559 140.04C94.9319 140.04 94.7399 139.965 94.5799 139.816C94.4305 139.656 94.3559 139.469 94.3559 139.256C94.3559 139.043 94.4305 138.856 94.5799 138.696C94.7399 138.536 94.9319 138.456 95.1559 138.456C95.3692 138.456 95.5505 138.536 95.6999 138.696C95.8599 138.856 95.9399 139.043 95.9399 139.256C95.9399 139.469 95.8599 139.656 95.6999 139.816C95.5505 139.965 95.3692 140.04 95.1559 140.04ZM110.995 147.08C110.419 147.08 109.907 147 109.459 146.84C109.021 146.669 108.669 146.387 108.403 145.992C108.147 145.587 108.003 145.027 107.971 144.312L107.715 138.744H109.011L109.267 144.024C109.299 144.525 109.389 144.904 109.539 145.16C109.688 145.405 109.896 145.571 110.163 145.656C110.44 145.731 110.771 145.768 111.155 145.768C111.379 145.768 111.539 145.832 111.635 145.96C111.741 146.077 111.795 146.221 111.795 146.392C111.795 146.563 111.72 146.723 111.571 146.872C111.421 147.011 111.229 147.08 110.995 147.08ZM108.579 145.32C107.971 145.512 107.379 145.608 106.803 145.608C106.227 145.608 105.704 145.523 105.235 145.352C104.765 145.181 104.392 144.936 104.115 144.616C103.837 144.285 103.699 143.891 103.699 143.432C103.699 142.984 103.811 142.563 104.035 142.168C104.269 141.773 104.584 141.421 104.979 141.112C105.384 140.803 105.848 140.547 106.371 140.344C106.904 140.131 107.469 139.987 108.067 139.912L108.291 141.256C107.757 141.277 107.283 141.352 106.867 141.48C106.461 141.597 106.115 141.752 105.827 141.944C105.549 142.136 105.336 142.344 105.187 142.568C105.037 142.792 104.963 143.011 104.963 143.224C104.963 143.459 105.048 143.651 105.219 143.8C105.389 143.949 105.608 144.067 105.875 144.152C106.141 144.227 106.435 144.275 106.755 144.296C107.075 144.307 107.384 144.296 107.683 144.264C107.981 144.221 108.237 144.163 108.451 144.088L108.579 145.32ZM111 147.08L111.16 145.768C111.459 145.768 111.693 145.704 111.864 145.576C112.045 145.448 112.216 145.235 112.376 144.936C112.547 144.637 112.76 144.237 113.016 143.736C113.272 143.224 113.528 142.808 113.784 142.488C114.051 142.157 114.307 141.901 114.552 141.72C114.808 141.528 115.048 141.395 115.272 141.32C115.496 141.245 115.704 141.208 115.896 141.208C116.248 141.208 116.563 141.288 116.84 141.448C117.117 141.597 117.379 141.859 117.624 142.232C117.869 142.595 118.12 143.096 118.376 143.736C118.621 144.323 118.84 144.765 119.032 145.064C119.235 145.352 119.443 145.544 119.656 145.64C119.88 145.725 120.131 145.768 120.408 145.768C120.632 145.768 120.792 145.832 120.888 145.96C120.995 146.077 121.048 146.221 121.048 146.392C121.048 146.563 120.973 146.723 120.824 146.872C120.675 147.011 120.483 147.08 120.248 147.08C119.832 147.08 119.448 147.011 119.096 146.872C118.755 146.733 118.467 146.515 118.232 146.216L118.456 145.88C118.339 146.211 118.179 146.483 117.976 146.696C117.784 146.899 117.565 147.048 117.32 147.144C117.075 147.251 116.813 147.304 116.536 147.304C116.184 147.304 115.821 147.229 115.448 147.08C115.085 146.931 114.733 146.717 114.392 146.44C114.051 146.163 113.752 145.837 113.496 145.464C113.219 145.955 112.952 146.317 112.696 146.552C112.451 146.776 112.195 146.92 111.928 146.984C111.661 147.048 111.352 147.08 111 147.08ZM114.104 144.248C114.285 144.547 114.477 144.808 114.68 145.032C114.893 145.256 115.107 145.443 115.32 145.592C115.533 145.731 115.741 145.837 115.944 145.912C116.157 145.976 116.349 146.008 116.52 146.008C116.893 146.008 117.165 145.875 117.336 145.608C117.517 145.341 117.512 144.968 117.32 144.488C117.224 144.243 117.123 144.003 117.016 143.768C116.92 143.533 116.813 143.32 116.696 143.128C116.579 142.925 116.445 142.771 116.296 142.664C116.147 142.547 115.981 142.488 115.8 142.488C115.64 142.488 115.469 142.541 115.288 142.648C115.117 142.755 114.931 142.936 114.728 143.192C114.536 143.448 114.328 143.8 114.104 144.248ZM126.41 147.128C125.973 147.128 125.525 147.069 125.066 146.952C124.607 146.824 124.165 146.648 123.738 146.424C123.322 146.2 122.943 145.928 122.602 145.608C122.271 145.277 122.005 144.909 121.802 144.504C121.61 144.099 121.514 143.661 121.514 143.192C121.514 142.712 121.61 142.269 121.802 141.864C122.005 141.459 122.287 141.133 122.65 140.888C123.023 140.632 123.455 140.504 123.946 140.504C124.426 140.504 124.837 140.637 125.178 140.904C125.519 141.16 125.781 141.496 125.962 141.912C126.154 142.317 126.25 142.744 126.25 143.192C126.25 143.811 126.074 144.365 125.722 144.856C125.381 145.336 124.917 145.741 124.33 146.072C123.743 146.403 123.098 146.653 122.394 146.824C121.69 146.995 120.975 147.08 120.25 147.08L120.41 145.768C120.986 145.768 121.498 145.731 121.946 145.656C122.405 145.571 122.799 145.459 123.13 145.32C123.621 145.128 124.005 144.899 124.282 144.632C124.57 144.355 124.773 144.072 124.89 143.784C125.007 143.496 125.066 143.235 125.066 143C125.066 142.776 125.018 142.563 124.922 142.36C124.837 142.147 124.709 141.976 124.538 141.848C124.378 141.709 124.181 141.64 123.946 141.64C123.711 141.64 123.498 141.709 123.306 141.848C123.125 141.976 122.981 142.147 122.874 142.36C122.767 142.573 122.714 142.797 122.714 143.032C122.714 143.48 122.826 143.88 123.05 144.232C123.285 144.573 123.583 144.867 123.946 145.112C124.319 145.357 124.714 145.544 125.13 145.672C125.557 145.8 125.962 145.864 126.346 145.864C126.709 145.864 126.975 145.805 127.146 145.688C127.317 145.56 127.402 145.352 127.402 145.064C127.402 145.011 127.386 144.915 127.354 144.776C127.333 144.627 127.247 144.424 127.098 144.168C126.959 143.912 126.719 143.597 126.378 143.224C126.037 142.84 125.557 142.387 124.938 141.864C124.319 141.331 123.519 140.712 122.538 140.008L123.29 139.016C124.314 139.763 125.157 140.424 125.818 141C126.49 141.565 127.018 142.061 127.402 142.488C127.797 142.904 128.085 143.272 128.266 143.592C128.458 143.901 128.581 144.179 128.634 144.424C128.687 144.659 128.714 144.883 128.714 145.096C128.714 145.448 128.634 145.779 128.474 146.088C128.325 146.397 128.079 146.648 127.738 146.84C127.407 147.032 126.965 147.128 126.41 147.128ZM133.418 147.016C133.418 146.76 133.439 146.488 133.482 146.2C133.535 145.901 133.61 145.587 133.706 145.256C133.812 144.915 133.94 144.557 134.09 144.184L135.242 144.632C135.135 144.931 135.039 145.213 134.954 145.48C134.879 145.747 134.82 145.997 134.778 146.232C134.746 146.467 134.73 146.691 134.73 146.904C134.73 147.32 134.815 147.683 134.986 147.992C135.167 148.301 135.418 148.557 135.738 148.76C136.058 148.973 136.431 149.133 136.858 149.24C137.284 149.347 137.743 149.4 138.234 149.4C139.002 149.4 139.674 149.315 140.25 149.144C140.826 148.984 141.306 148.776 141.69 148.52C142.074 148.264 142.356 147.997 142.538 147.72C142.73 147.443 142.826 147.197 142.826 146.984C142.826 146.835 142.735 146.701 142.554 146.584C142.372 146.467 142.138 146.355 141.85 146.248C141.562 146.141 141.258 146.029 140.938 145.912C140.618 145.784 140.314 145.635 140.026 145.464C139.738 145.293 139.503 145.091 139.322 144.856C139.14 144.611 139.05 144.323 139.05 143.992C139.05 143.555 139.156 143.123 139.37 142.696C139.594 142.259 139.892 141.859 140.266 141.496C140.65 141.133 141.076 140.845 141.546 140.632C142.015 140.408 142.5 140.296 143.002 140.296C143.45 140.296 143.834 140.36 144.154 140.488C144.474 140.605 144.703 140.717 144.842 140.824L144.314 141.96C144.132 141.875 143.93 141.795 143.706 141.72C143.482 141.645 143.247 141.608 143.002 141.608C142.692 141.608 142.378 141.672 142.058 141.8C141.748 141.928 141.46 142.099 141.194 142.312C140.938 142.525 140.73 142.76 140.57 143.016C140.41 143.272 140.33 143.528 140.33 143.784C140.33 143.965 140.42 144.131 140.602 144.28C140.794 144.429 141.039 144.568 141.338 144.696C141.636 144.824 141.951 144.957 142.282 145.096C142.623 145.224 142.943 145.368 143.242 145.528C143.54 145.677 143.78 145.853 143.962 146.056C144.154 146.259 144.25 146.499 144.25 146.776C144.25 147.171 144.116 147.597 143.85 148.056C143.583 148.515 143.188 148.941 142.666 149.336C142.143 149.741 141.503 150.072 140.746 150.328C139.999 150.584 139.135 150.712 138.154 150.712C137.482 150.712 136.858 150.637 136.282 150.488C135.716 150.339 135.215 150.109 134.778 149.8C134.351 149.501 134.015 149.117 133.77 148.648C133.535 148.189 133.418 147.645 133.418 147.016ZM146.566 147L146.246 135.576H147.542L147.862 147H146.566ZM148.564 150.712L148.1 149.496C148.879 149.24 149.524 148.947 150.036 148.616C150.559 148.285 150.969 147.933 151.268 147.56C151.577 147.187 151.796 146.808 151.924 146.424C152.052 146.029 152.116 145.651 152.116 145.288C152.116 144.765 151.999 144.237 151.764 143.704C151.54 143.16 151.289 142.648 151.012 142.168L152.18 141.576C152.383 141.949 152.559 142.317 152.708 142.68C152.868 143.043 153.007 143.384 153.124 143.704C153.252 144.024 153.353 144.317 153.428 144.584C153.577 145.043 153.769 145.357 154.004 145.528C154.249 145.688 154.58 145.768 154.996 145.768C155.22 145.768 155.38 145.832 155.476 145.96C155.583 146.077 155.636 146.221 155.636 146.392C155.636 146.563 155.561 146.723 155.412 146.872C155.263 147.011 155.071 147.08 154.836 147.08C154.367 147.08 153.983 147 153.684 146.84C153.396 146.669 153.177 146.451 153.028 146.184C152.879 145.907 152.777 145.619 152.724 145.32L153.236 145.608C153.236 146.312 153.076 146.952 152.756 147.528C152.447 148.115 152.047 148.621 151.556 149.048C151.065 149.485 150.553 149.843 150.02 150.12C149.487 150.397 149.001 150.595 148.564 150.712ZM154.844 147.08L155.004 145.768C155.526 145.768 155.942 145.736 156.252 145.672C156.561 145.608 156.785 145.48 156.924 145.288C157.062 145.085 157.132 144.787 157.132 144.392C157.132 144.125 157.089 143.811 157.004 143.448C156.918 143.075 156.806 142.68 156.668 142.264C156.529 141.848 156.38 141.437 156.22 141.032L157.516 140.552C157.654 140.893 157.782 141.283 157.9 141.72C158.028 142.157 158.134 142.589 158.22 143.016C158.305 143.443 158.348 143.816 158.348 144.136C158.348 144.563 158.3 144.941 158.204 145.272C158.118 145.592 157.985 145.869 157.804 146.104C157.622 146.328 157.388 146.515 157.1 146.664C156.822 146.803 156.497 146.909 156.124 146.984C155.75 147.048 155.324 147.08 154.844 147.08ZM156.556 150.056C156.332 150.056 156.14 149.976 155.98 149.816C155.83 149.667 155.756 149.485 155.756 149.272C155.756 149.059 155.83 148.872 155.98 148.712C156.14 148.552 156.332 148.472 156.556 148.472C156.769 148.472 156.95 148.552 157.1 148.712C157.26 148.872 157.34 149.059 157.34 149.272C157.34 149.485 157.26 149.667 157.1 149.816C156.95 149.976 156.769 150.056 156.556 150.056ZM163.121 147.016C163.121 146.76 163.142 146.488 163.185 146.2C163.238 145.901 163.313 145.587 163.409 145.256C163.515 144.915 163.643 144.557 163.793 144.184L164.945 144.632C164.838 144.931 164.742 145.213 164.657 145.48C164.582 145.747 164.523 145.997 164.481 146.232C164.449 146.467 164.433 146.691 164.433 146.904C164.433 147.352 164.529 147.731 164.721 148.04C164.923 148.36 165.201 148.621 165.553 148.824C165.905 149.027 166.305 149.176 166.753 149.272C167.211 149.368 167.697 149.416 168.209 149.416C168.827 149.416 169.403 149.363 169.937 149.256C170.481 149.149 170.955 148.995 171.361 148.792C171.777 148.6 172.102 148.376 172.337 148.12C172.571 147.875 172.689 147.608 172.689 147.32C172.689 147.181 172.635 147.053 172.529 146.936C172.422 146.819 172.262 146.707 172.049 146.6C171.835 146.493 171.579 146.392 171.281 146.296C170.982 146.189 170.641 146.083 170.257 145.976L170.561 144.648C171.115 144.861 171.606 145.043 172.033 145.192C172.459 145.331 172.833 145.443 173.153 145.528C173.473 145.613 173.75 145.677 173.985 145.72C174.219 145.752 174.417 145.768 174.577 145.768C174.801 145.768 174.961 145.832 175.057 145.96C175.163 146.077 175.217 146.221 175.217 146.392C175.217 146.563 175.142 146.723 174.993 146.872C174.843 147.011 174.651 147.08 174.417 147.08C174.353 147.08 174.289 147.08 174.225 147.08C174.161 147.08 174.091 147.08 174.017 147.08C173.953 147.08 173.889 147.08 173.825 147.08C173.846 147.176 173.862 147.251 173.873 147.304C173.883 147.368 173.889 147.448 173.889 147.544C173.889 147.939 173.75 148.323 173.473 148.696C173.206 149.069 172.811 149.405 172.289 149.704C171.766 150.013 171.131 150.259 170.385 150.44C169.649 150.621 168.806 150.712 167.857 150.712C167.014 150.712 166.23 150.573 165.505 150.296C164.79 150.029 164.214 149.624 163.777 149.08C163.339 148.536 163.121 147.848 163.121 147.016ZM174.422 147.08L174.582 145.768C174.881 145.768 175.131 145.704 175.334 145.576C175.537 145.448 175.734 145.235 175.926 144.936C176.118 144.637 176.326 144.237 176.55 143.736C176.859 143.053 177.163 142.536 177.462 142.184C177.771 141.832 178.075 141.592 178.374 141.464C178.683 141.336 178.987 141.272 179.286 141.272C179.649 141.272 179.985 141.368 180.294 141.56C180.603 141.741 180.875 141.987 181.11 142.296C181.345 142.605 181.526 142.947 181.654 143.32C181.793 143.683 181.862 144.045 181.862 144.408C181.862 145.048 181.75 145.56 181.526 145.944C181.302 146.317 181.014 146.589 180.662 146.76C180.321 146.92 179.963 147 179.59 147C179.259 147 178.833 146.936 178.31 146.808C177.798 146.68 177.147 146.355 176.358 145.832L176.982 144.824C177.505 145.155 177.974 145.384 178.39 145.512C178.817 145.629 179.169 145.688 179.446 145.688C179.755 145.688 180.001 145.645 180.182 145.56C180.363 145.464 180.497 145.331 180.582 145.16C180.667 144.989 180.71 144.797 180.71 144.584C180.71 144.275 180.635 143.965 180.486 143.656C180.337 143.347 180.145 143.091 179.91 142.888C179.686 142.685 179.446 142.584 179.19 142.584C178.998 142.584 178.811 142.637 178.63 142.744C178.449 142.851 178.262 143.048 178.07 143.336C177.878 143.624 177.659 144.04 177.414 144.584C177.158 145.16 176.913 145.619 176.678 145.96C176.454 146.291 176.225 146.536 175.99 146.696C175.755 146.856 175.51 146.957 175.254 147C175.009 147.053 174.731 147.08 174.422 147.08ZM182.252 150.712L181.787 149.496C182.566 149.24 183.212 148.947 183.724 148.616C184.246 148.285 184.657 147.933 184.956 147.56C185.265 147.187 185.484 146.808 185.612 146.424C185.74 146.029 185.804 145.651 185.804 145.288C185.804 144.765 185.686 144.237 185.452 143.704C185.228 143.16 184.977 142.648 184.7 142.168L185.868 141.576C186.07 141.949 186.246 142.317 186.396 142.68C186.556 143.043 186.694 143.384 186.812 143.704C186.94 144.024 187.041 144.317 187.116 144.584C187.265 145.043 187.457 145.357 187.692 145.528C187.937 145.688 188.268 145.768 188.684 145.768C188.908 145.768 189.068 145.832 189.164 145.96C189.27 146.077 189.324 146.221 189.324 146.392C189.324 146.563 189.249 146.723 189.1 146.872C188.95 147.011 188.758 147.08 188.524 147.08C188.054 147.08 187.67 147 187.372 146.84C187.084 146.669 186.865 146.451 186.716 146.184C186.566 145.907 186.465 145.619 186.411 145.32L186.924 145.608C186.924 146.312 186.764 146.952 186.444 147.528C186.134 148.115 185.734 148.621 185.244 149.048C184.753 149.485 184.241 149.843 183.708 150.12C183.174 150.397 182.689 150.595 182.252 150.712ZM188.531 147.08L188.691 145.768C188.958 145.768 189.23 145.768 189.507 145.768C189.795 145.757 190.078 145.741 190.355 145.72C190.633 145.699 190.899 145.672 191.155 145.64C191.411 145.608 191.641 145.56 191.843 145.496C192.217 145.379 192.558 145.224 192.867 145.032C193.187 144.84 193.443 144.605 193.635 144.328C193.838 144.051 193.939 143.731 193.939 143.368C193.939 143.123 193.881 142.872 193.763 142.616C193.646 142.349 193.486 142.125 193.283 141.944C193.081 141.763 192.846 141.672 192.579 141.672C192.323 141.672 192.083 141.757 191.859 141.928C191.646 142.099 191.47 142.323 191.331 142.6C191.203 142.867 191.139 143.144 191.139 143.432C191.139 143.773 191.225 144.083 191.395 144.36C191.577 144.627 191.795 144.856 192.051 145.048C192.307 145.24 192.563 145.395 192.819 145.512L191.299 145.96C191.129 145.832 190.926 145.656 190.691 145.432C190.467 145.197 190.265 144.909 190.083 144.568C189.913 144.227 189.827 143.837 189.827 143.4C189.827 142.973 189.902 142.579 190.051 142.216C190.211 141.843 190.419 141.517 190.675 141.24C190.942 140.963 191.241 140.749 191.571 140.6C191.913 140.44 192.265 140.36 192.627 140.36C193.15 140.36 193.609 140.504 194.003 140.792C194.398 141.08 194.702 141.448 194.915 141.896C195.139 142.333 195.251 142.792 195.251 143.272C195.251 143.731 195.166 144.147 194.995 144.52C194.825 144.883 194.59 145.208 194.291 145.496C194.003 145.784 193.662 146.029 193.267 146.232C192.883 146.435 192.473 146.6 192.035 146.728C191.79 146.803 191.523 146.861 191.235 146.904C190.958 146.947 190.665 146.979 190.355 147C190.046 147.032 189.737 147.053 189.427 147.064C189.118 147.075 188.819 147.08 188.531 147.08ZM196.451 147.08C195.918 147.08 195.363 147.048 194.787 146.984C194.222 146.909 193.683 146.819 193.171 146.712C192.67 146.595 192.254 146.467 191.923 146.328L193.027 145.528C193.347 145.571 193.726 145.613 194.163 145.656C194.601 145.688 195.038 145.715 195.475 145.736C195.913 145.757 196.291 145.768 196.611 145.768C196.835 145.768 196.995 145.832 197.091 145.96C197.198 146.077 197.251 146.221 197.251 146.392C197.251 146.563 197.177 146.723 197.027 146.872C196.878 147.011 196.686 147.08 196.451 147.08ZM192.483 138.712C192.259 138.712 192.067 138.637 191.907 138.488C191.758 138.328 191.683 138.141 191.683 137.928C191.683 137.715 191.758 137.528 191.907 137.368C192.067 137.208 192.259 137.128 192.483 137.128C192.697 137.128 192.878 137.208 193.027 137.368C193.187 137.528 193.267 137.715 193.267 137.928C193.267 138.141 193.187 138.328 193.027 138.488C192.878 138.637 192.697 138.712 192.483 138.712ZM196.453 147.08L196.613 145.768C197.146 145.768 197.562 145.731 197.861 145.656C198.16 145.571 198.384 145.416 198.533 145.192C198.693 144.957 198.821 144.621 198.917 144.184C199.013 143.747 199.13 143.176 199.269 142.472L200.517 142.712C200.474 142.904 200.426 143.117 200.373 143.352C200.32 143.587 200.272 143.821 200.229 144.056C200.197 144.28 200.181 144.477 200.181 144.648C200.181 144.808 200.192 144.957 200.213 145.096C200.234 145.235 200.314 145.352 200.453 145.448C200.592 145.544 200.826 145.624 201.157 145.688C201.488 145.741 201.962 145.768 202.581 145.768C202.805 145.768 202.965 145.832 203.061 145.96C203.168 146.077 203.221 146.221 203.221 146.392C203.221 146.563 203.146 146.723 202.997 146.872C202.848 147.011 202.656 147.08 202.421 147.08C201.77 147.08 201.253 147.048 200.869 146.984C200.485 146.909 200.192 146.803 199.989 146.664C199.797 146.525 199.658 146.355 199.573 146.152C199.498 145.939 199.44 145.693 199.397 145.416L199.877 145.448C199.706 145.789 199.52 146.067 199.317 146.28C199.125 146.493 198.901 146.659 198.645 146.776C198.389 146.893 198.08 146.973 197.717 147.016C197.365 147.059 196.944 147.08 196.453 147.08ZM200.725 140.824C200.501 140.824 200.309 140.749 200.149 140.6C200 140.44 199.925 140.253 199.925 140.04C199.925 139.827 200 139.64 200.149 139.48C200.309 139.32 200.501 139.24 200.725 139.24C200.938 139.24 201.12 139.32 201.269 139.48C201.429 139.64 201.509 139.827 201.509 140.04C201.509 140.253 201.429 140.44 201.269 140.6C201.12 140.749 200.938 140.824 200.725 140.824ZM198.533 140.824C198.309 140.824 198.117 140.749 197.957 140.6C197.808 140.44 197.733 140.253 197.733 140.04C197.733 139.827 197.808 139.64 197.957 139.48C198.117 139.32 198.309 139.24 198.533 139.24C198.746 139.24 198.928 139.32 199.077 139.48C199.237 139.64 199.317 139.827 199.317 140.04C199.317 140.253 199.237 140.44 199.077 140.6C198.928 140.749 198.746 140.824 198.533 140.824ZM202.422 147.08L202.566 145.768C203.174 145.768 203.601 145.709 203.846 145.592C204.091 145.475 204.23 145.267 204.262 144.968C204.305 144.669 204.315 144.253 204.294 143.72L204.022 135.576H205.35L205.606 143.688C205.627 144.232 205.713 144.659 205.862 144.968C206.022 145.267 206.235 145.475 206.502 145.592C206.769 145.709 207.062 145.768 207.382 145.768C207.606 145.768 207.766 145.832 207.862 145.96C207.969 146.077 208.022 146.221 208.022 146.392C208.022 146.563 207.947 146.723 207.798 146.872C207.649 147.011 207.457 147.08 207.222 147.08C206.774 147.08 206.401 147.011 206.102 146.872C205.814 146.723 205.585 146.536 205.414 146.312C205.254 146.077 205.147 145.832 205.094 145.576L205.43 145.608C205.323 145.928 205.147 146.2 204.902 146.424C204.667 146.637 204.347 146.803 203.942 146.92C203.537 147.027 203.03 147.08 202.422 147.08ZM207.219 147.08L207.379 145.768C208.008 145.768 208.499 145.747 208.851 145.704C209.203 145.651 209.453 145.528 209.603 145.336C209.752 145.133 209.827 144.819 209.827 144.392C209.827 144.125 209.784 143.811 209.699 143.448C209.613 143.075 209.501 142.68 209.363 142.264C209.224 141.848 209.075 141.437 208.915 141.032L210.211 140.552C210.349 140.893 210.477 141.283 210.595 141.72C210.723 142.157 210.829 142.589 210.915 143.016C211 143.443 211.043 143.816 211.043 144.136C211.043 144.669 210.968 145.123 210.819 145.496C210.68 145.869 210.456 146.173 210.147 146.408C209.837 146.643 209.437 146.813 208.947 146.92C208.467 147.027 207.891 147.08 207.219 147.08ZM209.011 151.88C208.797 151.88 208.611 151.8 208.451 151.64C208.301 151.48 208.227 151.293 208.227 151.08C208.227 150.867 208.301 150.68 208.451 150.52C208.611 150.371 208.797 150.296 209.011 150.296C209.235 150.296 209.421 150.371 209.571 150.52C209.731 150.68 209.811 150.867 209.811 151.08C209.811 151.293 209.731 151.48 209.571 151.64C209.421 151.8 209.235 151.88 209.011 151.88ZM210.099 150.12C209.885 150.12 209.699 150.04 209.539 149.88C209.389 149.72 209.315 149.533 209.315 149.32C209.315 149.107 209.389 148.92 209.539 148.76C209.699 148.611 209.885 148.536 210.099 148.536C210.323 148.536 210.509 148.611 210.659 148.76C210.819 148.92 210.899 149.107 210.899 149.32C210.899 149.533 210.819 149.72 210.659 149.88C210.509 150.04 210.323 150.12 210.099 150.12ZM207.923 150.12C207.709 150.12 207.523 150.04 207.363 149.88C207.213 149.72 207.139 149.533 207.139 149.32C207.139 149.107 207.213 148.92 207.363 148.76C207.523 148.611 207.709 148.536 207.923 148.536C208.147 148.536 208.333 148.611 208.483 148.76C208.643 148.92 208.723 149.107 208.723 149.32C208.723 149.533 208.643 149.72 208.483 149.88C208.333 150.04 208.147 150.12 207.923 150.12Z" fill="#194775"/>
<path d="M65.8997 95C64.4624 95 63.1717 94.7507 62.0277 94.252C60.8837 93.7533 59.9744 92.9907 59.2997 91.964C58.6544 90.9373 58.3317 89.632 58.3317 88.048C58.3317 86.7867 58.8157 85.2173 59.7837 83.34C60.7517 81.4333 62.4384 79.424 64.8437 77.312L65.6797 79.688L62.6877 77.004L64.9757 74.276C66.5011 75.4787 67.9091 76.7693 69.1997 78.148C70.4904 79.5267 71.5317 80.9933 72.3237 82.548C73.1157 84.1027 73.5117 85.7453 73.5117 87.476C73.5117 88.1507 73.3944 88.9133 73.1597 89.764C72.9251 90.6147 72.5291 91.4507 71.9717 92.272C71.4144 93.064 70.6371 93.724 69.6397 94.252C68.6424 94.7507 67.3957 95 65.8997 95ZM65.8997 91.392C66.8971 91.392 67.7184 91.2307 68.3637 90.908C69.0384 90.556 69.5371 90.072 69.8597 89.456C70.2117 88.84 70.3877 88.1213 70.3877 87.3C70.3877 86.5667 70.2557 85.804 69.9917 85.012C69.7571 84.1907 69.2584 83.3107 68.4957 82.372C67.7624 81.404 66.6331 80.3187 65.1077 79.116L67.0437 79.028C65.9584 79.9667 65.0197 80.964 64.2277 82.02C63.4357 83.0467 62.8344 84.0587 62.4237 85.056C62.0131 86.024 61.8077 86.904 61.8077 87.696C61.8077 88.928 62.1891 89.852 62.9517 90.468C63.7437 91.084 64.7264 91.392 65.8997 91.392ZM76.3838 93.02L78.1438 89.984C78.7304 90.3653 79.5518 90.732 80.6078 91.084C81.6638 91.436 82.8958 91.612 84.3038 91.612C85.7704 91.612 86.9291 91.4653 87.7797 91.172C88.6598 90.8787 89.2904 90.4533 89.6718 89.896C90.0824 89.3093 90.2878 88.6347 90.2878 87.872C90.2878 87.2853 90.1558 86.5667 89.8918 85.716C89.6571 84.836 89.1291 83.6627 88.3078 82.196C87.4864 80.7 86.2251 78.7493 84.5238 76.344L87.5598 74.364C89.1144 76.5053 90.3464 78.4413 91.2558 80.172C92.1944 81.9027 92.8544 83.428 93.2358 84.748C93.6464 86.0387 93.8518 87.1533 93.8518 88.092C93.8518 89.2653 93.5584 90.4093 92.9718 91.524C92.3851 92.6093 91.4024 93.504 90.0238 94.208C88.6451 94.912 86.7384 95.264 84.3038 95.264C83.2478 95.264 82.2211 95.176 81.2238 95C80.2558 94.824 79.3611 94.5747 78.5398 94.252C77.7184 93.9 76.9998 93.4893 76.3838 93.02ZM99.8605 95L98.9805 63.584H102.545L103.425 95H99.8605ZM107.837 93.02L109.597 89.984C110.184 90.3653 111.005 90.732 112.061 91.084C113.117 91.436 114.349 91.612 115.757 91.612C117.224 91.612 118.382 91.4653 119.233 91.172C120.113 90.8787 120.744 90.4533 121.125 89.896C121.536 89.3093 121.741 88.6347 121.741 87.872C121.741 87.2853 121.609 86.5667 121.345 85.716C121.11 84.836 120.582 83.6627 119.761 82.196C118.94 80.7 117.678 78.7493 115.977 76.344L119.013 74.364C120.568 76.5053 121.8 78.4413 122.709 80.172C123.648 81.9027 124.308 83.428 124.689 84.748C125.1 86.0387 125.305 87.1533 125.305 88.092C125.305 89.2653 125.012 90.4093 124.425 91.524C123.838 92.6093 122.856 93.504 121.477 94.208C120.098 94.912 118.192 95.264 115.757 95.264C114.701 95.264 113.674 95.176 112.677 95C111.709 94.824 110.814 94.5747 109.993 94.252C109.172 93.9 108.453 93.4893 107.837 93.02ZM144.426 95.924L145.57 92.316C149.002 92.316 151.95 92.228 154.414 92.052C156.907 91.876 158.946 91.5973 160.53 91.216C162.143 90.8053 163.331 90.2627 164.094 89.588C164.886 88.884 165.282 88.0333 165.282 87.036C165.282 85.9213 165.076 84.6307 164.666 83.164C164.255 81.6973 163.727 80.128 163.082 78.456L166.47 77.268C166.851 78.2067 167.203 79.2187 167.526 80.304C167.878 81.36 168.171 82.416 168.406 83.472C168.64 84.4987 168.758 85.452 168.758 86.332C168.758 88.0627 168.362 89.544 167.57 90.776C166.778 91.9787 165.458 92.9613 163.61 93.724C161.762 94.4867 159.268 95.044 156.13 95.396C153.02 95.748 149.119 95.924 144.426 95.924ZM144.426 95.924C141.815 95.924 139.512 95.748 137.518 95.396C135.552 95.0733 133.91 94.56 132.59 93.856C131.27 93.152 130.272 92.2427 129.598 91.128C128.923 89.984 128.586 88.6053 128.586 86.992C128.586 86.2587 128.644 85.5107 128.762 84.748C128.879 83.956 129.026 83.164 129.202 82.372C129.407 81.58 129.612 80.8173 129.818 80.084L133.118 80.92C133 81.36 132.868 81.888 132.722 82.504C132.575 83.0907 132.443 83.692 132.326 84.308C132.238 84.924 132.194 85.4813 132.194 85.98C132.194 87.5053 132.575 88.7373 133.338 89.676C134.13 90.5853 135.494 91.26 137.43 91.7C139.366 92.1107 142.079 92.316 145.57 92.316L146.45 94.516L144.426 95.924ZM151.774 77.356C151.158 77.356 150.63 77.1507 150.19 76.74C149.779 76.3 149.574 75.7867 149.574 75.2C149.574 74.6133 149.779 74.1 150.19 73.66C150.63 73.22 151.158 73 151.774 73C152.36 73 152.859 73.22 153.27 73.66C153.71 74.1 153.93 74.6133 153.93 75.2C153.93 75.7867 153.71 76.3 153.27 76.74C152.859 77.1507 152.36 77.356 151.774 77.356ZM145.746 77.356C145.13 77.356 144.602 77.1507 144.162 76.74C143.751 76.3 143.546 75.7867 143.546 75.2C143.546 74.6133 143.751 74.1 144.162 73.66C144.602 73.22 145.13 73 145.746 73C146.332 73 146.831 73.22 147.242 73.66C147.682 74.1 147.902 74.6133 147.902 75.2C147.902 75.7867 147.682 76.3 147.242 76.74C146.831 77.1507 146.332 77.356 145.746 77.356ZM183.769 95.22C181.422 95.22 179.618 94.956 178.357 94.428C177.125 93.9 176.274 93.0787 175.805 91.964C175.336 90.8493 175.072 89.412 175.013 87.652L174.133 63.584H177.741L178.621 86.244C178.68 87.6813 178.812 88.796 179.017 89.588C179.252 90.3507 179.75 90.8787 180.513 91.172C181.305 91.4653 182.537 91.612 184.209 91.612C184.825 91.612 185.265 91.788 185.529 92.14C185.822 92.4627 185.969 92.8587 185.969 93.328C185.969 93.7973 185.764 94.2373 185.353 94.648C184.942 95.0293 184.414 95.22 183.769 95.22ZM183.77 95.22L184.21 91.612C185.442 91.612 186.41 91.5093 187.114 91.304C187.818 91.0693 188.346 90.644 188.698 90.028C189.079 89.3827 189.402 88.4587 189.666 87.256C189.93 86.0533 190.252 84.484 190.634 82.548L194.066 83.208C193.948 83.736 193.816 84.3227 193.67 84.968C193.523 85.6133 193.391 86.2587 193.274 86.904C193.186 87.52 193.142 88.0627 193.142 88.532C193.142 89.1187 193.274 89.6467 193.538 90.116C193.802 90.5853 194.374 90.952 195.254 91.216C196.134 91.48 197.483 91.612 199.302 91.612C199.918 91.612 200.358 91.788 200.622 92.14C200.915 92.4627 201.062 92.8587 201.062 93.328C201.062 93.7973 200.856 94.2373 200.446 94.648C200.035 95.0293 199.507 95.22 198.862 95.22C196.955 95.22 195.459 95.0587 194.374 94.736C193.288 94.384 192.496 93.8707 191.998 93.196C191.499 92.492 191.162 91.6413 190.986 90.644L192.306 90.732C191.836 91.6707 191.323 92.4333 190.766 93.02C190.238 93.6067 189.651 94.0613 189.006 94.384C188.36 94.7067 187.612 94.9267 186.762 95.044C185.911 95.1613 184.914 95.22 183.77 95.22ZM191.25 103.404C190.634 103.404 190.106 103.184 189.666 102.744C189.255 102.333 189.05 101.835 189.05 101.248C189.05 100.661 189.255 100.148 189.666 99.708C190.106 99.268 190.634 99.048 191.25 99.048C191.836 99.048 192.335 99.268 192.746 99.708C193.186 100.148 193.406 100.661 193.406 101.248C193.406 101.835 193.186 102.333 192.746 102.744C192.335 103.184 191.836 103.404 191.25 103.404ZM198.852 95.22L199.292 91.612C201.022 91.612 202.372 91.5533 203.34 91.436C204.308 91.2893 204.997 90.952 205.408 90.424C205.818 89.8667 206.024 89.0013 206.024 87.828C206.024 87.0947 205.906 86.2293 205.672 85.232C205.437 84.2053 205.129 83.12 204.748 81.976C204.366 80.832 203.956 79.7027 203.516 78.588L207.08 77.268C207.461 78.2067 207.813 79.2773 208.136 80.48C208.488 81.6827 208.781 82.8707 209.016 84.044C209.25 85.2173 209.368 86.244 209.368 87.124C209.368 88.5907 209.162 89.8373 208.752 90.864C208.37 91.8907 207.754 92.7267 206.904 93.372C206.053 94.0173 204.953 94.4867 203.604 94.78C202.284 95.0733 200.7 95.22 198.852 95.22ZM205.452 67.852C204.836 67.852 204.308 67.6467 203.868 67.236C203.457 66.796 203.252 66.2827 203.252 65.696C203.252 65.1093 203.457 64.596 203.868 64.156C204.308 63.716 204.836 63.496 205.452 63.496C206.038 63.496 206.537 63.716 206.948 64.156C207.388 64.596 207.608 65.1093 207.608 65.696C207.608 66.2827 207.388 66.796 206.948 67.236C206.537 67.6467 206.038 67.852 205.452 67.852ZM202.46 72.692C201.844 72.692 201.316 72.4867 200.876 72.076C200.465 71.636 200.26 71.1227 200.26 70.536C200.26 69.9493 200.465 69.436 200.876 68.996C201.316 68.556 201.844 68.336 202.46 68.336C203.046 68.336 203.545 68.556 203.956 68.996C204.396 69.436 204.616 69.9493 204.616 70.536C204.616 71.1227 204.396 71.636 203.956 72.076C203.545 72.4867 203.046 72.692 202.46 72.692ZM208.444 72.692C207.828 72.692 207.3 72.4867 206.86 72.076C206.449 71.636 206.244 71.1227 206.244 70.536C206.244 69.9493 206.449 69.436 206.86 68.996C207.3 68.556 207.828 68.336 208.444 68.336C209.03 68.336 209.529 68.556 209.94 68.996C210.38 69.436 210.6 69.9493 210.6 70.536C210.6 71.1227 210.38 71.636 209.94 72.076C209.529 72.4867 209.03 72.692 208.444 72.692Z" fill="#003366"/>
<defs>
<filter id="filter0_d_0_1" x="0" y="0" width="246" height="239.07" filterUnits="userSpaceOnUse" color-interpolation-filters="sRGB">
<feFlood flood-opacity="0" result="BackgroundImageFix"/>
<feColorMatrix in="SourceAlpha" type="matrix" values="0 0 0 0 0 0 0 0 0 0 0 0 0 0 0 0 0 0 127 0" result="hardAlpha"/>
<feOffset dx="-6" dy="8"/>
<feGaussianBlur stdDeviation="8"/>
<feComposite in2="hardAlpha" operator="out"/>
<feColorMatrix type="matrix" values="0 0 0 0 0.0443643 0 0 0 0 0.154801 0 0 0 0 0.154801 0 0 0 1 0"/>
<feBlend mode="normal" in2="BackgroundImageFix" result="effect1_dropShadow_0_1"/>
<feBlend mode="normal" in="SourceGraphic" in2="effect1_dropShadow_0_1" result="shape"/>
</filter>
<clipPath id="clip0_0_1">
<rect width="139" height="142.089" fill="white" transform="translate(42 14)"/>
</clipPath>
</defs>
</svg>
