<svg width="69" height="77" viewBox="0 0 69 77" fill="none" xmlns="http://www.w3.org/2000/svg">
<g opacity="0.5">
<path d="M13.2825 42.7482C13.2715 43.0625 13.0624 43.3009 12.8314 43.2901L10.5756 43.1817C10.3446 43.1709 10.1575 42.9107 10.1795 42.5856L10.2675 40.7972C10.2785 40.4828 10.4876 40.2335 10.7297 40.2552L12.9854 40.3636C13.2165 40.3745 13.3925 40.6346 13.3815 40.9489L13.2825 42.7482Z" fill="#ABC3F5"/>
<path d="M12.3804 60.1667C12.3914 59.8524 12.2153 59.5922 11.9843 59.5814L9.72853 59.473C9.49746 59.4622 9.28839 59.7006 9.27739 60.015L9.18936 61.8034C9.16735 62.1177 9.34341 62.3778 9.58549 62.3887L11.8412 62.497C12.0723 62.5079 12.2814 62.2694 12.2924 61.9551L12.3804 60.1667Z" fill="#ABC3F5"/>
<path d="M8.62903 42.9216C8.77208 43.2034 8.72806 43.5178 8.50799 43.6153L6.49434 44.6342C6.28527 44.7426 5.99918 44.6017 5.85613 44.3199L5.03086 42.7265C4.88782 42.4447 4.94284 42.1304 5.1519 42.0328L7.16555 41.0248C7.37462 40.9164 7.66072 41.0574 7.80376 41.3392L8.62903 42.9216Z" fill="#ABC3F5"/>
<path d="M16.6941 58.4544C16.5511 58.1726 16.265 58.0317 16.0559 58.1401L14.0533 59.1589C13.8442 59.2673 13.7892 59.5816 13.9322 59.8526L14.7575 61.4459C14.9005 61.7277 15.1976 61.8686 15.4067 61.7602L17.4204 60.7522C17.6294 60.6438 17.6844 60.3295 17.5304 60.0477L16.6941 58.4544Z" fill="#ABC3F5"/>
<path d="M4.68888 45.3607C4.95296 45.5341 5.074 45.8268 4.94196 46.0219L3.70956 47.8861C3.57752 48.0812 3.25842 48.1029 2.99433 47.9295L1.47584 46.954C1.21175 46.7806 1.09071 46.4879 1.22276 46.2928L2.44415 44.4285C2.56519 44.2334 2.8953 44.2117 3.15938 44.3852L4.68888 45.3607Z" fill="#ABC3F5"/>
<path d="M19.5548 54.8344C19.2907 54.661 18.9606 54.6826 18.8396 54.8777L17.6182 56.742C17.4861 56.9371 17.5962 57.2298 17.8713 57.4032L19.4008 58.3787C19.6649 58.5521 19.995 58.5304 20.116 58.3353L21.3374 56.4711C21.4694 56.276 21.3594 55.9833 21.0843 55.8099L19.5548 54.8344Z" fill="#ABC3F5"/>
<path d="M2.52115 49.4147C2.84025 49.4364 3.09333 49.6315 3.08233 49.8591L2.96129 52.0811C2.95029 52.3087 2.68621 52.4821 2.3671 52.4713L0.551512 52.3846C0.232409 52.3629 -0.020673 52.1678 0.00133412 51.9293L0.111368 49.7182C0.122372 49.4798 0.397464 49.3063 0.716567 49.328L2.52115 49.4147Z" fill="#ABC3F5"/>
<path d="M20.1931 50.2915C19.874 50.2807 19.5989 50.4541 19.5879 50.6817L19.4779 52.9037C19.4669 53.1313 19.709 53.3372 20.0391 53.348L21.8547 53.4348C22.1738 53.4564 22.4379 53.2722 22.4489 53.0446L22.5699 50.8226C22.5809 50.595 22.3278 50.389 22.0087 50.3782L20.1931 50.2915Z" fill="#ABC3F5"/>
<path d="M2.6859 53.9887C2.972 53.8478 3.2801 53.9019 3.39013 54.1079L4.41346 56.0914C4.5235 56.2973 4.38045 56.5791 4.09436 56.7201L2.47684 57.533C2.19074 57.6739 1.88264 57.6197 1.7616 57.4137L0.738272 55.4302C0.628236 55.2243 0.771284 54.9425 1.05738 54.8016L2.6859 53.9887Z" fill="#ABC3F5"/>
<path d="M18.4539 46.0546C18.1678 46.1955 18.0247 46.4773 18.1348 46.6832L19.1581 48.6559C19.2681 48.8619 19.5762 48.9161 19.8623 48.7751L21.4798 47.9622C21.7659 47.8213 21.909 47.5395 21.7989 47.3336L20.7756 45.3501C20.6656 45.1441 20.3465 45.0899 20.0714 45.2308L18.4539 46.0546Z" fill="#ABC3F5"/>
<path d="M5.16243 57.8679C5.33849 57.6078 5.63558 57.4994 5.83365 57.6186L7.72626 58.8217C7.92433 58.9518 7.94634 59.2661 7.77028 59.5371L6.77996 61.0437C6.6039 61.3038 6.3068 61.4231 6.10874 61.293L4.21613 60.0899C4.01806 59.9598 3.99606 59.6455 4.17211 59.3854L5.16243 57.8679Z" fill="#ABC3F5"/>
<path d="M14.7786 43.2366C14.6025 43.4968 14.6245 43.8111 14.8226 43.9412L16.7152 45.1443C16.9132 45.2744 17.2103 45.1551 17.3864 44.895L18.3767 43.3884C18.5528 43.1282 18.5308 42.8031 18.3327 42.6838L16.4401 41.4807C16.242 41.3507 15.9449 41.4699 15.7689 41.73L14.7786 43.2366Z" fill="#ABC3F5"/>
<path d="M11.764 42.0335C6.5153 41.7734 2.04785 45.7513 1.78376 50.9106C1.51968 56.0808 5.54699 60.4814 10.7957 60.7415C16.0444 61.0016 20.5008 57.0238 20.7759 51.8644C21.04 46.6943 17.0017 42.2937 11.764 42.0335ZM10.9607 57.544C7.50562 57.3706 4.85376 54.4766 5.02982 51.0732C5.20587 47.6698 8.14383 45.0576 11.5989 45.231C15.0541 45.4045 17.7059 48.2984 17.5299 51.7019C17.3538 55.0944 14.4159 57.7175 10.9607 57.544Z" fill="#768296"/>
<path d="M18.4534 39.4201C18.4424 39.6477 18.2884 39.832 18.1233 39.8212L16.4618 39.7344C16.2857 39.7236 16.1537 39.5285 16.1647 39.3009L16.2307 37.9894C16.2417 37.7618 16.3958 37.5775 16.5718 37.5883L18.2224 37.675C18.3984 37.6859 18.5305 37.881 18.5195 38.1086L18.4534 39.4201Z" fill="#1C4670"/>
<path d="M17.7929 52.2316C17.8039 51.9932 17.6719 51.7981 17.5068 51.7981L15.8453 51.7114C15.6692 51.7006 15.5262 51.8848 15.5042 52.1124L15.4381 53.4239C15.4271 53.6515 15.5592 53.8466 15.7352 53.8575L17.3968 53.9334C17.5728 53.9442 17.7159 53.7599 17.7269 53.5323L17.7929 52.2316Z" fill="#1C4670"/>
<path d="M15.0321 39.5385C15.1421 39.7445 15.0981 39.9721 14.944 40.048L13.4696 40.7959C13.3155 40.8717 13.1064 40.7742 12.9964 40.5683L12.3912 39.3976C12.2812 39.1917 12.3252 38.9641 12.4792 38.8882L13.9537 38.1512C14.1078 38.0645 14.3168 38.1728 14.4269 38.3788L15.0321 39.5385Z" fill="#1C4670"/>
<path d="M20.962 50.9647C20.852 50.7588 20.6429 50.6504 20.4889 50.7371L19.0144 51.485C18.8603 51.5608 18.8163 51.7993 18.9264 51.9944L19.5316 53.165C19.6416 53.3709 19.8507 53.4793 20.0047 53.3926L21.4792 52.6447C21.6332 52.5689 21.6772 52.3412 21.5672 52.1353L20.962 50.9647Z" fill="#1C4670"/>
<path d="M12.1367 41.3384C12.3347 41.4576 12.4118 41.6852 12.3237 41.8261L11.4214 43.2026C11.3224 43.3436 11.0913 43.3652 10.8933 43.2352L9.77091 42.5198C9.57285 42.3897 9.48482 42.1729 9.58385 42.032L10.4861 40.6555C10.5742 40.5146 10.8162 40.5038 11.0143 40.623L12.1367 41.3384Z" fill="#1C4670"/>
<path d="M23.0641 48.2973C22.8661 48.1672 22.635 48.1889 22.5359 48.3298L21.6337 49.7063C21.5346 49.8473 21.6227 50.064 21.8207 50.1941L22.9431 50.9095C23.1411 51.0395 23.3832 51.0178 23.4713 50.8769L24.3735 49.5004C24.4726 49.3595 24.3845 49.1427 24.1865 49.0126L23.0641 48.2973Z" fill="#1C4670"/>
<path d="M10.531 44.3085C10.773 44.3193 10.9491 44.4711 10.9381 44.6337L10.8501 46.2703C10.8391 46.4438 10.641 46.5738 10.4099 46.563L9.07849 46.498C8.84742 46.4871 8.66036 46.3354 8.67136 46.162L8.75939 44.5361C8.77039 44.3627 8.96846 44.2326 9.19953 44.2543L10.531 44.3085Z" fill="#1C4670"/>
<path d="M23.5482 44.9694C23.3171 44.9585 23.119 45.0886 23.108 45.2512L23.02 46.8879C23.009 47.0613 23.1961 47.213 23.4271 47.2239L24.7586 47.2889C24.9896 47.2997 25.1877 47.1697 25.1987 46.9962L25.2867 45.3704C25.2977 45.197 25.1107 45.0561 24.8796 45.0344L23.5482 44.9694Z" fill="#1C4670"/>
<path d="M10.6632 47.6794C10.8723 47.571 11.1034 47.6143 11.1804 47.7661L11.9397 49.2185C12.0167 49.3702 11.9176 49.5762 11.7086 49.6846L10.5202 50.2807C10.3111 50.3891 10.0801 50.3457 10.003 50.194L9.24378 48.7415C9.16676 48.5898 9.26579 48.3839 9.47486 48.2755L10.6632 47.6794Z" fill="#1C4670"/>
<path d="M22.2606 41.8371C22.0516 41.9455 21.9415 42.1515 22.0296 42.3032L22.7778 43.7556C22.8548 43.9074 23.0859 43.9399 23.306 43.8423L24.4944 43.2462C24.7034 43.1378 24.8135 42.9319 24.7254 42.7801L23.9662 41.3277C23.8892 41.176 23.6581 41.1435 23.449 41.241L22.2606 41.8371Z" fill="#1C4670"/>
<path d="M12.4784 50.5401C12.6104 50.345 12.8305 50.2692 12.9736 50.3559L14.371 51.2446C14.5141 51.3422 14.5361 51.5698 14.404 51.7649L13.6778 52.8705C13.5457 53.0656 13.3257 53.1415 13.1826 53.0547L11.7852 52.1659C11.6421 52.0684 11.6311 51.8408 11.7522 51.6457L12.4784 50.5401Z" fill="#1C4670"/>
<path d="M19.5529 39.7668C19.4319 39.9619 19.4429 40.1895 19.586 40.2871L20.9834 41.1759C21.1265 41.2734 21.3465 41.1867 21.4786 40.9916L22.2048 39.886C22.3258 39.6909 22.3148 39.4633 22.1718 39.3658L20.7743 38.477C20.6313 38.3902 20.4112 38.4661 20.2792 38.6612L19.5529 39.7668Z" fill="#1C4670"/>
<path d="M17.3321 38.8784C13.4699 38.6833 10.1908 41.6098 9.99275 45.4142C9.79469 49.2187 12.7656 52.4486 16.6279 52.6437C20.4902 52.8388 23.7692 49.9123 23.9673 46.1079C24.1653 42.3143 21.1944 39.0735 17.3321 38.8784ZM16.7489 50.2917C14.2071 50.1616 12.2595 48.0372 12.3805 45.5334C12.5126 43.0296 14.6693 41.1003 17.2111 41.2304C19.7529 41.3604 21.7115 43.4849 21.5795 45.9887C21.4475 48.4925 19.2908 50.4218 16.7489 50.2917Z" fill="#1C4670"/>
<path d="M34.5957 58.2492C34.3316 57.4363 34.9038 57.6639 35.2779 58.1733C35.652 58.6828 38.3809 61.8477 39.8884 57.7506C41.4729 53.686 37.3026 54.3147 36.6864 54.4556C36.0702 54.5965 35.487 54.4014 36.2242 53.957C37.1595 53.4042 39.0851 52.3528 41.5169 53.4584C44.0918 54.6182 43.4866 57.5989 42.9914 58.8996C42.4962 60.2002 40.9668 62.8341 38.2489 62.0536C35.685 61.3058 34.9258 59.2789 34.5957 58.2492Z" fill="#1C4670"/>
<path d="M65.3835 69.5979C66.1207 69.1535 65.5375 68.9584 64.9213 69.0993C64.3051 69.2402 60.1348 69.8689 61.7193 65.7934C63.2268 61.6963 65.9557 64.8722 66.3298 65.3707C66.7039 65.8693 67.2761 66.1078 67.012 65.2949C66.6819 64.276 65.9227 62.2383 63.3588 61.5013C60.6299 60.7209 59.1114 63.3547 58.6163 64.6554C58.1211 65.956 57.5159 68.9367 60.1018 70.0965C62.5336 71.1912 64.4482 70.1507 65.3835 69.5979Z" fill="#1C4670"/>
<path d="M43.1664 57.0309L42.5283 58.7168L59.0661 64.7896L59.7041 63.1037L43.1664 57.0309Z" fill="#1C4670"/>
<path d="M42.5538 58.7498L41.915 60.4355L58.4511 66.5153L59.0898 64.8296L42.5538 58.7498Z" fill="#1C4670"/>
<path d="M64.9223 69.0982C65.5385 68.9573 66.1217 69.1524 65.3845 69.5968C64.4492 70.1496 62.5236 71.201 60.0918 70.0954C57.5169 68.9356 58.1221 65.955 58.6063 64.6543L61.7203 65.8032C60.1358 69.8678 64.3171 69.2391 64.9223 69.0982Z" fill="#1C4670"/>
<path d="M38.2599 62.0536C35.685 61.3058 34.9368 59.2789 34.5957 58.26C34.3316 57.4471 34.9038 57.6748 35.2779 58.1842C35.652 58.6936 38.3809 61.8586 39.8884 57.7614L43.0024 58.9104C42.4962 60.2002 40.9667 62.834 38.2599 62.0536Z" fill="#1C4670"/>
<path d="M54.7603 47.3601L49.0949 62.3301L50.4146 62.8147L56.08 47.8447L54.7603 47.3601Z" fill="#FCD751"/>
<path d="M56.0945 47.8547L50.4113 62.8184L51.7305 63.3045L57.4137 48.3409L56.0945 47.8547Z" fill="#7A7A7A"/>
<path d="M55.4585 49.5125C55.4585 49.5125 53.1148 48.2335 53.4889 47.1822C53.863 46.1308 56.4598 43.0959 57.7142 43.562L55.4585 49.5125Z" fill="#FCD751"/>
<path d="M55.4582 49.5131C55.4582 49.5131 58.077 50.0658 58.4952 49.0253C58.9133 47.9848 58.9793 44.0286 57.7139 43.5625L55.4582 49.5131Z" fill="#7A7A7A"/>
<path d="M48.4376 75.3288C47.9314 76.6511 46.435 77.334 45.0815 76.8354C43.7281 76.3368 43.0459 74.8627 43.552 73.5295L48.0855 61.6067C48.5916 60.2736 50.0881 59.6015 51.4416 60.1001C52.795 60.5987 53.4772 62.0728 52.9711 63.406L48.4376 75.3288Z" fill="#ABC3F5"/>
<path d="M45.9506 75.9478C45.8406 76.2405 45.5435 76.4031 45.2904 76.3055C45.0373 76.2188 44.9162 75.9045 45.0263 75.6118L50.0549 62.345C50.1649 62.0524 50.462 61.8898 50.7151 61.9873C50.9682 62.0849 51.0893 62.3884 50.9792 62.681L45.9506 75.9478Z" fill="#768296"/>
<path d="M47.6356 75.7955C47.5255 76.0882 47.2284 76.2507 46.9753 76.1532C46.7223 76.0556 46.6012 75.7522 46.7223 75.4595L51.7509 62.1927C51.8609 61.9 52.158 61.7375 52.4111 61.835C52.6642 61.9326 52.7852 62.2469 52.6752 62.5287L47.6356 75.7955Z" fill="#768296"/>
<path d="M43.8603 74.397C43.7502 74.6897 43.8713 75.004 44.1244 75.0907C44.3774 75.1882 44.6745 75.0257 44.7846 74.733L49.8132 61.4662C49.9232 61.1736 49.8132 60.8592 49.5491 60.7725C49.296 60.6749 48.9989 60.8376 48.8889 61.1302L43.8603 74.397Z" fill="#768296"/>
<path d="M54.236 62.4854C53.9829 63.1466 53.2457 63.4826 52.5744 63.2333L48.5031 61.7375C47.8319 61.4882 47.4908 60.7512 47.7439 60.09C47.997 59.4288 48.7342 59.0928 49.4054 59.3421L53.4767 60.8379C54.1479 61.098 54.4891 61.8242 54.236 62.4854Z" fill="#768296"/>
<path d="M53.8734 62.0305C53.6753 62.5399 53.0591 62.7784 52.4869 62.5725L49.0098 61.2935C48.4376 61.0767 48.1295 60.5022 48.3166 59.9928C48.5036 59.4834 49.1308 59.2449 49.703 59.4508L53.1801 60.7298C53.7523 60.9466 54.0604 61.5211 53.8734 62.0305Z" fill="#768296"/>
<path d="M50.6734 20.2155C50.6734 21.061 49.9691 21.7438 49.1108 21.7438H22.6033C21.745 21.7438 21.0518 21.0501 21.0518 20.2155V2.84079C21.0518 1.99535 21.756 1.3125 22.6033 1.3125H49.1108C49.9691 1.3125 50.6734 2.00619 50.6734 2.84079V20.2155Z" fill="#ABC3F5"/>
<path d="M51.6853 1.52829C51.6853 2.37372 50.9921 3.05658 50.1228 3.05658H21.5906C20.7323 3.05658 20.0391 2.37372 20.0391 1.52829C20.0391 0.682855 20.7323 0 21.5906 0H50.1228C50.9811 0 51.6853 0.682855 51.6853 1.52829Z" fill="#1C4670"/>
<path d="M57.9556 58.194L57.3174 57.6087C62.401 52.2218 65.2069 45.209 65.2069 37.8494C65.2069 30.9667 62.7201 24.3008 58.1977 19.0656L58.8689 18.502C63.5234 23.8889 66.0872 30.7608 66.0872 37.8494C66.0762 45.4149 63.1933 52.6445 57.9556 58.194Z" fill="#768296"/>
<path d="M6.27286 37.8385H5.39258C5.39258 28.181 10.1681 19.0764 18.1677 13.4727L18.6739 14.1772C10.9054 19.6183 6.27286 28.4628 6.27286 37.8385Z" fill="#768296"/>
<path d="M35.7412 67.7327C30.1074 67.7327 24.6056 66.2044 19.8301 63.2996L20.2922 62.5625C24.9247 65.3806 30.2725 66.8655 35.7412 66.8655C38.041 66.8655 40.3297 66.6054 42.5414 66.0851L42.7395 66.9198C40.4618 67.4617 38.107 67.7327 35.7412 67.7327Z" fill="#768296"/>
<path d="M47.3175 26.9458C44.9187 26.9458 42.674 26.0245 40.9795 24.3553C39.2849 22.6861 38.3496 20.4642 38.3496 18.1121C38.3496 15.7492 39.2849 13.5272 40.9795 11.8581C42.674 10.1889 44.9297 9.26758 47.3285 9.26758C49.7273 9.26758 51.983 10.1889 53.6666 11.8581C57.1657 15.3048 57.1657 20.9085 53.6666 24.3553C51.961 26.0245 49.7053 26.9458 47.3175 26.9458ZM47.3175 11.8581C45.623 11.8581 44.0274 12.5084 42.8281 13.6898C41.6287 14.8713 40.9685 16.4429 40.9685 18.1121C40.9685 19.7813 41.6287 21.3529 42.8281 22.5344C44.0274 23.7158 45.623 24.3662 47.3175 24.3662C49.0121 24.3662 50.6076 23.7158 51.807 22.5344C54.2828 20.0956 54.2828 16.1394 51.807 13.7007C50.6076 12.5084 49.0121 11.8581 47.3175 11.8581Z" fill="#1C4670"/>
<path d="M53.5473 22.4302L51.6875 24.2617L55.8107 28.3243L57.6705 26.4928L53.5473 22.4302Z" fill="#1C4670"/>
<path d="M68.6533 36.3321C69.1155 36.7873 69.1155 37.5352 68.6533 37.9904L67.498 39.1285C67.0358 39.5837 66.2766 39.5837 65.8144 39.1285L54.8769 28.3546C54.4147 27.8994 54.4147 27.1515 54.8769 26.6963L56.0323 25.5582C56.4944 25.103 57.2536 25.103 57.7158 25.5582L68.6533 36.3321Z" fill="#7A7A7A"/>
<path d="M58.4934 26.3179L55.6475 29.1094L56.2686 29.7238L59.1145 26.9323L58.4934 26.3179Z" fill="#1C4670"/>
<path d="M59.4598 27.2932L56.6211 30.0918L57.2438 30.7047L60.0825 27.9061L59.4598 27.2932Z" fill="#1C4670"/>
<path d="M67.2554 34.9393L64.4131 37.7344L65.035 38.348L67.8773 35.553L67.2554 34.9393Z" fill="#1C4670"/>
<path d="M66.2555 34.001L63.418 36.8008L64.041 37.4134L66.8785 34.6136L66.2555 34.001Z" fill="#1C4670"/>
</g>
</svg>
