<svg width="95" height="67" viewBox="0 0 95 67" fill="none" xmlns="http://www.w3.org/2000/svg">
<g opacity="0.5">
<path d="M29.215 1.83771C29.215 2.08273 29.0761 2.28183 28.8909 2.28183L27.1621 2.2665C26.9769 2.2665 26.838 2.06743 26.838 1.8224L26.8534 0.444127C26.8534 0.199098 27.0077 0 27.1775 0L28.8909 0.0153058C29.0761 0.0153058 29.215 0.214404 29.215 0.459432V1.83771Z" fill="#1C4670"/>
<path d="M29.1066 15.268C29.1066 15.023 28.9677 14.8239 28.7825 14.8239L27.0537 14.8086C26.8685 14.8086 26.7296 15.0077 26.7296 15.2527V16.631C26.7296 16.876 26.8685 17.0751 27.0537 17.0751L28.7825 17.0904C28.9677 17.0904 29.1066 16.8913 29.1066 16.6616V15.268Z" fill="#1C4670"/>
<path d="M25.6646 2.12772C25.7881 2.34212 25.7572 2.57184 25.6028 2.66373L24.1056 3.50602C23.9512 3.5979 23.7197 3.49068 23.5962 3.2916L22.9171 2.09709C22.7936 1.88269 22.8245 1.65299 22.9788 1.5611L24.4761 0.718812C24.6304 0.626926 24.8619 0.734125 24.9854 0.93321L25.6646 2.12772Z" fill="#1C4670"/>
<path d="M32.3333 13.8135C32.2098 13.5991 31.9937 13.4919 31.8393 13.5838L30.3421 14.4261C30.1877 14.518 30.1569 14.763 30.2804 14.9621L30.9595 16.1566C31.083 16.371 31.3145 16.4629 31.4534 16.3863L32.9507 15.544C33.105 15.4522 33.1359 15.2071 33.0124 15.0081L32.3333 13.8135Z" fill="#1C4670"/>
<path d="M22.7323 4.13458C22.9484 4.25709 23.041 4.48681 22.9484 4.63995L22.084 6.11013C21.9914 6.26327 21.7444 6.29389 21.5283 6.17138L20.3398 5.46693C20.1237 5.34442 20.0311 5.1147 20.1237 4.96156L20.9881 3.49138C21.0807 3.33824 21.3277 3.30761 21.5283 3.44544L22.7323 4.13458Z" fill="#1C4670"/>
<path d="M34.4014 10.935C34.2007 10.8125 33.9538 10.8431 33.8611 10.9962L32.9968 12.4664C32.9041 12.6195 32.9968 12.8493 33.2129 12.9718L34.4014 13.6762C34.6175 13.7987 34.8644 13.7681 34.9571 13.6303L35.8214 12.1448C35.9141 11.9917 35.8214 11.7619 35.6053 11.6394L34.4014 10.935Z" fill="#1C4670"/>
<path d="M21.2039 7.3197C21.4509 7.3197 21.6515 7.47285 21.6515 7.64131L21.6361 9.3565C21.6361 9.54027 21.4355 9.67811 21.1885 9.67811L19.7993 9.66278C19.5523 9.66278 19.3517 9.50963 19.3671 9.32586L19.3825 7.61067C19.3825 7.4269 19.5832 7.28906 19.8302 7.28906L21.2039 7.3197Z" fill="#1C4670"/>
<path d="M34.7405 7.42773C34.4935 7.42773 34.2928 7.56555 34.2928 7.74932L34.2774 9.46453C34.2774 9.6483 34.4781 9.78612 34.725 9.78612L36.1142 9.80143C36.3612 9.80143 36.5618 9.66361 36.5618 9.47984L36.5773 7.76465C36.5773 7.58088 36.3921 7.44304 36.1451 7.44304L34.7405 7.42773Z" fill="#1C4670"/>
<path d="M21.498 10.8276C21.6986 10.705 21.9456 10.7357 22.0382 10.8888L22.8872 12.3743C22.9798 12.5274 22.8717 12.7571 22.6711 12.8643L21.4671 13.5382C21.251 13.6607 21.0195 13.6301 20.9269 13.4769L20.0779 11.9914C20.0007 11.8383 20.0934 11.6086 20.294 11.4861L21.498 10.8276Z" fill="#1C4670"/>
<path d="M33.2741 4.21231C33.058 4.33483 32.9654 4.54923 33.0426 4.71769L33.9069 6.20317C33.9996 6.35631 34.2465 6.38693 34.4472 6.26442L35.6666 5.59059C35.8827 5.46807 35.9753 5.25369 35.8981 5.08524L35.0183 3.59975C34.9257 3.44661 34.6942 3.41597 34.4781 3.53848L33.2741 4.21231Z" fill="#1C4670"/>
<path d="M23.5038 13.7362C23.6273 13.5218 23.8588 13.4299 24.0132 13.5218L25.495 14.3947C25.6493 14.4866 25.6802 14.7316 25.5413 14.946L24.8313 16.1406C24.7078 16.355 24.4762 16.4468 24.3219 16.355L22.8401 15.4973C22.6703 15.4055 22.6549 15.1604 22.7783 14.9614L23.5038 13.7362Z" fill="#1C4670"/>
<path d="M30.3722 2.15894C30.2487 2.37334 30.2795 2.60304 30.4339 2.69492L31.9311 3.55254C32.0855 3.64443 32.317 3.55254 32.4405 3.33814L33.1505 2.14361C33.274 1.92921 33.2431 1.68419 33.0888 1.60762L31.607 0.734698C31.4526 0.642813 31.2211 0.734698 31.0976 0.949097L30.3722 2.15894Z" fill="#1C4670"/>
<path d="M28.0264 1.33225C24.0132 1.30162 20.7255 4.50232 20.6946 8.48403C20.6637 12.4657 23.8897 15.7277 27.903 15.7583C31.9162 15.7889 35.2039 12.5882 35.2348 8.60652C35.2657 4.62481 32.0397 1.36288 28.0264 1.33225ZM27.9338 13.2927C25.2944 13.2774 23.1643 11.1334 23.1797 8.51464C23.1952 5.8959 25.3561 3.78253 27.9956 3.79785C30.635 3.81316 32.7651 5.95716 32.7497 8.59122C32.7342 11.21 30.5733 13.3233 27.9338 13.2927Z" fill="#1C4670"/>
<path d="M79.2583 44.5179C79.2583 44.7017 79.1502 44.8395 79.0267 44.8395L77.7764 44.8242C77.6375 44.8242 77.5449 44.6863 77.5449 44.5026L77.5603 43.5072C77.5603 43.3387 77.6684 43.1855 77.8073 43.1855L79.0576 43.2009C79.1811 43.2009 79.2891 43.3387 79.2891 43.5225L79.2583 44.5179Z" fill="#1C4670"/>
<path d="M79.1811 54.2275C79.1811 54.0591 79.0731 53.9059 78.9496 53.9059L77.6993 53.8906C77.5758 53.8906 77.4678 54.0284 77.4678 54.2122V55.2077C77.4678 55.3761 77.5758 55.5139 77.6993 55.5292H78.9496C79.0731 55.5292 79.1811 55.3914 79.1811 55.223V54.2275Z" fill="#1C4670"/>
<path d="M76.6964 44.7178C76.789 44.8709 76.7581 45.0394 76.6501 45.116L75.5696 45.7285C75.4616 45.7898 75.2918 45.7285 75.1992 45.5754L74.7052 44.7025C74.6126 44.5493 74.6435 44.3809 74.7515 44.3196L75.832 43.7071C75.9401 43.6458 76.1099 43.7071 76.2025 43.8602L76.6964 44.7178Z" fill="#1C4670"/>
<path d="M81.5122 53.1695C81.435 53.0164 81.2653 52.9398 81.1572 53.0164L80.0767 53.629C79.9687 53.6902 79.9378 53.874 80.0304 54.0271L80.5244 54.9C80.617 55.0532 80.7713 55.1298 80.8794 55.0685L81.9753 54.4559C82.0833 54.3947 82.1142 54.2109 82.0216 54.0577L81.5122 53.1695Z" fill="#1C4670"/>
<path d="M74.5821 46.1711C74.7365 46.263 74.7983 46.4314 74.7365 46.5386L74.1037 47.6106C74.0265 47.7331 73.8567 47.7485 73.7023 47.6566L72.8379 47.1512C72.6836 47.0593 72.6064 46.9062 72.6836 46.7837L73.3164 45.7117C73.3782 45.6045 73.5634 45.5739 73.7023 45.6657L74.5821 46.1711Z" fill="#1C4670"/>
<path d="M83.009 51.0884C82.8546 50.9965 82.6848 51.0118 82.6231 51.1343L81.9902 52.2063C81.9131 52.3135 81.9902 52.482 82.1446 52.5739L83.009 53.0792C83.1633 53.1711 83.3331 53.1558 83.4103 53.0486L84.0432 51.9766C84.1049 51.8694 84.0432 51.7009 83.8888 51.609L83.009 51.0884Z" fill="#1C4670"/>
<path d="M73.4698 48.4688C73.6396 48.4688 73.794 48.576 73.794 48.6985L73.7785 49.9389C73.7785 50.0768 73.6242 50.1686 73.4544 50.1686H72.4511C72.2813 50.1686 72.127 50.0614 72.127 49.9389L72.1424 48.6985C72.1424 48.5606 72.2813 48.4688 72.4665 48.4688H73.4698Z" fill="#1C4670"/>
<path d="M83.2566 48.5449C83.0868 48.5449 82.9324 48.6521 82.9324 48.7746L82.917 50.0151C82.917 50.1529 83.0559 50.2448 83.2411 50.2601H84.2444C84.4142 50.2601 84.5686 50.1529 84.5686 50.0304V48.79C84.5686 48.6674 84.4297 48.5602 84.2599 48.5449H83.2566Z" fill="#1C4670"/>
<path d="M73.6864 51.0114C73.8407 50.9196 74.0105 50.9502 74.0722 51.0574L74.6897 52.1294C74.7514 52.2366 74.6897 52.405 74.5353 52.4816L73.6555 52.9717C73.5011 53.0635 73.3313 53.0329 73.2542 52.9257L72.6368 51.8537C72.575 51.7465 72.6522 51.5781 72.7911 51.4862L73.6864 51.0114Z" fill="#1C4670"/>
<path d="M82.1917 46.2332C82.0373 46.3251 81.9756 46.4783 82.0219 46.5855L82.6393 47.6575C82.701 47.7647 82.8708 47.7953 83.0252 47.7034L83.905 47.2133C84.0594 47.1215 84.1365 46.9683 84.0594 46.8611L83.4419 45.7891C83.3802 45.6819 83.2104 45.6666 83.0406 45.7432L82.1917 46.2332Z" fill="#1C4670"/>
<path d="M75.1375 53.1102C75.2301 52.9571 75.3844 52.8958 75.5079 52.9571L76.5884 53.585C76.6964 53.6462 76.7273 53.83 76.6347 53.9831L76.1253 54.8407C76.0327 54.9939 75.8784 55.0551 75.7549 54.9939L74.6898 54.366C74.5663 54.3047 74.5509 54.1209 74.6435 53.9831L75.1375 53.1102Z" fill="#1C4670"/>
<path d="M80.0922 44.7471C80.015 44.9003 80.015 45.0687 80.1385 45.1453L81.219 45.7732C81.327 45.8344 81.4968 45.7732 81.5894 45.62L82.0988 44.7624C82.1914 44.6093 82.176 44.4408 82.0525 44.3643L80.9874 43.7364C80.8794 43.6751 80.7096 43.7364 80.617 43.8895L80.0922 44.7471Z" fill="#1C4670"/>
<path d="M78.3931 44.1507C75.4912 44.1201 73.1141 46.4478 73.0987 49.3269C73.0833 52.206 75.414 54.5644 78.3159 54.5797C81.2177 54.595 83.5948 52.2825 83.6102 49.4035C83.6411 46.5244 81.3104 44.166 78.3931 44.1507ZM78.3313 52.7879C76.4173 52.7726 74.8892 51.2259 74.9047 49.3269C74.9201 47.4279 76.4791 45.9118 78.3931 45.9271C80.3071 45.9425 81.8352 47.4892 81.8197 49.3882C81.8043 51.2871 80.2453 52.8186 78.3313 52.7879Z" fill="#1C4670"/>
<path d="M26.1268 57.8881C26.1268 58.0412 26.0342 58.1484 25.9261 58.1484H24.8919C24.7839 58.1484 24.6913 58.0259 24.7067 57.8881V57.0611C24.7067 56.9233 24.7993 56.8008 24.9074 56.8008L25.9415 56.8161C26.0496 56.8161 26.1422 56.9386 26.1422 57.0765L26.1268 57.8881Z" fill="#1C4670"/>
<path d="M26.0646 65.9124C26.0646 65.7746 25.972 65.652 25.8794 65.652L24.8452 65.6367C24.7371 65.6367 24.6445 65.7592 24.6445 65.8971V66.724C24.6445 66.8619 24.7217 66.9844 24.8298 66.9844L25.8639 66.9997C25.972 66.9997 26.0646 66.8772 26.0646 66.7393V65.9124Z" fill="#1C4670"/>
<path d="M24.0117 58.0711C24.0889 58.1936 24.0735 58.3467 23.9654 58.3927L23.0702 58.8981C22.9776 58.944 22.8386 58.898 22.7769 58.7602L22.3756 58.0404C22.2984 57.9179 22.3138 57.7648 22.4065 57.7189L23.3017 57.2135C23.3943 57.1522 23.5332 57.2135 23.6104 57.336L24.0117 58.0711Z" fill="#1C4670"/>
<path d="M27.9955 65.0398C27.9338 64.9173 27.7948 64.856 27.7022 64.902L26.807 65.4227C26.7144 65.4839 26.6989 65.6217 26.7607 65.7443L27.162 66.464C27.2392 66.5865 27.3781 66.6478 27.4553 66.6019L28.3505 66.0965C28.4431 66.0505 28.4586 65.8974 28.3814 65.7749L27.9955 65.0398Z" fill="#1C4670"/>
<path d="M22.2678 59.2669C22.3913 59.3435 22.453 59.4813 22.3913 59.5732L21.8664 60.4461C21.8047 60.538 21.6658 60.5533 21.5423 60.4767L20.8323 60.0632C20.7088 59.9867 20.647 59.8488 20.7088 59.757L21.2336 58.8687C21.2953 58.7768 21.4343 58.7615 21.5577 58.8381L22.2678 59.2669Z" fill="#1C4670"/>
<path d="M29.2286 63.3244C29.1052 63.2479 28.9662 63.2632 28.9045 63.355L28.3797 64.2433C28.3179 64.3352 28.3797 64.473 28.5032 64.5342L29.2132 64.9477C29.3367 65.0243 29.491 65.009 29.5373 64.9171L30.0622 64.0289C30.1239 63.937 30.0621 63.7992 29.9387 63.7226L29.2286 63.3244Z" fill="#1C4670"/>
<path d="M21.3574 61.1657C21.4964 61.1657 21.6198 61.2576 21.6198 61.3648L21.6044 62.3909C21.6044 62.4981 21.4809 62.5746 21.342 62.5746H20.5085C20.3696 62.5746 20.2461 62.4828 20.2461 62.3756V61.3495C20.2461 61.2423 20.3696 61.1504 20.5085 61.1657H21.3574Z" fill="#1C4670"/>
<path d="M29.4458 61.2262C29.3069 61.2262 29.1834 61.3181 29.1834 61.41L29.168 62.4361C29.168 62.5433 29.2915 62.6352 29.4304 62.6352H30.2639C30.4028 62.6352 30.5263 62.5433 30.5263 62.4361V61.41C30.5263 61.3028 30.4028 61.2109 30.2639 61.2109L29.4458 61.2262Z" fill="#1C4670"/>
<path d="M21.5273 63.2641C21.6507 63.1875 21.7897 63.2182 21.8514 63.31L22.3608 64.1983C22.4071 64.2902 22.3608 64.428 22.2218 64.4892L21.4964 64.9027C21.3729 64.9793 21.2185 64.964 21.1722 64.8568L20.6629 63.9686C20.6166 63.8767 20.6629 63.7389 20.8018 63.6776L21.5273 63.2641Z" fill="#1C4670"/>
<path d="M28.5508 59.3119C28.4273 59.3884 28.3656 59.511 28.4119 59.6028L28.9212 60.4911C28.9675 60.583 29.1219 60.5983 29.2454 60.537L29.9708 60.1389C30.0943 60.0623 30.1561 59.9398 30.1098 59.8479L29.6004 58.9596C29.5386 58.8678 29.3997 58.8525 29.2762 58.9137L28.5508 59.3119Z" fill="#1C4670"/>
<path d="M22.7312 65.0098C22.8084 64.8873 22.9319 64.8261 23.0399 64.8873L23.9352 65.408C24.0278 65.4693 24.0432 65.6071 23.966 65.7296L23.5493 66.4341C23.4721 66.5566 23.3486 66.6178 23.256 66.5566L22.3762 66.0359C22.2836 65.9746 22.2681 65.8368 22.3453 65.7143L22.7312 65.0098Z" fill="#1C4670"/>
<path d="M26.8209 58.0873C26.7437 58.2099 26.7592 58.3477 26.8518 58.4089L27.747 58.9296C27.8396 58.9909 27.9786 58.9296 28.0557 58.8071L28.4725 58.1026C28.5497 57.9801 28.5342 57.827 28.4416 57.781L27.5618 57.2604C27.4692 57.1991 27.3303 57.2604 27.2531 57.3829L26.8209 58.0873Z" fill="#1C4670"/>
<path d="M25.4162 57.5977C23.0237 57.5824 21.0634 59.4967 21.0479 61.8704C21.0325 64.2441 22.9619 66.1891 25.3544 66.2197C27.7469 66.235 29.7072 64.3207 29.7226 61.947C29.7535 59.558 27.8241 57.6131 25.4162 57.5977ZM25.3699 64.7342C23.7954 64.7189 22.5143 63.4478 22.5297 61.8704C22.5452 60.3084 23.8263 59.0526 25.4162 59.0526C26.9906 59.0679 28.2717 60.339 28.2563 61.9164C28.2408 63.4937 26.9443 64.7495 25.3699 64.7342Z" fill="#1C4670"/>
<path d="M45.6079 4.99249C45.6079 5.17626 45.4998 5.3141 45.3763 5.3141L44.1261 5.29879C43.9871 5.29879 43.8945 5.16095 43.8945 4.97718V3.98177C43.8945 3.81331 44.0026 3.66016 44.1415 3.66016L45.3763 3.67546C45.5152 3.67546 45.6079 3.8133 45.6079 3.99707V4.99249Z" fill="#1C4670"/>
<path d="M45.5317 14.7021C45.5317 14.5337 45.4236 14.3805 45.3002 14.3805L44.0499 14.3652C43.9264 14.3652 43.8184 14.503 43.8184 14.6868V15.6823C43.8184 15.8507 43.9264 15.9885 44.0499 16.0038H45.3002C45.4391 16.0038 45.5317 15.866 45.5317 15.6976V14.7021Z" fill="#1C4670"/>
<path d="M43.0442 5.19179C43.1369 5.34493 43.1214 5.51339 42.9979 5.57464L41.9175 6.18723C41.8094 6.24849 41.6396 6.18722 41.5624 6.03408L41.0685 5.16115C40.9759 5.00801 41.0068 4.83956 41.1148 4.76299L42.1953 4.15043C42.3033 4.08917 42.4731 4.15042 42.5657 4.30356L43.0442 5.19179Z" fill="#1C4670"/>
<path d="M47.8618 13.6441C47.7692 13.491 47.6149 13.4144 47.5068 13.491L46.4263 14.1036C46.3183 14.1648 46.2874 14.3486 46.38 14.5017L46.874 15.3593C46.9666 15.5125 47.1209 15.589 47.229 15.5278L48.3095 14.9152C48.4175 14.854 48.4484 14.6702 48.3558 14.517L47.8618 13.6441Z" fill="#1C4670"/>
<path d="M40.93 6.64697C41.0844 6.73886 41.1461 6.89201 41.0844 7.01452L40.4515 8.08652C40.3898 8.19372 40.2046 8.22434 40.0502 8.13246L39.1858 7.62708C39.0315 7.5352 38.9697 7.38207 39.0315 7.25956L39.6643 6.18756C39.7261 6.08036 39.9113 6.06503 40.0502 6.1416L40.93 6.64697Z" fill="#1C4670"/>
<path d="M49.3586 11.563C49.2042 11.4711 49.0344 11.4864 48.9727 11.6089L48.3398 12.6809C48.2627 12.7881 48.3399 12.9566 48.4942 13.0485L49.3586 13.5538C49.5129 13.6457 49.6827 13.6304 49.7599 13.5232L50.3928 12.4512C50.4545 12.344 50.3928 12.1755 50.2384 12.0837L49.3586 11.563Z" fill="#1C4670"/>
<path d="M39.8197 8.94304C40.005 8.94304 40.1439 9.05025 40.1439 9.17277L40.1284 10.4132C40.1284 10.5357 39.9741 10.6429 39.8043 10.6429L38.801 10.6276C38.6312 10.6276 38.4768 10.5204 38.4923 10.3979V9.15744C38.4923 9.01961 38.6466 8.92773 38.8164 8.92773L39.8197 8.94304Z" fill="#1C4670"/>
<path d="M49.6052 9.01953C49.4354 9.01953 49.2811 9.12675 49.2811 9.24926L49.2656 10.4897C49.2656 10.6122 49.4045 10.7194 49.5898 10.7194L50.5931 10.7347C50.7629 10.7347 50.9172 10.6275 50.9172 10.505L50.9326 9.26456C50.9326 9.14205 50.7937 9.03485 50.6239 9.01953H49.6052Z" fill="#1C4670"/>
<path d="M40.0362 11.486C40.1905 11.3942 40.3603 11.4248 40.422 11.532L41.0395 12.604C41.1012 12.7112 41.0395 12.8797 40.8851 12.9562L40.0053 13.4463C39.8509 13.5382 39.6811 13.5075 39.604 13.4003L38.9866 12.3283C38.9248 12.2211 38.9865 12.0527 39.1409 11.9608L40.0362 11.486Z" fill="#1C4670"/>
<path d="M48.5403 6.70854C48.3859 6.80042 48.3242 6.95356 48.3705 7.06076L48.9879 8.13275C49.0497 8.23995 49.2349 8.27058 49.3738 8.17869L50.2536 7.68865C50.408 7.59676 50.4852 7.44363 50.408 7.33643L49.7906 6.26441C49.7288 6.15721 49.5436 6.12658 49.3892 6.21847L48.5403 6.70854Z" fill="#1C4670"/>
<path d="M41.4871 13.5848C41.5797 13.4317 41.7341 13.3704 41.8575 13.4317L42.938 14.0596C43.0461 14.1361 43.0769 14.3046 42.9689 14.4577L42.4595 15.3153C42.3669 15.4685 42.2126 15.5297 42.0891 15.4685L41.0086 14.8406C40.8851 14.7793 40.8851 14.5956 40.9623 14.4577L41.4871 13.5848Z" fill="#1C4670"/>
<path d="M46.4414 5.2214C46.3488 5.37455 46.3642 5.543 46.4877 5.60426L47.5682 6.23215C47.6762 6.29341 47.846 6.23214 47.9386 6.079L48.448 5.2214C48.5406 5.06826 48.5252 4.89979 48.4017 4.82322L47.3212 4.19535C47.2131 4.13409 47.0434 4.19534 46.9507 4.34848L46.4414 5.2214Z" fill="#1C4670"/>
<path d="M44.7446 4.6253C41.8428 4.59467 39.4657 6.92242 39.4503 9.8015C39.4348 12.6806 41.7656 15.039 44.6674 15.0543C47.5693 15.0696 49.9464 12.7572 49.9618 9.87808C49.9927 6.999 47.6619 4.64061 44.7446 4.6253ZM44.6829 13.2625C42.7689 13.2472 41.2408 11.7005 41.2562 9.8015C41.2717 7.90253 42.8306 6.38644 44.7446 6.40176C46.6586 6.41707 48.1867 7.9638 48.1713 9.86277C48.1558 11.7617 46.5969 13.2779 44.6829 13.2625Z" fill="#1C4670"/>
<path d="M45.6371 61.7774C45.313 61.7774 45.0043 61.7315 44.711 61.6549C44.4177 61.7315 44.109 61.7774 43.7849 61.7774H13.1456C11.6175 61.7774 10.3672 60.537 10.3672 59.0209V12.1745C10.3672 10.6584 11.6175 9.41797 13.1456 9.41797H41.9326C42.9668 9.41797 43.9392 9.75489 44.711 10.3368C45.4828 9.75489 46.4398 9.41797 47.4894 9.41797H76.2765C77.8046 9.41797 79.0548 10.6584 79.0548 12.1745V59.0209C79.0548 60.537 77.8046 61.7774 76.2765 61.7774H45.6371Z" fill="#768296"/>
<path d="M76.2613 11.2402H51.3485H48.0299H47.4897C45.9616 11.2402 44.7113 12.4807 44.7113 13.9968C44.7113 12.4807 43.461 11.2402 41.9329 11.2402H41.3927H38.0741H13.1459C12.6365 11.2402 12.2197 11.6537 12.2197 12.1591V59.0054C12.2197 59.5108 12.6365 59.9243 13.1459 59.9243H14.9981H15.5383H18.857H38.0741H41.3927H41.9329H43.7852C44.2945 59.9243 44.7113 59.6946 44.7113 59.4189C44.7113 59.6946 45.128 59.9243 45.6374 59.9243H47.4897H48.0299H51.3485H70.5656H73.8842H74.4245H76.2767C76.7861 59.9243 77.2029 59.5108 77.2029 59.0054V12.1591C77.1874 11.6537 76.7707 11.2402 76.2613 11.2402Z" fill="url(#paint0_linear_182_759)"/>
<path d="M44.7113 34.0282V14.0124C44.7113 12.4963 43.461 11.2559 41.9329 11.2559H41.3927H38.0741H13.1459C12.6365 11.2559 12.2197 11.6693 12.2197 12.1747V59.021C12.2197 59.5264 12.6365 59.9399 13.1459 59.9399H14.9981H15.5383H18.857H38.0741H41.3927H41.9329H43.7852C44.2945 59.9399 44.7113 59.7102 44.7113 59.4345V34.0282Z" fill="white"/>
<path d="M44.7109 34.0282V14.0124C44.7109 12.4963 45.9612 11.2559 47.4893 11.2559H48.0296H51.3482H76.2764C76.7858 11.2559 77.2025 11.6693 77.2025 12.1747V59.021C77.2025 59.5264 76.7858 59.9399 76.2764 59.9399H74.4241H73.8839H70.5653H51.3482H48.0296H47.4893H45.6371C45.1277 59.9399 44.7109 59.7102 44.7109 59.4345V34.0282Z" fill="white"/>
<path d="M41.1611 14.3789H14.9209V19.1723H41.1611V14.3789Z" fill="#ABC3F5"/>
<path d="M41.1611 20.8125H14.9209V22.4971H41.1611V20.8125Z" fill="#AEBFCE"/>
<path d="M41.1611 27.2441H14.9209V28.9287H41.1611V27.2441Z" fill="#AEBFCE"/>
<path d="M41.1611 30.459H14.9209V32.1436H41.1611V30.459Z" fill="#AEBFCE"/>
<path d="M41.1611 33.6758H14.9209V35.3603H41.1611V33.6758Z" fill="#AEBFCE"/>
<path d="M41.1611 39.1895H14.9209V40.874H41.1611V39.1895Z" fill="#AEBFCE"/>
<path d="M41.1611 42.4043H14.9209V44.0889H41.1611V42.4043Z" fill="#AEBFCE"/>
<path d="M41.1611 48.8359H14.9209V50.5205H41.1611V48.8359Z" fill="#AEBFCE"/>
<path d="M41.1611 52.0527H14.9209V53.7373H41.1611V52.0527Z" fill="#AEBFCE"/>
<path d="M74.501 14.3789H48.2607V16.0635H74.501V14.3789Z" fill="#AEBFCE"/>
<path d="M74.501 17.5957H48.2607V19.2803H74.501V17.5957Z" fill="#AEBFCE"/>
<path d="M74.501 23.1094H48.2607V24.794H74.501V23.1094Z" fill="#AEBFCE"/>
<path d="M74.501 26.3242H48.2607V28.0088H74.501V26.3242Z" fill="#AEBFCE"/>
<path d="M74.501 29.541H48.2607V31.2256H74.501V29.541Z" fill="#AEBFCE"/>
<path d="M74.501 39.1895H48.2607V40.874H74.501V39.1895Z" fill="#AEBFCE"/>
<path d="M74.501 42.4043H48.2607V44.0889H74.501V42.4043Z" fill="#AEBFCE"/>
<path d="M74.501 45.6211H48.2607V47.3056H74.501V45.6211Z" fill="#AEBFCE"/>
<path d="M74.501 52.0527H48.2607V53.7373H74.501V52.0527Z" fill="#AEBFCE"/>
<path d="M93.0272 8.16271C93.0272 8.16271 91.8387 6.70787 89.0294 7.71861C86.8376 8.49964 76.7891 17.4891 77.8542 21.3789C77.8542 21.3789 78.6568 21.5321 79.799 19.1277C80.9413 16.7234 81.6513 15.3604 84.0129 13.0173C86.3745 10.6743 89.6314 8.3771 90.7119 9.41847L93.0272 8.16271Z" fill="#ABC3F5"/>
<path d="M85.3083 27.1515C79.2576 35.2833 71.648 42.2054 69.6877 40.7812C67.7274 39.3416 72.1728 30.0918 78.2235 21.9599C84.2741 13.8434 92.6247 5.91062 94.585 7.33484C96.5299 8.77438 91.3436 19.0349 85.3083 27.1515Z" fill="#1C4670"/>
<path d="M74.4565 34.3796C73.4995 33.6752 72.4499 33.2004 71.4003 32.9707C69.4554 36.9218 68.6373 40 69.6869 40.781C70.752 41.562 73.4841 39.8621 76.7101 36.8605C76.1698 35.9417 75.4135 35.0841 74.4565 34.3796Z" fill="#ABC3F5"/>
<path d="M84.8911 28.4076C84.3508 29.1426 83.7797 29.648 82.9462 29.0355L77.1116 24.7628C76.2781 24.1502 76.6022 23.461 77.1425 22.726C77.6982 21.9909 78.2693 21.4855 79.0873 22.0981L84.9374 26.3708C85.7554 26.9833 85.4313 27.6725 84.8911 28.4076Z" fill="url(#paint1_linear_182_759)"/>
<path d="M70.3051 39.9546C69.9655 39.7096 69.5951 39.5411 69.2246 39.4492C68.5455 40.8428 68.2522 41.9455 68.6226 42.2211C68.9931 42.4968 69.9655 41.8995 71.1078 40.8428C70.9071 40.5059 70.6447 40.2149 70.3051 39.9546Z" fill="url(#paint2_linear_182_759)"/>
<path d="M84.8911 28.4076C84.3508 29.1426 83.7797 29.648 82.9462 29.0355L77.1116 24.7628C76.2781 24.1502 76.6022 23.461 77.1425 22.726C77.6982 21.9909 78.2693 21.4855 79.0873 22.0981L84.9374 26.3708C85.7554 26.9833 85.4313 27.6725 84.8911 28.4076Z" fill="#ABC3F5"/>
<path d="M1.56934 28.0695C1.56934 28.0695 2.52633 26.9057 4.74903 27.7173C6.49323 28.3452 14.5042 35.5123 13.6553 38.6058C13.6553 38.6058 13.007 38.7283 12.1117 36.814C11.201 34.8997 10.6454 33.8124 8.7468 31.9441C6.86368 30.0757 4.27053 28.238 3.40615 29.0803L1.56934 28.0695Z" fill="#ABC3F5"/>
<path d="M7.72864 43.2159C12.5445 49.6939 18.6106 55.2223 20.1696 54.0737C21.7286 52.9252 18.1939 45.559 13.378 39.0811C8.56215 32.6032 1.89404 26.2784 0.335066 27.4269C-1.22391 28.5602 2.89735 36.738 7.72864 43.2159Z" fill="#1C4670"/>
<path d="M16.3733 48.9731C17.1451 48.4065 17.9786 48.0389 18.8121 47.8398C20.3557 50.9946 21.0194 53.4449 20.1704 54.0727C19.3215 54.6853 17.1451 53.3377 14.5674 50.9486C14.9996 50.2136 15.6016 49.5244 16.3733 48.9731Z" fill="#ABC3F5"/>
<path d="M8.05269 44.2106C8.48488 44.7926 8.94795 45.206 9.61167 44.716L14.2732 41.3009C14.9369 40.8109 14.6745 40.2596 14.2423 39.6776C13.7947 39.0957 13.347 38.6822 12.6833 39.1722L8.02182 42.5873C7.3581 43.0774 7.6205 43.6287 8.05269 44.2106Z" fill="url(#paint3_linear_182_759)"/>
<path d="M19.6905 53.4158C19.9529 53.2167 20.2616 53.0788 20.5549 53.0176C21.0951 54.1355 21.3266 55.0084 21.0333 55.2228C20.7401 55.4372 19.9683 54.9625 19.0576 54.1202C19.1965 53.8599 19.4126 53.6148 19.6905 53.4158Z" fill="#1C4670"/>
<path d="M8.05269 44.2106C8.48488 44.7926 8.94795 45.206 9.61167 44.716L14.2732 41.3009C14.9369 40.8109 14.6745 40.2596 14.2423 39.6776C13.7947 39.0957 13.347 38.6822 12.6833 39.1722L8.02182 42.5873C7.3581 43.0774 7.6205 43.6287 8.05269 44.2106Z" fill="#ABC3F5"/>
</g>
<defs>
<linearGradient id="paint0_linear_182_759" x1="44.7079" y1="55.1571" x2="44.7079" y2="6.46326" gradientUnits="userSpaceOnUse">
<stop stop-color="#CDEFFA"/>
<stop offset="1" stop-color="#FAFAFA"/>
</linearGradient>
<linearGradient id="paint1_linear_182_759" x1="77.1254" y1="22.729" x2="84.8416" y2="28.4713" gradientUnits="userSpaceOnUse">
<stop stop-color="#BDBDBD"/>
<stop offset="0.1172" stop-color="#ABABAB"/>
<stop offset="0.3225" stop-color="#919191"/>
<stop offset="0.5346" stop-color="#7F7F7F"/>
<stop offset="0.7556" stop-color="#747474"/>
<stop offset="1" stop-color="#707070"/>
</linearGradient>
<linearGradient id="paint2_linear_182_759" x1="68.5123" y1="40.4031" x2="70.3877" y2="41.7987" gradientUnits="userSpaceOnUse">
<stop stop-color="#286891"/>
<stop offset="0.01" stop-color="#276790"/>
<stop offset="0.2403" stop-color="#1C5176"/>
<stop offset="0.4781" stop-color="#144264"/>
<stop offset="0.726" stop-color="#103959"/>
<stop offset="1" stop-color="#0E3655"/>
</linearGradient>
<linearGradient id="paint3_linear_182_759" x1="14.2398" y1="39.6863" x2="8.09046" y2="44.2626" gradientUnits="userSpaceOnUse">
<stop stop-color="#BDBDBD"/>
<stop offset="0.1172" stop-color="#ABABAB"/>
<stop offset="0.3225" stop-color="#919191"/>
<stop offset="0.5346" stop-color="#7F7F7F"/>
<stop offset="0.7556" stop-color="#747474"/>
<stop offset="1" stop-color="#707070"/>
</linearGradient>
</defs>
</svg>
