<svg width="22" height="22" viewBox="0 0 22 22" fill="none" xmlns="http://www.w3.org/2000/svg">
<path d="M21.2553 18.7949C21.6245 19.2051 21.6245 19.8203 21.2143 20.1895L20.0659 21.3379C19.6967 21.748 19.0815 21.748 18.6713 21.3379L14.6108 17.2773C14.4057 17.0723 14.3237 16.8262 14.3237 16.5801V15.8828C12.8471 17.0312 11.0424 17.6875 9.07367 17.6875C4.35687 17.6875 0.542419 13.873 0.542419 9.15625C0.542419 4.48047 4.35687 0.625 9.07367 0.625C13.7495 0.625 17.6049 4.48047 17.6049 9.15625C17.6049 11.166 16.9077 12.9707 15.8002 14.4062H16.4565C16.7026 14.4062 16.9487 14.5293 17.1537 14.6934L21.2553 18.7949ZM9.07367 14.4062C11.9448 14.4062 14.3237 12.0684 14.3237 9.15625C14.3237 6.28516 11.9448 3.90625 9.07367 3.90625C6.16156 3.90625 3.82367 6.28516 3.82367 9.15625C3.82367 12.0684 6.16156 14.4062 9.07367 14.4062Z" fill="#003366"/>
</svg>
