<svg width="257" height="30" viewBox="0 0 257 30" fill="none" xmlns="http://www.w3.org/2000/svg">
<path d="M1.29289 14.2929C0.902374 14.6834 0.902374 15.3166 1.29289 15.7071L7.65686 22.071C8.04738 22.4616 8.68054 22.4616 9.07107 22.071C9.46159 21.6805 9.46159 21.0474 9.07107 20.6568L3.41422 15L9.07108 9.34312C9.46159 8.9526 9.46159 8.31943 9.07108 7.92891C8.68054 7.53839 8.04738 7.53839 7.65686 7.92891L1.29289 14.2929ZM252.096 14C251.544 14 251.096 14.4477 251.096 15C251.096 15.5523 251.544 16 252.096 16L252.096 14ZM242.288 16C242.841 16 243.288 15.5523 243.288 15C243.288 14.4477 242.841 14 242.288 14L242.288 16ZM232.481 14C231.928 14 231.481 14.4477 231.481 15C231.481 15.5523 231.928 16 232.481 16L232.481 14ZM222.673 16C223.225 16 223.673 15.5523 223.673 15C223.673 14.4477 223.225 14 222.673 14L222.673 16ZM212.865 14C212.313 14 211.865 14.4477 211.865 15C211.865 15.5523 212.313 16 212.865 16L212.865 14ZM203.058 16C203.61 16 204.058 15.5523 204.058 15C204.058 14.4477 203.61 14 203.058 14L203.058 16ZM193.25 14C192.698 14 192.25 14.4477 192.25 15C192.25 15.5523 192.698 16 193.25 16L193.25 14ZM183.442 16C183.995 16 184.442 15.5523 184.442 15C184.442 14.4477 183.995 14 183.442 14L183.442 16ZM173.635 14C173.082 14 172.635 14.4477 172.635 15C172.635 15.5523 173.082 16 173.635 16L173.635 14ZM163.827 16C164.379 16 164.827 15.5523 164.827 15C164.827 14.4477 164.379 14 163.827 14L163.827 16ZM154.019 14C153.467 14 153.019 14.4477 153.019 15C153.019 15.5523 153.467 16 154.019 16L154.019 14ZM144.212 16C144.764 16 145.212 15.5523 145.212 15C145.212 14.4477 144.764 14 144.212 14L144.212 16ZM134.404 14C133.852 14 133.404 14.4477 133.404 15C133.404 15.5523 133.852 16 134.404 16L134.404 14ZM124.596 16C125.148 16 125.596 15.5523 125.596 15C125.596 14.4477 125.148 14 124.596 14L124.596 16ZM114.788 14C114.236 14 113.788 14.4477 113.788 15C113.788 15.5523 114.236 16 114.788 16L114.788 14ZM104.981 16C105.533 16 105.981 15.5523 105.981 15C105.981 14.4477 105.533 14 104.981 14L104.981 16ZM95.1731 14C94.6208 14 94.1731 14.4477 94.1731 15C94.1731 15.5523 94.6208 16 95.1731 16L95.1731 14ZM85.3654 16C85.9176 16 86.3654 15.5523 86.3654 15C86.3654 14.4477 85.9176 14 85.3654 14L85.3654 16ZM75.5577 14C75.0054 14 74.5577 14.4477 74.5577 15C74.5577 15.5523 75.0054 16 75.5577 16L75.5577 14ZM65.75 16C66.3023 16 66.75 15.5523 66.75 15C66.75 14.4477 66.3023 14 65.75 14L65.75 16ZM55.9423 14C55.39 14 54.9423 14.4477 54.9423 15C54.9423 15.5523 55.39 16 55.9423 16L55.9423 14ZM46.1346 16C46.6869 16 47.1346 15.5523 47.1346 15C47.1346 14.4477 46.6869 14 46.1346 14L46.1346 16ZM36.3269 14C35.7746 14 35.3269 14.4477 35.3269 15C35.3269 15.5523 35.7746 16 36.3269 16L36.3269 14ZM26.5192 16C27.0715 16 27.5192 15.5523 27.5192 15C27.5192 14.4477 27.0715 14 26.5192 14L26.5192 16ZM16.7115 14C16.1592 14 15.7115 14.4477 15.7115 15C15.7115 15.5523 16.1592 16 16.7115 16L16.7115 14ZM6.90382 16C7.4561 16 7.90382 15.5523 7.90382 15C7.90382 14.4477 7.4561 14 6.90382 14L6.90382 16ZM257 14L252.096 14L252.096 16L257 16L257 14ZM242.288 14L232.481 14L232.481 16L242.288 16L242.288 14ZM222.673 14L212.865 14L212.865 16L222.673 16L222.673 14ZM203.058 14L193.25 14L193.25 16L203.058 16L203.058 14ZM183.442 14L173.635 14L173.635 16L183.442 16L183.442 14ZM163.827 14L154.019 14L154.019 16L163.827 16L163.827 14ZM144.212 14L134.404 14L134.404 16L144.212 16L144.212 14ZM124.596 14L114.788 14L114.788 16L124.596 16L124.596 14ZM104.981 14L95.1731 14L95.1731 16L104.981 16L104.981 14ZM85.3654 14L75.5577 14L75.5577 16L85.3654 16L85.3654 14ZM65.75 14L55.9423 14L55.9423 16L65.75 16L65.75 14ZM46.1346 14L36.3269 14L36.3269 16L46.1346 16L46.1346 14ZM26.5192 14L16.7115 14L16.7115 16L26.5192 16L26.5192 14ZM6.90382 14L2 14L2 16L6.90382 16L6.90382 14ZM0.585785 13.5858C-0.195251 14.3668 -0.195252 15.6331 0.585785 16.4142L13.3137 29.1421C14.0948 29.9232 15.3611 29.9232 16.1421 29.1421C16.9232 28.3611 16.9232 27.0947 16.1421 26.3137L4.82843 15L16.1421 3.68627C16.9232 2.90522 16.9232 1.63889 16.1421 0.857843C15.3611 0.0767945 14.0948 0.0767944 13.3137 0.857843L0.585785 13.5858ZM252.096 13C250.992 13 250.096 13.8954 250.096 15C250.096 16.1046 250.992 17 252.096 17L252.096 13ZM242.288 17C243.393 17 244.288 16.1046 244.288 15C244.288 13.8954 243.393 13 242.288 13L242.288 17ZM232.481 13C231.376 13 230.481 13.8954 230.481 15C230.481 16.1046 231.376 17 232.481 17L232.481 13ZM222.673 17C223.778 17 224.673 16.1046 224.673 15C224.673 13.8954 223.778 13 222.673 13L222.673 17ZM212.865 13C211.761 13 210.865 13.8954 210.865 15C210.865 16.1046 211.761 17 212.865 17L212.865 13ZM203.058 17C204.162 17 205.058 16.1046 205.058 15C205.058 13.8954 204.162 13 203.058 13L203.058 17ZM193.25 13C192.145 13 191.25 13.8954 191.25 15C191.25 16.1046 192.145 17 193.25 17L193.25 13ZM183.442 17C184.547 17 185.442 16.1046 185.442 15C185.442 13.8954 184.547 13 183.442 13L183.442 17ZM173.635 13C172.53 13 171.635 13.8954 171.635 15C171.635 16.1046 172.53 17 173.635 17L173.635 13ZM163.827 17C164.931 17 165.827 16.1046 165.827 15C165.827 13.8954 164.931 13 163.827 13L163.827 17ZM154.019 13C152.915 13 152.019 13.8954 152.019 15C152.019 16.1046 152.915 17 154.019 17L154.019 13ZM144.212 17C145.316 17 146.212 16.1046 146.212 15C146.212 13.8954 145.316 13 144.212 13L144.212 17ZM134.404 13C133.299 13 132.404 13.8954 132.404 15C132.404 16.1046 133.299 17 134.404 17L134.404 13ZM124.596 17C125.701 17 126.596 16.1046 126.596 15C126.596 13.8954 125.701 13 124.596 13L124.596 17ZM114.788 13C113.684 13 112.788 13.8954 112.788 15C112.788 16.1046 113.684 17 114.788 17L114.788 13ZM104.981 17C106.085 17 106.981 16.1046 106.981 15C106.981 13.8954 106.085 13 104.981 13L104.981 17ZM95.1731 13C94.0685 13 93.1731 13.8954 93.1731 15C93.1731 16.1046 94.0685 17 95.1731 17L95.1731 13ZM85.3654 17C86.4699 17 87.3654 16.1046 87.3654 15C87.3654 13.8954 86.4699 13 85.3654 13L85.3654 17ZM75.5577 13C74.4531 13 73.5577 13.8954 73.5577 15C73.5577 16.1046 74.4531 17 75.5577 17L75.5577 13ZM65.75 17C66.8546 17 67.75 16.1046 67.75 15C67.75 13.8954 66.8546 13 65.75 13L65.75 17ZM55.9423 13C54.8377 13 53.9423 13.8954 53.9423 15C53.9423 16.1046 54.8377 17 55.9423 17L55.9423 13ZM46.1346 17C47.2392 17 48.1346 16.1046 48.1346 15C48.1346 13.8954 47.2392 13 46.1346 13L46.1346 17ZM36.3269 13C35.2223 13 34.3269 13.8954 34.3269 15C34.3269 16.1046 35.2223 17 36.3269 17L36.3269 13ZM26.5192 17C27.6238 17 28.5192 16.1045 28.5192 15C28.5192 13.8954 27.6238 13 26.5192 13L26.5192 17ZM16.7115 13C15.6069 13 14.7115 13.8954 14.7115 15C14.7115 16.1045 15.6069 17 16.7115 17L16.7115 13ZM6.90382 17C8.00839 17 8.90382 16.1045 8.90382 15C8.90382 13.8954 8.00839 13 6.90382 13L6.90382 17ZM257 13L252.096 13L252.096 17L257 17L257 13ZM242.288 13L232.481 13L232.481 17L242.288 17L242.288 13ZM222.673 13L212.865 13L212.865 17L222.673 17L222.673 13ZM203.058 13L193.25 13L193.25 17L203.058 17L203.058 13ZM183.442 13L173.635 13L173.635 17L183.442 17L183.442 13ZM163.827 13L154.019 13L154.019 17L163.827 17L163.827 13ZM144.212 13L134.404 13L134.404 17L144.212 17L144.212 13ZM124.596 13L114.788 13L114.788 17L124.596 17L124.596 13ZM104.981 13L95.1731 13L95.1731 17L104.981 17L104.981 13ZM85.3654 13L75.5577 13L75.5577 17L85.3654 17L85.3654 13ZM65.75 13L55.9423 13L55.9423 17L65.75 17L65.75 13ZM46.1346 13L36.3269 13L36.3269 17L46.1346 17L46.1346 13ZM26.5192 13L16.7115 13L16.7115 17L26.5192 17L26.5192 13ZM6.90382 13L2 13L2 17L6.90382 17L6.90382 13Z" fill="#CAD9F9"/>
</svg>
