<svg width="24" height="24" viewBox="0 0 24 24" fill="none" xmlns="http://www.w3.org/2000/svg">
<mask id="mask0_182_593" style="mask-type:alpha" maskUnits="userSpaceOnUse" x="0" y="0" width="24" height="24">
<rect width="24" height="24" fill="#D9D9D9"/>
</mask>
<g mask="url(#mask0_182_593)">
<path d="M12 18L7.8 19.8C7.13333 20.0833 6.5 20.0292 5.9 19.6375C5.3 19.2458 5 18.6917 5 17.975V5C5 4.45 5.19583 3.97917 5.5875 3.5875C5.97917 3.19583 6.45 3 7 3H14C13.6667 3.5 13.4167 3.97917 13.25 4.4375C13.0833 4.89583 13 5.41667 13 6C13 7.2 13.3792 8.25833 14.1375 9.175C14.8958 10.0917 15.85 10.6667 17 10.9C17.3833 10.95 17.7167 10.975 18 10.975C18.2833 10.975 18.6167 10.95 19 10.9V17.975C19 18.6917 18.7 19.2458 18.1 19.6375C17.5 20.0292 16.8667 20.0833 16.2 19.8L12 18ZM17.825 6.175L20.65 3.35C20.85 3.15 21.0875 3.05 21.3625 3.05C21.6375 3.05 21.875 3.15 22.075 3.35C22.275 3.55 22.375 3.7875 22.375 4.0625C22.375 4.3375 22.275 4.575 22.075 4.775L18.525 8.3C18.325 8.5 18.0917 8.6 17.825 8.6C17.5583 8.6 17.325 8.5 17.125 8.3L15.7 6.875C15.5167 6.69167 15.425 6.4625 15.425 6.1875C15.425 5.9125 15.5167 5.675 15.7 5.475C15.9 5.275 16.1375 5.175 16.4125 5.175C16.6875 5.175 16.925 5.275 17.125 5.475L17.825 6.175Z" fill="#4D80E9"/>
</g>
</svg>
