<svg width="20" height="20" viewBox="0 0 20 20" fill="none" xmlns="http://www.w3.org/2000/svg">
<mask id="mask0_2_21039" style="mask-type:alpha" maskUnits="userSpaceOnUse" x="0" y="0" width="20" height="20">
<rect width="20" height="20" fill="#D9D9D9"/>
</mask>
<g mask="url(#mask0_2_21039)">
<path d="M5.83366 14.9583L10.0003 13.1667L14.167 14.9583V4.16667H5.83366V14.9583ZM5.33366 17C5.05588 17.1111 4.79199 17.0868 4.54199 16.9271C4.29199 16.7674 4.16699 16.5347 4.16699 16.2292V4.16667C4.16699 3.70833 4.33019 3.31597 4.65658 2.98958C4.98296 2.66319 5.37533 2.5 5.83366 2.5H14.167C14.6253 2.5 15.0177 2.66319 15.3441 2.98958C15.6705 3.31597 15.8337 3.70833 15.8337 4.16667V16.2292C15.8337 16.5347 15.7087 16.7674 15.4587 16.9271C15.2087 17.0868 14.9448 17.1111 14.667 17L10.0003 15L5.33366 17Z" fill="#FF7F50"/>
</g>
</svg>
