<svg width="40" height="40" viewBox="0 0 40 40" fill="none" xmlns="http://www.w3.org/2000/svg">
<mask id="mask0_124_1037" style="mask-type:alpha" maskUnits="userSpaceOnUse" x="0" y="0" width="40" height="40">
<rect y="40" width="40" height="40" transform="rotate(-90 0 40)" fill="#D9D9D9"/>
</mask>
<g mask="url(#mask0_124_1037)">
<path d="M24.9169 19.9991C24.9169 20.2213 24.8822 20.4296 24.8128 20.6241C24.7433 20.8185 24.6253 20.9991 24.4586 21.1658L16.7503 28.8741C16.4447 29.1796 16.0628 29.3255 15.6044 29.3116C15.1461 29.2977 14.7641 29.138 14.4586 28.8324C14.153 28.5269 14.0003 28.138 14.0003 27.6658C14.0003 27.1935 14.153 26.8046 14.4586 26.4991L20.9586 19.9991L14.4169 13.4574C14.1114 13.1519 13.9655 12.7699 13.9794 12.3116C13.9933 11.8533 14.153 11.4713 14.4586 11.1658C14.7641 10.8602 15.153 10.7074 15.6253 10.7074C16.0975 10.7074 16.4864 10.8602 16.7919 11.1658L24.4586 18.8324C24.6253 18.9991 24.7433 19.1796 24.8128 19.3741C24.8822 19.5685 24.9169 19.7769 24.9169 19.9991Z" fill="#FF7F50"/>
</g>
</svg>
