<svg width="40" height="40" viewBox="0 0 40 40" fill="none" xmlns="http://www.w3.org/2000/svg">
<mask id="mask0_2_21053" style="mask-type:alpha" maskUnits="userSpaceOnUse" x="0" y="0" width="40" height="40">
<rect width="40" height="40" fill="#D9D9D9"/>
</mask>
<g mask="url(#mask0_2_21053)">
<path d="M19.9999 24.9169C19.7777 24.9169 19.5694 24.8822 19.3749 24.8128C19.1805 24.7433 18.9999 24.6253 18.8333 24.4586L11.1249 16.7503C10.8194 16.4447 10.6735 16.0628 10.6874 15.6044C10.7013 15.1461 10.861 14.7641 11.1666 14.4586C11.4722 14.153 11.861 14.0003 12.3333 14.0003C12.8055 14.0003 13.1944 14.153 13.4999 14.4586L19.9999 20.9586L26.5416 14.4169C26.8472 14.1114 27.2291 13.9655 27.6874 13.9794C28.1458 13.9933 28.5277 14.153 28.8333 14.4586C29.1388 14.7641 29.2916 15.153 29.2916 15.6253C29.2916 16.0975 29.1388 16.4864 28.8333 16.7919L21.1666 24.4586C20.9999 24.6253 20.8194 24.7433 20.6249 24.8128C20.4305 24.8822 20.2222 24.9169 19.9999 24.9169Z" fill="#FF7F50"/>
</g>
</svg>
