<svg width="24" height="24" viewBox="0 0 24 24" fill="none" xmlns="http://www.w3.org/2000/svg">
<mask id="mask0_2_20949" style="mask-type:alpha" maskUnits="userSpaceOnUse" x="0" y="0" width="24" height="24">
<rect width="24" height="24" transform="matrix(1 0 0 -1 0 24)" fill="#D9D9D9"/>
</mask>
<g mask="url(#mask0_2_20949)">
<path d="M12.0002 9.05024C11.8668 9.05024 11.7418 9.07107 11.6252 9.11274C11.5085 9.1544 11.4002 9.22524 11.3002 9.32524L6.67515 13.9502C6.49182 14.1336 6.40432 14.3627 6.41265 14.6377C6.42099 14.9127 6.51682 15.1419 6.70015 15.3252C6.88349 15.5086 7.11682 15.6002 7.40015 15.6002C7.68349 15.6002 7.91682 15.5086 8.10015 15.3252L12.0002 11.4252L15.9252 15.3502C16.1085 15.5336 16.3377 15.6211 16.6127 15.6127C16.8877 15.6044 17.1168 15.5086 17.3002 15.3252C17.4835 15.1419 17.5752 14.9086 17.5752 14.6252C17.5752 14.3419 17.4835 14.1086 17.3002 13.9252L12.7002 9.32524C12.6002 9.22524 12.4918 9.1544 12.3752 9.11274C12.2585 9.07107 12.1335 9.05024 12.0002 9.05024Z" fill="#4F4F4F"/>
</g>
</svg>
