<svg width="61" height="62" viewBox="0 0 61 62" fill="none" xmlns="http://www.w3.org/2000/svg">
<g clip-path="url(#clip0_101_1152)">
<path d="M51.5559 5.16239L51.1929 4.88655C48.7727 3.04298 46.0195 1.66244 43.0774 0.817136C43.0651 0.817136 43.0587 0.811011 43.0462 0.811011C20.9212 -3.07454 3.43282 8.14706 0.310547 10.3105H22.8172C26.1335 10.5494 29.606 9.9918 32.722 12.0142C33.3435 12.4677 33.9052 12.9948 34.3945 13.5835C42.9644 15.0057 51.4271 16.9898 59.7256 19.5225C57.5785 10.846 52.7703 6.28584 51.5559 5.16239Z" fill="#CC3300"/>
<path d="M59.9529 22.183C51.6544 19.6504 43.1916 17.6663 34.6217 16.2441C37.7901 20.0209 37.9175 25.9718 37.9175 30.1926C37.9175 34.7094 37.6797 46.4641 29.9585 49.1608C27.8363 49.538 25.6831 49.7226 23.5262 49.7123C23.3905 49.6898 23.2565 49.6586 23.1249 49.619C18.6342 49.5457 6.35837 48.3943 0.56543 38.3917C2.08479 45.3423 8.19953 61.8938 31.9984 62.0003C47.3094 61.3875 60.9997 50.5459 60.9997 31.0628C61.0129 28.0726 60.6615 25.0916 59.9529 22.183Z" fill="#264751"/>
<path d="M23.1252 49.6185C22.8035 49.54 22.5143 49.3662 22.2972 49.1207C22.0801 48.8753 21.9456 48.5702 21.9122 48.2471L21.7118 38.8395C19.3593 25.8836 6.55737 21.8142 0 20.5762V20.7294C0 23.3034 0.0438747 25.6814 0.0813288 28.1757V35.3707C0.175811 36.3868 0.337621 37.3957 0.565733 38.3912C6.35867 48.3938 18.6345 49.5452 23.1252 49.6185Z" fill="#9933CC"/>
</g>
<defs>
<clipPath id="clip0_101_1152">
<rect width="61" height="62" fill="white"/>
</clipPath>
</defs>
</svg>
