<svg width="73" height="73" viewBox="0 0 73 73" fill="none" xmlns="http://www.w3.org/2000/svg">
<mask id="mask0_2_20908" style="mask-type:alpha" maskUnits="userSpaceOnUse" x="0" y="0" width="73" height="73">
<rect width="73" height="73" fill="#D9D9D9"/>
</mask>
<g mask="url(#mask0_2_20908)">
<path d="M12.1663 72.9993C10.4934 72.9993 9.06131 72.4036 7.86999 71.2123C6.67867 70.021 6.08301 68.5889 6.08301 66.916C6.08301 65.2431 6.67867 63.8109 7.86999 62.6196C9.06131 61.4283 10.4934 60.8326 12.1663 60.8326H60.833C62.5059 60.8326 63.938 61.4283 65.1294 62.6196C66.3207 63.8109 66.9163 65.2431 66.9163 66.916C66.9163 68.5889 66.3207 70.021 65.1294 71.2123C63.938 72.4036 62.5059 72.9993 60.833 72.9993H12.1663ZM15.208 54.7493C14.3462 54.7493 13.6238 54.4578 13.0408 53.8748C12.4578 53.2918 12.1663 52.5694 12.1663 51.7076V44.6358C12.1663 44.2302 12.2424 43.8373 12.3945 43.4571C12.5465 43.0769 12.7747 42.7347 13.0788 42.4306L39.6934 15.816L51.0997 27.2222L24.4851 53.8368C24.1809 54.141 23.8387 54.3691 23.4585 54.5212C23.0783 54.6733 22.6854 54.7493 22.2799 54.7493H15.208ZM18.2497 48.666H20.9872L42.583 27.2222L39.6934 24.3326L18.2497 45.9285V48.666ZM54.5215 23.8764L43.1153 12.4701L48.5903 6.99514C49.1479 6.38681 49.8577 6.09531 50.7195 6.12066C51.5813 6.14601 52.291 6.4375 52.8486 6.99514L59.9965 14.1431C60.5542 14.7007 60.833 15.3977 60.833 16.2342C60.833 17.0707 60.5542 17.7931 59.9965 18.4014L54.5215 23.8764Z" fill="#FF7F50"/>
</g>
</svg>
