<svg width="73" height="73" viewBox="0 0 73 73" fill="none" xmlns="http://www.w3.org/2000/svg">
<mask id="mask0_2_20917" style="mask-type:alpha" maskUnits="userSpaceOnUse" x="0" y="0" width="73" height="73">
<rect width="73" height="73" fill="#D9D9D9"/>
</mask>
<g mask="url(#mask0_2_20917)">
<path d="M60.6813 63.875C54.1417 63.875 47.7668 62.4175 41.5568 59.5026C35.3467 56.5877 29.8464 52.7349 25.0557 47.9443C20.2651 43.1536 16.4123 37.6533 13.4974 31.4432C10.5825 25.2332 9.125 18.8583 9.125 12.3188C9.125 11.4063 9.42917 10.6458 10.0375 10.0375C10.6458 9.42917 11.4063 9.125 12.3188 9.125H24.6375C25.3472 9.125 25.9809 9.35313 26.5385 9.80938C27.0962 10.2656 27.4257 10.8486 27.5271 11.5583L29.5042 22.2042C29.6056 22.9139 29.5929 23.5602 29.4661 24.1432C29.3394 24.7262 29.0479 25.2458 28.5917 25.7021L21.2156 33.1542C23.3448 36.8042 26.0189 40.226 29.238 43.4198C32.4571 46.6135 35.9931 49.3764 39.8458 51.7083L46.9938 44.5604C47.45 44.1042 48.0457 43.762 48.7807 43.5339C49.5158 43.3057 50.2382 43.2424 50.9479 43.3438L61.4417 45.4729C62.1514 45.625 62.7344 45.9672 63.1906 46.4995C63.6469 47.0318 63.875 47.6528 63.875 48.3625V60.6813C63.875 61.5938 63.5708 62.3542 62.9625 62.9625C62.3542 63.5708 61.5938 63.875 60.6813 63.875ZM18.326 27.375L23.3448 22.3562L22.0521 15.2083H15.2844C15.5378 17.2868 15.8927 19.3399 16.349 21.3677C16.8052 23.3955 17.4642 25.3979 18.326 27.375ZM57.7917 57.6396V50.9479L50.6438 49.5031L45.549 54.5979C47.526 55.4597 49.5411 56.1441 51.5943 56.651C53.6474 57.158 55.7132 57.4875 57.7917 57.6396Z" fill="#FF7F50"/>
</g>
</svg>
