<svg width="73" height="73" viewBox="0 0 73 73" fill="none" xmlns="http://www.w3.org/2000/svg">
<mask id="mask0_2_20916" style="mask-type:alpha" maskUnits="userSpaceOnUse" x="0" y="0" width="73" height="73">
<rect width="73" height="73" fill="#D9D9D9"/>
</mask>
<g mask="url(#mask0_2_20916)">
<path d="M15.2083 63.8744C13.5354 63.8744 12.1033 63.2787 10.912 62.0874C9.72066 60.8961 9.125 59.4639 9.125 57.791V15.2077C9.125 13.5348 9.72066 12.1026 10.912 10.9113C12.1033 9.72001 13.5354 9.12435 15.2083 9.12435H27.9833C28.6931 7.29935 29.8083 5.82921 31.3292 4.71393C32.85 3.59865 34.5736 3.04102 36.5 3.04102C38.4264 3.04102 40.15 3.59865 41.6708 4.71393C43.1917 5.82921 44.3069 7.29935 45.0167 9.12435H57.7917C59.4646 9.12435 60.8967 9.72001 62.088 10.9113C63.2793 12.1026 63.875 13.5348 63.875 15.2077V57.791C63.875 59.4639 63.2793 60.8961 62.088 62.0874C60.8967 63.2787 59.4646 63.8744 57.7917 63.8744H15.2083ZM36.5 12.9264C37.159 12.9264 37.704 12.711 38.1349 12.2801C38.5658 11.8492 38.7812 11.3042 38.7812 10.6452C38.7812 9.98615 38.5658 9.44119 38.1349 9.01029C37.704 8.57938 37.159 8.36393 36.5 8.36393C35.841 8.36393 35.296 8.57938 34.8651 9.01029C34.4342 9.44119 34.2188 9.98615 34.2188 10.6452C34.2188 11.3042 34.4342 11.8492 34.8651 12.2801C35.296 12.711 35.841 12.9264 36.5 12.9264ZM15.2083 54.2931C17.9458 51.6063 21.1269 49.4898 24.7516 47.9436C28.3762 46.3974 32.2924 45.6244 36.5 45.6244C40.7076 45.6244 44.6238 46.3974 48.2484 47.9436C51.8731 49.4898 55.0542 51.6063 57.7917 54.2931V15.2077H15.2083V54.2931ZM36.5 39.541C39.4403 39.541 41.9497 38.5018 44.0281 36.4233C46.1066 34.3448 47.1458 31.8355 47.1458 28.8952C47.1458 25.9549 46.1066 23.4455 44.0281 21.3671C41.9497 19.2886 39.4403 18.2493 36.5 18.2493C33.5597 18.2493 31.0503 19.2886 28.9719 21.3671C26.8934 23.4455 25.8542 25.9549 25.8542 28.8952C25.8542 31.8355 26.8934 34.3448 28.9719 36.4233C31.0503 38.5018 33.5597 39.541 36.5 39.541ZM21.2917 57.791H51.7083V57.0306C49.5792 55.2563 47.2219 53.9256 44.6365 53.0384C42.051 52.1513 39.3389 51.7077 36.5 51.7077C33.6611 51.7077 30.949 52.1513 28.3635 53.0384C25.7781 53.9256 23.4208 55.2563 21.2917 57.0306V57.791ZM36.5 33.4577C35.2326 33.4577 34.1554 33.0141 33.2682 32.127C32.3811 31.2398 31.9375 30.1625 31.9375 28.8952C31.9375 27.6278 32.3811 26.5506 33.2682 25.6634C34.1554 24.7763 35.2326 24.3327 36.5 24.3327C37.7674 24.3327 38.8446 24.7763 39.7318 25.6634C40.6189 26.5506 41.0625 27.6278 41.0625 28.8952C41.0625 30.1625 40.6189 31.2398 39.7318 32.127C38.8446 33.0141 37.7674 33.4577 36.5 33.4577Z" fill="#FF7F50"/>
</g>
</svg>
