<svg width="356" height="240" viewBox="0 0 246 240" fill="none" xmlns="http://www.w3.org/2000/svg">
<g filter="url(#filter0_d_2_20871)">
<path fill-rule="evenodd" clip-rule="evenodd" d="M22 24C22 15.1635 29.1634 8 38 8H220C228.837 8 236 15.1634 236 24V200.587C236 200.587 236 200.588 236 200.587C236 200.587 236 200.587 236 200.587L221.412 214.787C221.023 215.165 220.405 215.165 220.017 214.787L206.126 201.266C205.738 200.888 205.119 200.888 204.731 201.266L190.84 214.787C190.452 215.165 189.833 215.165 189.445 214.787L175.554 201.266C175.166 200.888 174.548 200.888 174.159 201.266L160.269 214.787C159.88 215.165 159.262 215.165 158.874 214.787L144.983 201.266C144.595 200.888 143.976 200.888 143.588 201.266L129.697 214.787C129.309 215.165 128.691 215.165 128.302 214.787L114.412 201.266C114.024 200.888 113.405 200.888 113.017 201.266L99.126 214.787C98.7378 215.165 98.1192 215.165 97.731 214.787L83.8403 201.266C83.452 200.888 82.8335 200.888 82.4453 201.266L68.5545 214.787C68.1663 215.165 67.5478 215.165 67.1595 214.787L53.2688 201.266C52.8806 200.888 52.262 200.888 51.8738 201.266L37.9831 214.787C37.5949 215.165 36.9763 215.165 36.5881 214.787L22.3025 200.882C22.1091 200.694 22 200.435 22 200.165V24Z" fill="#F6F6F6"/>
</g>
<defs>
<filter id="filter0_d_2_20871" x="0" y="0" width="356" height="239.07" filterUnits="userSpaceOnUse" color-interpolation-filters="sRGB">
<feFlood flood-opacity="0" result="BackgroundImageFix"/>
<feColorMatrix in="SourceAlpha" type="matrix" values="0 0 0 0 0 0 0 0 0 0 0 0 0 0 0 0 0 0 127 0" result="hardAlpha"/>
<feOffset dx="-6" dy="8"/>
<feGaussianBlur stdDeviation="8"/>
<feComposite in2="hardAlpha" operator="out"/>
<feColorMatrix type="matrix" values="0 0 0 0 0.0443643 0 0 0 0 0.154801 0 0 0 0 0.154801 0 0 0 1 0"/>
<feBlend mode="normal" in2="BackgroundImageFix" result="effect1_dropShadow_2_20871"/>
<feBlend mode="normal" in="SourceGraphic" in2="effect1_dropShadow_2_20871" result="shape"/>
</filter>
</defs>
</svg>
