<svg width="26" height="29" viewBox="0 0 26 29" fill="none" xmlns="http://www.w3.org/2000/svg">
<g filter="url(#filter0_d_2_20929)">
<mask id="mask0_2_20929" style="mask-type:alpha" maskUnits="userSpaceOnUse" x="1" y="0" width="24" height="24">
<rect x="1" width="24" height="24" fill="#D9D9D9"/>
</mask>
<g mask="url(#mask0_2_20929)">
<path d="M18.5 20.5C17.5333 20.5 16.7083 20.1583 16.025 19.475C15.3417 18.7917 15 17.9667 15 17C15 16.0333 15.3417 15.2083 16.025 14.525C16.7083 13.8417 17.5333 13.5 18.5 13.5C19.4667 13.5 20.2917 13.8417 20.975 14.525C21.6583 15.2083 22 16.0333 22 17C22 17.9667 21.6583 18.7917 20.975 19.475C20.2917 20.1583 19.4667 20.5 18.5 20.5ZM18.5 18.5C18.9167 18.5 19.2708 18.3542 19.5625 18.0625C19.8542 17.7708 20 17.4167 20 17C20 16.5833 19.8542 16.2292 19.5625 15.9375C19.2708 15.6458 18.9167 15.5 18.5 15.5C18.0833 15.5 17.7292 15.6458 17.4375 15.9375C17.1458 16.2292 17 16.5833 17 17C17 17.4167 17.1458 17.7708 17.4375 18.0625C17.7292 18.3542 18.0833 18.5 18.5 18.5ZM12 18H5C4.71667 18 4.47917 17.9042 4.2875 17.7125C4.09583 17.5208 4 17.2833 4 17C4 16.7167 4.09583 16.4792 4.2875 16.2875C4.47917 16.0958 4.71667 16 5 16H12C12.2833 16 12.5208 16.0958 12.7125 16.2875C12.9042 16.4792 13 16.7167 13 17C13 17.2833 12.9042 17.5208 12.7125 17.7125C12.5208 17.9042 12.2833 18 12 18ZM7.5 10.5C6.53333 10.5 5.70833 10.1583 5.025 9.475C4.34167 8.79167 4 7.96667 4 7C4 6.03333 4.34167 5.20833 5.025 4.525C5.70833 3.84167 6.53333 3.5 7.5 3.5C8.46667 3.5 9.29167 3.84167 9.975 4.525C10.6583 5.20833 11 6.03333 11 7C11 7.96667 10.6583 8.79167 9.975 9.475C9.29167 10.1583 8.46667 10.5 7.5 10.5ZM7.5 8.5C7.91667 8.5 8.27083 8.35417 8.5625 8.0625C8.85417 7.77083 9 7.41667 9 7C9 6.58333 8.85417 6.22917 8.5625 5.9375C8.27083 5.64583 7.91667 5.5 7.5 5.5C7.08333 5.5 6.72917 5.64583 6.4375 5.9375C6.14583 6.22917 6 6.58333 6 7C6 7.41667 6.14583 7.77083 6.4375 8.0625C6.72917 8.35417 7.08333 8.5 7.5 8.5ZM21 8H14C13.7167 8 13.4792 7.90417 13.2875 7.7125C13.0958 7.52083 13 7.28333 13 7C13 6.71667 13.0958 6.47917 13.2875 6.2875C13.4792 6.09583 13.7167 6 14 6H21C21.2833 6 21.5208 6.09583 21.7125 6.2875C21.9042 6.47917 22 6.71667 22 7C22 7.28333 21.9042 7.52083 21.7125 7.7125C21.5208 7.90417 21.2833 8 21 8Z" fill="#002347"/>
</g>
</g>
<defs>
<filter id="filter0_d_2_20929" x="-3" y="0" width="32" height="32" filterUnits="userSpaceOnUse" color-interpolation-filters="sRGB">
<feFlood flood-opacity="0" result="BackgroundImageFix"/>
<feColorMatrix in="SourceAlpha" type="matrix" values="0 0 0 0 0 0 0 0 0 0 0 0 0 0 0 0 0 0 127 0" result="hardAlpha"/>
<feOffset dy="4"/>
<feGaussianBlur stdDeviation="2"/>
<feComposite in2="hardAlpha" operator="out"/>
<feColorMatrix type="matrix" values="0 0 0 0 0 0 0 0 0 0 0 0 0 0 0 0 0 0 0.25 0"/>
<feBlend mode="normal" in2="BackgroundImageFix" result="effect1_dropShadow_2_20929"/>
<feBlend mode="normal" in="SourceGraphic" in2="effect1_dropShadow_2_20929" result="shape"/>
</filter>
</defs>
</svg>
