<svg width="24" height="24" viewBox="0 0 24 24" fill="none" xmlns="http://www.w3.org/2000/svg">
<mask id="mask0_1140_2445" style="mask-type:alpha" maskUnits="userSpaceOnUse" x="0" y="0" width="24" height="24">
<rect width="24" height="24" fill="#D9D9D9"/>
</mask>
<g mask="url(#mask0_1140_2445)">
<path d="M20 20C19.7167 20 19.4792 19.9042 19.2875 19.7125C19.0958 19.5208 19 19.2833 19 19V3H7C6.71667 3 6.47917 2.90417 6.2875 2.7125C6.09583 2.52083 6 2.28333 6 2C6 1.71667 6.09583 1.47917 6.2875 1.2875C6.47917 1.09583 6.71667 1 7 1H19C19.55 1 20.0208 1.19583 20.4125 1.5875C20.8042 1.97917 21 2.45 21 3V19C21 19.2833 20.9042 19.5208 20.7125 19.7125C20.5208 19.9042 20.2833 20 20 20ZM5 19.95L10 17.8L15 19.95V7H5V19.95ZM4.4 22.4C4.06667 22.5333 3.75 22.5 3.45 22.3C3.15 22.1 3 21.825 3 21.475V7C3 6.45 3.19583 5.97917 3.5875 5.5875C3.97917 5.19583 4.45 5 5 5H15C15.55 5 16.0208 5.19583 16.4125 5.5875C16.8042 5.97917 17 6.45 17 7V21.475C17 21.825 16.85 22.1 16.55 22.3C16.25 22.5 15.9333 22.5333 15.6 22.4L10 20L4.4 22.4Z" fill="#4F4F4F"/>
</g>
</svg>
