<svg width="24" height="24" viewBox="0 0 24 24" fill="none" xmlns="http://www.w3.org/2000/svg">
<mask id="mask0_182_641" style="mask-type:alpha" maskUnits="userSpaceOnUse" x="0" y="0" width="24" height="24">
<rect width="24" height="24" fill="#D9D9D9"/>
</mask>
<g mask="url(#mask0_182_641)">
<path d="M7 17.95L12 15.8L17 17.95V5H7V17.95ZM6.4 20.4C6.06667 20.5333 5.75 20.5042 5.45 20.3125C5.15 20.1208 5 19.8417 5 19.475V5C5 4.45 5.19583 3.97917 5.5875 3.5875C5.97917 3.19583 6.45 3 7 3H17C17.55 3 18.0208 3.19583 18.4125 3.5875C18.8042 3.97917 19 4.45 19 5V19.475C19 19.8417 18.85 20.1208 18.55 20.3125C18.25 20.5042 17.9333 20.5333 17.6 20.4L12 18L6.4 20.4Z" fill="#7A7A7A"/>
</g>
</svg>
