<svg width="24" height="24" viewBox="0 0 24 24" fill="none" xmlns="http://www.w3.org/2000/svg">
<mask id="mask0_751_1000" style="mask-type:alpha" maskUnits="userSpaceOnUse" x="-1" y="-1" width="25" height="25">
<rect x="-0.00012207" y="-0.000976562" width="24" height="24" fill="#D9D9D9"/>
</mask>
<g mask="url(#mask0_751_1000)">
<path d="M9.99993 13.5991L15.8999 7.69907C16.0833 7.51574 16.3166 7.42407 16.5999 7.42407C16.8833 7.42407 17.1166 7.51574 17.2999 7.69907C17.4833 7.88241 17.5749 8.11574 17.5749 8.39907C17.5749 8.68241 17.4833 8.91574 17.2999 9.09907L10.6999 15.6991C10.4999 15.8991 10.2666 15.9991 9.99993 15.9991C9.73326 15.9991 9.49993 15.8991 9.29993 15.6991L6.69993 13.0991C6.51659 12.9157 6.42493 12.6824 6.42493 12.3991C6.42493 12.1157 6.51659 11.8824 6.69993 11.6991C6.88326 11.5157 7.11659 11.4241 7.39993 11.4241C7.68326 11.4241 7.91659 11.5157 8.09993 11.6991L9.99993 13.5991Z" fill="#4E8335"/>
</g>
</svg>
