<svg width="63" height="60" viewBox="0 0 63 60" fill="none" xmlns="http://www.w3.org/2000/svg">
<path d="M54.9299 3.59423e-10H8.07013C7.01035 -1.00611e-05 5.96097 0.211225 4.98185 0.621644C4.00274 1.03206 3.11308 1.63363 2.36369 2.392C1.61431 3.15036 1.01988 4.05068 0.614316 5.04153C0.208751 6.03239 3.72828e-06 7.09438 0 8.16688V41.0005C3.72828e-06 42.073 0.208751 43.135 0.614316 44.1259C1.01988 45.1167 1.61431 46.017 2.36369 46.7754C3.11308 47.5338 4.00274 48.1353 4.98185 48.5458C5.96097 48.9562 7.01035 49.1674 8.07013 49.1674H13.714C12.2251 53.4535 10.5134 59.2897 11.9684 59.9468C13.6142 60.6901 21.1693 53.4681 25.4601 49.1674H54.9299C57.0702 49.1674 59.1228 48.307 60.6363 46.7754C62.1497 45.2438 63 43.1665 63 41.0005V8.16688C63 6.00088 62.1497 3.9236 60.6363 2.39202C59.1228 0.860434 57.0702 2.38799e-10 54.9299 3.59423e-10Z" fill="#F6F9FE"/>
<path d="M23.6599 16.4477C23.2649 16.2362 22.921 15.9382 22.6531 15.5754C22.3851 15.2125 22.1999 14.7937 22.1108 14.3493C22.0216 13.9049 22.0307 13.4459 22.1374 13.0055C22.2441 12.565 22.4457 12.1542 22.7278 11.8025C24.1656 10.0464 26.6943 8.25987 30.9654 8.43269C36.4184 8.65324 41.1477 12.4686 40.9436 17.6747C40.8017 21.2929 38.0609 23.4006 34.5118 24.7731C33.254 25.2772 33.1772 26.3094 33.1294 27.5279C33.1078 28.0763 32.8727 28.5935 32.4757 28.9658C32.0787 29.3381 31.5523 29.535 31.0124 29.5131L29.0857 29.4352C28.5458 29.4133 28.0365 29.1745 27.6699 28.7713C27.3034 28.3681 27.1095 27.8335 27.131 27.2851L27.2078 25.3282C27.2715 23.7037 27.3966 22.3775 29.0743 21.3729C31.3484 20.0228 33.4247 19.996 33.5275 17.3747C33.5546 16.9775 33.5022 16.5789 33.3733 16.2029C33.2444 15.8269 33.0417 15.4813 32.7776 15.1872C32.5134 14.893 32.1933 14.6563 31.8365 14.4914C31.4797 14.3265 31.0936 14.2368 30.7017 14.2278C30.0752 14.1952 29.4498 14.3126 28.8761 14.5705C28.3024 14.8284 27.7965 15.2197 27.399 15.7127C26.9514 16.2494 26.3368 16.6149 25.6568 16.7485C24.9769 16.8822 24.2724 16.776 23.6599 16.4477ZM33.9639 35.9563C33.9275 36.7907 33.6488 37.5955 33.1629 38.2692C32.6769 38.943 32.0055 39.4557 31.2332 39.7426C30.4609 40.0295 29.6223 40.0778 28.823 39.8815C28.0237 39.6851 27.2995 39.2529 26.7416 38.6393C26.1838 38.0257 25.8172 37.2581 25.6881 36.4332C25.5591 35.6083 25.6732 34.7631 26.0163 34.0041C26.3594 33.245 26.916 32.6061 27.6159 32.1677C28.3159 31.7294 29.128 31.5113 29.9498 31.5408C30.5001 31.559 31.0414 31.6881 31.5421 31.9207C32.0429 32.1532 32.4931 32.4845 32.8666 32.8954C33.2401 33.3063 33.5295 33.7884 33.7179 34.3139C33.9063 34.8394 33.9899 35.3977 33.9639 35.9563Z" fill="#003366"/>
</svg>
